<svg width="28" height="28" viewBox="0 0 28 28" fill="none" xmlns="http://www.w3.org/2000/svg">
<g id="mdi:address-marker-outline">
<path id="Vector" d="M13.9999 7.58301C14.7735 7.58301 15.5153 7.8903 16.0623 8.43728C16.6093 8.98426 16.9166 9.72613 16.9166 10.4997C16.9166 10.8827 16.8411 11.262 16.6946 11.6158C16.548 11.9697 16.3332 12.2912 16.0623 12.5621C15.7915 12.8329 15.4699 13.0477 15.1161 13.1943C14.7622 13.3409 14.3829 13.4163 13.9999 13.4163C13.2264 13.4163 12.4845 13.1091 11.9375 12.5621C11.3905 12.0151 11.0833 11.2732 11.0833 10.4997C11.0833 9.72613 11.3905 8.98426 11.9375 8.43728C12.4845 7.8903 13.2264 7.58301 13.9999 7.58301ZM13.9999 2.33301C16.1659 2.33301 18.2431 3.19342 19.7746 4.72497C21.3062 6.25652 22.1666 8.33374 22.1666 10.4997C22.1666 16.6247 13.9999 25.6663 13.9999 25.6663C13.9999 25.6663 5.83325 16.6247 5.83325 10.4997C5.83325 8.33374 6.69367 6.25652 8.22521 4.72497C9.75676 3.19342 11.834 2.33301 13.9999 2.33301ZM13.9999 4.66634C12.4528 4.66634 10.9691 5.28092 9.87513 6.37489C8.78117 7.46885 8.16659 8.95258 8.16659 10.4997C8.16659 11.6663 8.16659 13.9997 13.9999 21.828C19.8333 13.9997 19.8333 11.6663 19.8333 10.4997C19.8333 8.95258 19.2187 7.46885 18.1247 6.37489C17.0307 5.28092 15.547 4.66634 13.9999 4.66634Z" fill="white"/>
</g>
</svg>
