<svg width="52" height="52" viewBox="0 0 52 52" fill="none" xmlns="http://www.w3.org/2000/svg">
<g id="ic:baseline-apple">
<path id="Vector" d="M36.9417 43.94C34.8183 45.9983 32.5 45.6733 30.2683 44.6983C27.9067 43.7017 25.74 43.6583 23.2483 44.6983C20.1283 46.0417 18.4817 45.6517 16.6183 43.94C6.04499 33.0417 7.60499 16.445 19.6083 15.8383C22.5333 15.99 24.57 17.4417 26.2817 17.5717C28.8383 17.0517 31.2867 15.5567 34.0167 15.7517C37.2883 16.0117 39.7583 17.3117 41.3833 19.6517C34.6233 23.7033 36.2267 32.6083 42.4233 35.1C41.1883 38.35 39.585 41.5783 36.92 43.9617L36.9417 43.94ZM26.065 15.7083C25.74 10.8767 29.6617 6.89 34.1683 6.5C34.7967 12.09 29.0983 16.25 26.065 15.7083Z" fill="black"/>
</g>
</svg>
