<svg width="36" height="36" viewBox="0 0 36 36" fill="none" xmlns="http://www.w3.org/2000/svg">
<g id="Group">
<path id="Vector" fill-rule="evenodd" clip-rule="evenodd" d="M22.5 28.5C22.5003 29.2569 22.2144 29.9858 21.6998 30.5408C21.1851 31.0958 20.4797 31.4357 19.725 31.4925L19.5 31.5H16.5C15.7432 31.5002 15.0142 31.2144 14.4592 30.6998C13.9042 30.1851 13.5643 29.4797 13.5075 28.725L13.5 28.5H22.5ZM18 3C20.7225 2.99996 23.3385 4.05734 25.2964 5.94911C27.2542 7.84088 28.4007 10.4191 28.494 13.14L28.5 13.5V19.146L31.233 24.612C31.3523 24.8505 31.412 25.1144 31.407 25.381C31.402 25.6476 31.3324 25.909 31.2043 26.1429C31.0762 26.3767 30.8933 26.576 30.6712 26.7238C30.4492 26.8715 30.1947 26.9632 29.9295 26.991L29.757 27H6.24302C5.97626 27.0001 5.71347 26.9355 5.47715 26.8117C5.24083 26.688 5.03804 26.5088 4.88614 26.2895C4.73425 26.0702 4.63779 25.8174 4.60502 25.5527C4.57226 25.2879 4.60417 25.0192 4.69802 24.7695L4.76702 24.612L7.50002 19.146V13.5C7.50002 10.7152 8.60626 8.04451 10.5754 6.07538C12.5445 4.10625 15.2152 3 18 3ZM18 6C16.0673 6.00011 14.2093 6.74631 12.8134 8.08299C11.4174 9.41967 10.5914 11.2436 10.5075 13.1745L10.5 13.5V19.146C10.5 19.518 10.4309 19.8868 10.296 20.2335L10.1835 20.4885L8.42852 24H27.573L25.818 20.487C25.6515 20.1544 25.5483 19.7938 25.5135 19.4235L25.5 19.146V13.5C25.5 11.5109 24.7098 9.60322 23.3033 8.1967C21.8968 6.79018 19.9891 6 18 6Z" fill="black"/>
</g>
</svg>
