<svg width="32" height="32" viewBox="0 0 32 32" fill="none" xmlns="http://www.w3.org/2000/svg">
<g id="la:city">
<path id="Vector" d="M10 3.88306L3 7.38306V28.0001H29V10.0001H17V7.38306L10 3.88306ZM10 6.11706L15 8.61706V26.0001H5V8.61706L10 6.11706ZM7 10.0001V12.0001H9V10.0001H7ZM11 10.0001V12.0001H13V10.0001H11ZM17 12.0001H27V26.0001H17V12.0001ZM7 14.0001V16.0001H9V14.0001H7ZM11 14.0001V16.0001H13V14.0001H11ZM19 14.0001V16.0001H21V14.0001H19ZM23 14.0001V16.0001H25V14.0001H23ZM7 18.0001V20.0001H9V18.0001H7ZM11 18.0001V20.0001H13V18.0001H11ZM19 18.0001V20.0001H21V18.0001H19ZM23 18.0001V20.0001H25V18.0001H23ZM7 22.0001V24.0001H9V22.0001H7ZM11 22.0001V24.0001H13V22.0001H11ZM19 22.0001V24.0001H21V22.0001H19ZM23 22.0001V24.0001H25V22.0001H23Z" fill="black"/>
</g>
</svg>
