<svg width="28" height="28" viewBox="0 0 28 28" fill="none" xmlns="http://www.w3.org/2000/svg">
<g id="fluent:call-20-regular">
<path id="Vector" d="M9.782 2.8923L8.7782 3.1947C7.88441 3.46424 7.08621 3.98349 6.47756 4.69135C5.86892 5.39921 5.47514 6.26621 5.3426 7.1903C4.9268 10.0855 5.8564 13.4707 8.0978 17.3529C10.3336 21.2253 12.7948 23.7201 15.5038 24.8121C16.3742 25.1629 17.3271 25.2564 18.2491 25.0814C19.1711 24.9064 20.0234 24.4704 20.7048 23.8251L21.4636 23.1055C21.9563 22.6392 22.263 22.0098 22.3266 21.3344C22.3902 20.659 22.2064 19.9834 21.8094 19.4333L19.911 16.8013C19.6543 16.446 19.2929 16.1799 18.8774 16.0403C18.4619 15.9007 18.0131 15.8946 17.594 16.0229L14.7226 16.9007L14.6484 16.9147C14.332 16.9609 13.6012 16.2763 12.6912 14.6999C11.7392 13.0507 11.5432 12.0861 11.805 11.8369L13.2652 10.4747C13.7992 9.97694 14.1639 9.32452 14.3083 8.60894C14.4527 7.89337 14.3694 7.15055 14.0702 6.4847L13.1434 4.4253C12.8647 3.80558 12.3702 3.30835 11.752 3.0263C11.1338 2.74424 10.4327 2.69662 9.782 2.8923ZM11.868 4.9993L12.792 7.0587C12.9719 7.45802 13.0223 7.90369 12.9359 8.33309C12.8495 8.76248 12.6308 9.15402 12.3104 9.4527L10.846 10.8163C9.9094 11.7039 10.2202 13.2187 11.4802 15.3999C12.6646 17.4523 13.7454 18.4659 14.9074 18.2895L15.081 18.2531L18.0042 17.3613C18.1439 17.3184 18.2936 17.3203 18.4322 17.3667C18.5708 17.4132 18.6914 17.5018 18.777 17.6203L20.6754 20.2523C20.8742 20.5273 20.9663 20.8652 20.9346 21.2031C20.903 21.5409 20.7496 21.8558 20.5032 22.0891L19.743 22.8087C19.2563 23.2693 18.6476 23.5806 17.9891 23.7054C17.3307 23.8302 16.6503 23.7634 16.0288 23.5129C13.6516 22.5553 11.4046 20.2775 9.3116 16.6529C7.213 13.0199 6.3632 9.9301 6.7286 7.3891C6.82318 6.7289 7.10443 6.10947 7.53922 5.60374C7.97402 5.09801 8.54425 4.72704 9.1828 4.5345L10.1866 4.2321C10.512 4.13431 10.8619 4.15822 11.171 4.29938C11.4802 4.44054 11.7274 4.68931 11.8666 4.9993H11.868Z" fill="black"/>
</g>
</svg>
