<svg width="24" height="25" viewBox="0 0 24 25" fill="none" xmlns="http://www.w3.org/2000/svg">
<g id="mingcute:right-line" clip-path="url(#clip0_237_116)">
<g id="Group">
<path id="Vector" fill-rule="evenodd" clip-rule="evenodd" d="M15.707 11.7931C15.8945 11.9806 15.9998 12.2349 15.9998 12.5001C15.9998 12.7652 15.8945 13.0195 15.707 13.2071L10.05 18.8641C9.95776 18.9596 9.84742 19.0358 9.72541 19.0882C9.60341 19.1406 9.47219 19.1682 9.33941 19.1693C9.20663 19.1705 9.07495 19.1452 8.95205 19.0949C8.82916 19.0446 8.7175 18.9703 8.62361 18.8765C8.52972 18.7826 8.45547 18.6709 8.40519 18.548C8.3549 18.4251 8.3296 18.2934 8.33076 18.1607C8.33191 18.0279 8.3595 17.8967 8.41191 17.7747C8.46431 17.6526 8.5405 17.5423 8.63601 17.4501L13.586 12.5001L8.63601 7.55006C8.45385 7.36146 8.35305 7.10885 8.35533 6.84666C8.35761 6.58446 8.46278 6.33365 8.64819 6.14824C8.8336 5.96283 9.08441 5.85766 9.34661 5.85538C9.6088 5.85311 9.86141 5.9539 10.05 6.13606L15.707 11.7931Z" fill="black"/>
</g>
</g>
<defs>
<clipPath id="clip0_237_116">
<rect width="24" height="24" fill="white" transform="translate(0 0.5)"/>
</clipPath>
</defs>
</svg>
