<svg width="28" height="28" viewBox="0 0 28 28" fill="none" xmlns="http://www.w3.org/2000/svg">
<g id="radix-icons:dashboard">
<path id="Vector" fill-rule="evenodd" clip-rule="evenodd" d="M5.2267 1.86621H5.13337C4.7059 1.86621 4.33817 1.86621 4.01337 1.94274C3.51055 2.06289 3.05082 2.3199 2.6851 2.68528C2.31939 3.05067 2.06197 3.51017 1.94137 4.01288C1.8667 4.33768 1.8667 4.70354 1.8667 5.13288V9.79954C1.8667 10.227 1.8667 10.5947 1.94323 10.9195C2.06338 11.4224 2.32039 11.8821 2.68577 12.2478C3.05116 12.6135 3.51066 12.8709 4.01337 12.9915C4.33817 13.0662 4.70403 13.0662 5.13337 13.0662H9.80003C10.2275 13.0662 10.5952 13.0662 10.92 12.9897C11.4228 12.8695 11.8826 12.6125 12.2483 12.2471C12.614 11.8818 12.8714 11.4222 12.992 10.9195C13.0667 10.5947 13.0667 10.2289 13.0667 9.79954V5.13288C13.0667 4.70541 13.0667 4.33768 12.9902 4.01288C12.87 3.51007 12.613 3.05033 12.2476 2.68461C11.8822 2.3189 11.4227 2.06148 10.92 1.94088C10.5952 1.86621 10.2294 1.86621 9.80003 1.86621H5.2267ZM4.4483 3.75901C4.52857 3.74034 4.65363 3.73288 5.2267 3.73288H9.7067C10.2816 3.73288 10.4048 3.73848 10.4851 3.75901C10.6528 3.79911 10.8061 3.88487 10.928 4.00678C11.0499 4.1287 11.1357 4.282 11.1758 4.44968C11.1944 4.52808 11.2 4.65128 11.2 5.22621V9.70621C11.2 10.2811 11.1944 10.4043 11.1739 10.4846C11.1338 10.6523 11.048 10.8056 10.9261 10.9275C10.8042 11.0494 10.6509 11.1352 10.4832 11.1753C10.4067 11.1921 10.2835 11.1995 9.7067 11.1995H5.2267C4.65177 11.1995 4.52857 11.1939 4.4483 11.1734C4.28062 11.1333 4.12732 11.0476 4.00541 10.9256C3.88349 10.8037 3.79773 10.6504 3.75763 10.4827C3.74083 10.4062 3.73337 10.283 3.73337 9.70621V5.22621C3.73337 4.65128 3.73897 4.52808 3.7595 4.44781C3.7996 4.28013 3.88536 4.12683 4.00727 4.00492C4.12918 3.883 4.28248 3.79724 4.45017 3.75714L4.4483 3.75901ZM18.2934 1.86621H18.2C17.7726 1.86621 17.4048 1.86621 17.08 1.94274C16.5772 2.06289 16.1175 2.3199 15.7518 2.68528C15.3861 3.05067 15.1286 3.51017 15.008 4.01288C14.9334 4.33768 14.9334 4.70354 14.9334 5.13288V9.79954C14.9334 10.227 14.9334 10.5947 15.0099 10.9195C15.13 11.4224 15.3871 11.8821 15.7524 12.2478C16.1178 12.6135 16.5773 12.8709 17.08 12.9915C17.4048 13.0662 17.7707 13.0662 18.2 13.0662H22.8667C23.2942 13.0662 23.6619 13.0662 23.9867 12.9897C24.4895 12.8695 24.9492 12.6125 25.315 12.2471C25.6807 11.8818 25.9381 11.4222 26.0587 10.9195C26.1334 10.5947 26.1334 10.2289 26.1334 9.79954V5.13288C26.1334 4.70541 26.1334 4.33768 26.0568 4.01288C25.9367 3.51007 25.6797 3.05033 25.3143 2.68461C24.9489 2.3189 24.4894 2.06148 23.9867 1.94088C23.6619 1.86621 23.296 1.86621 22.8667 1.86621H18.2934ZM17.515 3.75901C17.5952 3.74034 17.7203 3.73288 18.2934 3.73288H22.7734C23.3483 3.73288 23.4715 3.73848 23.5518 3.75901C23.7194 3.79911 23.8727 3.88487 23.9947 4.00678C24.1166 4.1287 24.2023 4.282 24.2424 4.44968C24.2611 4.52808 24.2667 4.65128 24.2667 5.22621V9.70621C24.2667 10.2811 24.2592 10.4043 24.2406 10.4846C24.2005 10.6523 24.1147 10.8056 23.9928 10.9275C23.8709 11.0494 23.7176 11.1352 23.5499 11.1753C23.4715 11.1939 23.3483 11.1995 22.7734 11.1995H18.2934C17.7184 11.1995 17.5952 11.1939 17.515 11.1734C17.3473 11.1333 17.194 11.0476 17.0721 10.9256C16.9502 10.8037 16.8644 10.6504 16.8243 10.4827C16.8075 10.4062 16.8 10.283 16.8 9.70621V5.22621C16.8 4.65128 16.8056 4.52808 16.8262 4.44781C16.8663 4.28013 16.952 4.12683 17.0739 4.00492C17.1959 3.883 17.3491 3.79724 17.5168 3.75714L17.515 3.75901ZM5.13337 14.9329H9.80003C10.2275 14.9329 10.5952 14.9329 10.92 15.0094C11.4228 15.1296 11.8826 15.3866 12.2483 15.752C12.614 16.1173 12.8714 16.5768 12.992 17.0795C13.0667 17.4043 13.0667 17.7702 13.0667 18.1995V22.8662C13.0667 23.2937 13.0667 23.6614 12.9902 23.9862C12.87 24.489 12.613 24.9488 12.2476 25.3145C11.8822 25.6802 11.4227 25.9376 10.92 26.0582C10.5952 26.1329 10.2294 26.1329 9.80003 26.1329H5.13337C4.7059 26.1329 4.33817 26.1329 4.01337 26.0563C3.51055 25.9362 3.05082 25.6792 2.6851 25.3138C2.31939 24.9484 2.06197 24.4889 1.94137 23.9862C1.8667 23.6614 1.8667 23.2955 1.8667 22.8662V18.1995C1.8667 17.7721 1.8667 17.4043 1.94323 17.0795C2.06338 16.5767 2.32039 16.117 2.68577 15.7513C3.05116 15.3856 3.51066 15.1281 4.01337 15.0075C4.33817 14.9329 4.70403 14.9329 5.13337 14.9329ZM5.2267 16.7995C4.65177 16.7995 4.52857 16.8051 4.4483 16.8257C4.28062 16.8658 4.12732 16.9515 4.00541 17.0735C3.88349 17.1954 3.79773 17.3487 3.75763 17.5163C3.74083 17.5929 3.73337 17.7161 3.73337 18.2929V22.7729C3.73337 23.3478 3.73897 23.471 3.7595 23.5513C3.7996 23.719 3.88536 23.8723 4.00727 23.9942C4.12918 24.1161 4.28248 24.2018 4.45017 24.2419C4.52857 24.2606 4.65177 24.2662 5.2267 24.2662H9.7067C10.2816 24.2662 10.4048 24.2587 10.4851 24.2401C10.6528 24.2 10.8061 24.1142 10.928 23.9923C11.0499 23.8704 11.1357 23.7171 11.1758 23.5494C11.1944 23.471 11.2 23.3478 11.2 22.7729V18.2929C11.2 17.7179 11.1944 17.5947 11.1739 17.5145C11.1338 17.3468 11.048 17.1935 10.9261 17.0716C10.8042 16.9497 10.6509 16.8639 10.4832 16.8238C10.4067 16.807 10.2835 16.7995 9.7067 16.7995H5.2267ZM18.2934 14.9329H18.2C17.7726 14.9329 17.4048 14.9329 17.08 15.0094C16.5772 15.1296 16.1175 15.3866 15.7518 15.752C15.3861 16.1173 15.1286 16.5768 15.008 17.0795C14.9334 17.4043 14.9334 17.7702 14.9334 18.1995V22.8662C14.9334 23.2937 14.9334 23.6614 15.0099 23.9862C15.13 24.489 15.3871 24.9488 15.7524 25.3145C16.1178 25.6802 16.5773 25.9376 17.08 26.0582C17.4048 26.1347 17.7726 26.1347 18.2 26.1347H22.8667C23.2942 26.1347 23.6619 26.1347 23.9867 26.0582C24.4892 25.9378 24.9485 25.6806 25.3139 25.3153C25.6792 24.9499 25.9364 24.4905 26.0568 23.9881C26.1334 23.6633 26.1334 23.2955 26.1334 22.8681V18.1995C26.1334 17.7721 26.1334 17.4043 26.0568 17.0795C25.9367 16.5767 25.6797 16.117 25.3143 15.7513C24.9489 15.3856 24.4894 15.1281 23.9867 15.0075C23.6619 14.9329 23.296 14.9329 22.8667 14.9329H18.2934ZM17.515 16.8257C17.5952 16.807 17.7203 16.7995 18.2934 16.7995H22.7734C23.3483 16.7995 23.4715 16.8051 23.5518 16.8257C23.7194 16.8658 23.8727 16.9515 23.9947 17.0735C24.1166 17.1954 24.2023 17.3487 24.2424 17.5163C24.2611 17.5947 24.2667 17.7179 24.2667 18.2929V22.7729C24.2667 23.3478 24.2592 23.471 24.2406 23.5513C24.2005 23.719 24.1147 23.8723 23.9928 23.9942C23.8709 24.1161 23.7176 24.2018 23.5499 24.2419C23.4715 24.2606 23.3483 24.2662 22.7734 24.2662H18.2934C17.7184 24.2662 17.5952 24.2587 17.515 24.2401C17.3473 24.2 17.194 24.1142 17.0721 23.9923C16.9502 23.8704 16.8644 23.7171 16.8243 23.5494C16.8075 23.4729 16.8 23.3497 16.8 22.7729V18.2929C16.8 17.7179 16.8056 17.5947 16.8262 17.5145C16.8663 17.3468 16.952 17.1935 17.0739 17.0716C17.1959 16.9497 17.3491 16.8639 17.5168 16.8238L17.515 16.8257Z" fill="white"/>
</g>
</svg>
