<svg width="163" height="104" viewBox="0 0 163 104" fill="none" xmlns="http://www.w3.org/2000/svg">
<g id="dhl-3" clip-path="url(#clip0_188_4112)">
<g id="Group">
<path id="Vector" d="M28.6645 40.4731L23.457 47.5492H51.8388C53.2739 47.5492 53.256 48.0897 52.5546 49.0453C51.8423 50.0117 50.6505 51.6832 49.924 52.6675C49.5553 53.165 48.8896 54.0706 51.0943 54.0706H62.7011L66.1406 49.3961C68.2737 46.5005 66.3267 40.4766 58.6998 40.4766L28.6645 40.4731Z" fill="#969696"/>
<path id="Vector_2" d="M21.3489 63.5269L31.8105 49.3102H44.7916C46.2268 49.3102 46.2089 49.8542 45.5074 50.8063L42.8589 54.4142C42.4903 54.9117 41.8246 55.8173 44.0293 55.8173H61.4162C59.9739 57.8002 55.2782 63.5269 46.8603 63.5269H21.3489ZM81.2548 55.8137L75.5821 63.5269H60.6181L66.2909 55.8137H81.2548ZM104.175 54.067H67.5793L77.5863 40.4731H92.5431L86.8095 48.2686H93.4844L99.2252 40.4731H114.182L104.175 54.067ZM102.89 55.8137L97.2173 63.5269H82.2605L87.9333 55.8137H102.89ZM0 58.856H22.0397L20.8371 60.4918H0V58.856ZM0 55.8137H24.2802L23.074 57.4494H0V55.8137ZM0 61.8984H19.8028L18.6038 63.5269H0V61.8984ZM163 60.4918H141.039L142.245 58.856H163V60.4918ZM163 63.5269H138.809L140.005 61.8984H163V63.5269ZM144.482 55.8137H163V57.453H143.28L144.482 55.8137ZM134.897 40.4731L124.89 54.067H109.039L119.053 40.4731H134.897ZM107.758 55.8137C107.758 55.8137 106.666 57.3098 106.133 58.0257C104.257 60.5669 105.914 63.5234 112.045 63.5234H136.068L141.741 55.8137H107.758Z" fill="#969696"/>
</g>
</g>
<defs>
<clipPath id="clip0_188_4112">
<rect width="163" height="104" fill="white"/>
</clipPath>
</defs>
</svg>
