<svg width="38" height="28" viewBox="0 0 38 28" fill="none" xmlns="http://www.w3.org/2000/svg">
<g id="Egypt (EG)" clip-path="url(#clip0_147_2245)">
<path id="Vector" d="M0 18.6667H38V28.0001H0V18.6667Z" fill="black"/>
<path id="Vector_2" d="M0 9.33325H38V18.6666H0V9.33325Z" fill="white"/>
<path id="Vector_3" d="M0 0H38V9.33333H0V0Z" fill="#CE1126"/>
<g id="Group">
<path id="Vector_4" d="M19.038 14.1119L22.2918 17.0799L22.059 11.6899C22.0258 10.8733 21.3038 11.0599 20.7765 11.3539C20.2493 11.6899 19.6365 11.6899 19 11.4706C18.3588 11.6899 17.7508 11.6899 17.2235 11.3539C16.701 11.0599 15.9743 10.8733 15.941 11.6899L15.7083 17.0799L19.038 14.1119Z" fill="white" stroke="#C09300" stroke-width="0.13" stroke-linejoin="round"/>
<path id="a" d="M16.3163 11.5034L16.0883 16.7441L15.7083 17.0801L15.941 11.6901C16.0532 11.6055 16.1805 11.5422 16.3163 11.5034ZM16.7723 11.8768L16.5823 16.2634L16.2023 16.6461L16.4303 11.5828C16.5063 11.6574 16.7295 11.8394 16.7723 11.8768ZM17.1855 12.2128L17.0383 15.8714L16.7295 16.1654L16.9195 11.9934C16.9955 12.0634 17.1475 12.1708 17.1855 12.2128ZM17.6368 12.3994L17.4895 15.5168L17.1903 15.7548L17.3375 12.2874C17.4135 12.3201 17.5608 12.3994 17.6368 12.3994ZM18.0548 12.3994L17.9455 14.9988L17.6368 15.2928L17.7555 12.4321C17.8268 12.4321 18.0215 12.4321 18.0548 12.3994Z" fill="#C09300"/>
<path id="Vector_5" d="M21.6837 11.5034L21.9117 16.7441L22.2917 17.0801L22.059 11.6901C21.9468 11.6055 21.8195 11.5422 21.6837 11.5034ZM21.2277 11.8768L21.4177 16.2634L21.7977 16.6461L21.5697 11.5828C21.4937 11.6574 21.2705 11.8394 21.2277 11.8768ZM20.8145 12.2128L20.9617 15.8714L21.2705 16.1654L21.0805 11.9934C21.0045 12.0634 20.8525 12.1708 20.8145 12.2128ZM20.3632 12.3994L20.5105 15.5168L20.8097 15.7548L20.6625 12.2874C20.5865 12.3201 20.4392 12.3994 20.3632 12.3994ZM19.9452 12.3994L20.0545 14.9988L20.3632 15.2928L20.2445 12.4321C20.1732 12.4321 19.9785 12.4321 19.9452 12.3994Z" fill="#C09300"/>
<path id="Vector_6" d="M19.152 14.7L19.608 16.744L19.456 16.8933L19.2992 16.7766L19.0427 14.9566L19.152 16.7766L19 16.9633L18.8527 16.7766L18.962 14.9566L18.7007 16.7766L18.544 16.8933L18.392 16.744L18.848 14.7046H19.152V14.7Z" fill="#C09300" stroke="#C09300" stroke-width="0.11"/>
<g id="b">
<path id="Vector_7" d="M17.9788 13.804L17.0715 16.9633L18.3208 17.15L18.848 14.7746L17.9788 13.804Z" fill="white" stroke="#C09300" stroke-width="0.12" stroke-linejoin="round"/>
<path id="Vector_8" d="M17.6795 14.8865L17.7888 15.1432L18.3778 14.5925" stroke="#C09300" stroke-width="0.13" stroke-linejoin="round"/>
<path id="Vector_9" d="M18.088 14.2334L18.2115 15.3674L18.5868 14.8821M18.4348 15.0687L18.639 15.7687M18.7198 15.5121L18.3065 16.1281M18.4348 16.7441L18.3018 16.1281M18.3018 16.1281L18.1878 15.5027L17.9075 15.8714L17.7888 15.4467L17.3993 15.8387L17.594 16.5481L17.8695 16.1094L18.0168 16.5574L18.3018 16.1281Z" stroke="#C09300" stroke-width="0.13" stroke-linejoin="round"/>
<path id="Vector_10" d="M17.3375 16.8932L17.5892 16.5432L17.7507 17.0799L17.9787 16.7065L18.126 17.1545" stroke="#C09300" stroke-width="0.13" stroke-linejoin="round"/>
</g>
<g id="Group_2">
<path id="Vector_11" d="M20.0212 13.804L20.9285 16.9633L19.6792 17.15L19.152 14.7746L20.0212 13.804Z" fill="white" stroke="#C09300" stroke-width="0.12" stroke-linejoin="round"/>
<path id="Vector_12" d="M20.3205 14.8865L20.2112 15.1432L19.6222 14.5925" stroke="#C09300" stroke-width="0.13" stroke-linejoin="round"/>
<path id="Vector_13" d="M19.912 14.2334L19.7885 15.3674L19.4132 14.8821M19.5652 15.0687L19.361 15.7687M19.2802 15.5121L19.6935 16.1281M19.5652 16.7441L19.6982 16.1281M19.6982 16.1281L19.8122 15.5027L20.0925 15.8714L20.2112 15.4467L20.6007 15.8387L20.406 16.5481L20.1305 16.1094L19.9832 16.5574L19.6982 16.1281Z" stroke="#C09300" stroke-width="0.13" stroke-linejoin="round"/>
<path id="Vector_14" d="M20.6625 16.8932L20.4108 16.5432L20.2493 17.0799L20.0213 16.7065L19.874 17.1545" stroke="#C09300" stroke-width="0.13" stroke-linejoin="round"/>
</g>
<g id="Group_3">
<path id="Vector_15" d="M19 18.3774C19.95 18.3774 20.8525 18.3027 21.3845 18.158C21.6078 18.116 21.6078 18.004 21.6078 17.8547C21.8358 17.78 21.7218 17.5187 21.8785 17.5187C21.717 17.5654 21.6885 17.262 21.4985 17.2994C21.4985 17.038 21.2278 17.0054 21.0045 17.08C20.5533 17.2247 19.7553 17.262 19 17.262C18.24 17.2247 17.4515 17.2247 16.9955 17.0754C16.7723 17.0054 16.5063 17.038 16.5063 17.2994C16.3163 17.262 16.283 17.5607 16.1263 17.5187C16.283 17.5187 16.1643 17.7847 16.3923 17.8547C16.3923 18.004 16.3923 18.116 16.6203 18.158C17.1428 18.3027 18.0548 18.3774 19 18.3774Z" fill="white" stroke="#C09300" stroke-width="0.24" stroke-linecap="round" stroke-linejoin="round"/>
<path id="Vector_16" d="M17.7127 16.9633C18.0167 17.0053 18.3587 17.038 18.6247 17.0053C18.7767 17.0053 18.886 17.262 18.582 17.2993C18.3207 17.332 17.9027 17.2993 17.6795 17.262C17.3857 17.2115 17.0941 17.1492 16.8055 17.0753C16.5395 16.9633 16.7295 16.7487 16.8815 16.7767C17.1527 16.862 17.4308 16.9245 17.7127 16.9633ZM20.2872 16.9633C19.9832 17.0053 19.6412 17.038 19.3847 17.0053C19.2232 17.0053 19.114 17.262 19.418 17.2993C19.684 17.332 20.0972 17.2993 20.3205 17.262C20.5105 17.2247 20.9285 17.1547 21.1945 17.0753C21.4605 16.9633 21.2705 16.7487 21.1185 16.7767C20.8473 16.862 20.5692 16.9245 20.2872 16.9633Z" fill="white" stroke="#C09300" stroke-width="0.13" stroke-linecap="round" stroke-linejoin="round"/>
<path id="Vector_17" d="M16.7675 16.8187C16.5395 16.7767 16.435 17.0381 16.5063 17.1874C16.5395 17.1127 16.6963 17.1127 16.7295 17.0381C16.7723 16.9261 16.6963 16.9261 16.7723 16.8187H16.7675ZM17.6795 17.5047C17.6795 17.3554 17.8268 17.3741 17.8268 17.2247C17.8268 17.1547 17.7888 17.0381 17.7128 17.0381C17.6732 17.0403 17.6358 17.0567 17.6078 17.0843C17.5798 17.1118 17.563 17.1485 17.5608 17.1874C17.5275 17.3321 17.6795 17.3554 17.6795 17.5047ZM18.7578 17.0801C18.981 17.0801 18.9573 17.3741 18.8528 17.5234C18.8528 17.4161 18.6628 17.3741 18.6628 17.2994C18.6628 17.1874 18.8338 17.1874 18.7578 17.0801ZM21.2278 16.8187C21.4605 16.7767 21.5698 17.0381 21.4938 17.1874C21.4605 17.1127 21.3038 17.1127 21.2705 17.0381C21.2278 16.9261 21.3038 16.9261 21.2278 16.8187ZM20.33 17.5001C20.33 17.3507 20.178 17.3694 20.178 17.2201C20.178 17.1501 20.216 17.0334 20.292 17.0334C20.3316 17.0356 20.3689 17.0521 20.397 17.0796C20.425 17.1071 20.4417 17.1438 20.444 17.1827C20.4773 17.3274 20.3253 17.3507 20.3253 17.5001H20.33ZM19.2375 17.0801C19.0143 17.0801 19.038 17.3741 19.1425 17.5234C19.1425 17.4161 19.3325 17.3741 19.3325 17.2994C19.3325 17.1874 19.1615 17.1874 19.2375 17.0801Z" fill="white" stroke="#C09300" stroke-width="0.13" stroke-linecap="round" stroke-linejoin="round"/>
<path id="Vector_18" d="M16.8483 16.8933C16.9243 16.8933 17.0383 16.926 17.0715 16.968L16.8483 16.8933ZM17.2235 17.0053C17.2615 17.0053 17.4135 17.038 17.4848 17.08L17.2235 17.0053ZM18.582 17.1546C18.5108 17.1546 18.3588 17.1546 18.3208 17.1873L18.582 17.15V17.1546ZM18.1688 17.1546C18.126 17.1126 17.9788 17.1126 17.9028 17.1546H18.1688ZM21.1518 16.8933C21.0712 16.8943 20.993 16.9205 20.9285 16.968L21.1518 16.8933ZM20.7813 17.0053C20.7338 17.0053 20.5913 17.038 20.5153 17.08L20.7813 17.0053ZM19.418 17.1546C19.4893 17.1546 19.6413 17.1546 19.684 17.1873L19.418 17.15V17.1546ZM19.8313 17.1546C19.874 17.1126 20.0213 17.1126 20.0973 17.1546H19.8313Z" fill="white" stroke="#C09300" stroke-width="0.09" stroke-linecap="round" stroke-linejoin="round"/>
<g id="Group_4">
<path id="Vector_19" d="M16.7817 17.4814C16.758 17.4767 16.7438 17.4534 16.7533 17.4347C16.758 17.402 16.7818 17.388 16.8008 17.3974C16.8198 17.3974 16.8435 17.4254 16.8435 17.4347L16.8245 17.4674L16.815 17.472C16.815 17.4814 16.796 17.4814 16.7817 17.4814ZM19.3942 17.6634C19.3847 17.6634 19.3658 17.64 19.3658 17.6307C19.3658 17.612 19.3943 17.584 19.4133 17.584L19.4512 17.6027C19.4655 17.6167 19.4655 17.6447 19.4465 17.6587C19.437 17.668 19.4085 17.668 19.3942 17.6587V17.6634ZM19.4085 17.78C19.3895 17.7707 19.3847 17.7614 19.38 17.7427C19.38 17.7194 19.38 17.7147 19.4037 17.7007L19.4227 17.6914L19.4417 17.7007C19.4607 17.71 19.475 17.7194 19.475 17.738C19.475 17.752 19.4607 17.766 19.4417 17.7754C19.4275 17.7847 19.4228 17.7847 19.4085 17.7754V17.78Z" fill="#C09300"/>
<path id="Vector_20" d="M16.9955 17.2666C16.9765 17.2666 16.9528 17.2853 16.9385 17.2946C16.91 17.2993 16.872 17.3179 16.8435 17.2946C16.815 17.2899 16.777 17.2946 16.7723 17.3319C16.777 17.3646 16.8198 17.3786 16.8483 17.3599C16.8673 17.3366 16.9195 17.3179 16.929 17.3599C16.9053 17.3973 16.91 17.4393 16.891 17.4719C16.891 17.4953 16.8768 17.5139 16.8673 17.5326C16.8435 17.5326 16.8198 17.5326 16.8008 17.5466C16.786 17.5466 16.7715 17.55 16.7583 17.5565C16.7451 17.5629 16.7336 17.5723 16.7248 17.5839C16.7058 17.6119 16.6868 17.6399 16.682 17.6773C16.6868 17.7053 16.7295 17.7146 16.758 17.7193L16.853 17.7473L17.005 17.7893C17.081 17.8126 17.157 17.8219 17.233 17.8406L17.2568 17.8453C17.29 17.8546 17.3043 17.8219 17.3043 17.7986L17.3518 17.6306C17.3613 17.6073 17.3755 17.5606 17.3328 17.5699C17.309 17.5839 17.2853 17.6073 17.2568 17.6073C17.214 17.6073 17.2378 17.6539 17.2568 17.6679C17.2568 17.6959 17.2473 17.7286 17.233 17.7519C17.2045 17.7659 17.176 17.7519 17.1475 17.7426C17.1238 17.7426 17.0668 17.7286 17.0905 17.6959L17.1143 17.6119C17.1285 17.5839 17.1285 17.5513 17.138 17.5186C17.119 17.4859 17.0905 17.5326 17.0668 17.5373C17.0478 17.5466 16.9908 17.5513 17.0193 17.5839C17.0478 17.6026 17.0288 17.6353 17.0193 17.6633C17.0193 17.6959 16.9813 17.7099 16.9528 17.6959C16.9243 17.6959 16.8815 17.6726 16.9053 17.6446L16.929 17.5606L16.9623 17.4673C16.9623 17.4346 16.9765 17.4113 16.9908 17.3833C16.9908 17.3506 17.0145 17.3226 17.0145 17.2899C17.0145 17.2759 17.005 17.2713 16.9955 17.2713V17.2666ZM16.8198 17.6073C16.8219 17.606 16.8244 17.6054 16.8269 17.6054C16.8294 17.6054 16.8318 17.606 16.834 17.6073C16.8435 17.6166 16.8435 17.6259 16.834 17.6353L16.8198 17.6446C16.796 17.6446 16.7913 17.6399 16.7913 17.6306C16.7913 17.6259 16.7913 17.6213 16.8055 17.6166C16.8113 17.6125 16.8177 17.6094 16.8245 17.6073H16.8198ZM16.7723 17.8406C16.7485 17.8219 16.7533 17.8079 16.7865 17.7799C16.8055 17.7706 16.8103 17.7706 16.8293 17.7846C16.8578 17.8079 16.8578 17.8219 16.8293 17.8453C16.8198 17.8546 16.815 17.8546 16.8055 17.8546C16.7913 17.8546 16.7865 17.8546 16.7723 17.8453V17.8406ZM16.9148 17.8873C16.9041 17.884 16.8952 17.8769 16.8899 17.8673C16.8846 17.8577 16.8833 17.8465 16.8863 17.8359C16.8958 17.8173 16.9005 17.8126 16.929 17.8126C16.9623 17.8126 16.967 17.8173 16.9718 17.8453C16.9718 17.8639 16.9718 17.8686 16.9575 17.8779C16.9522 17.8821 16.9461 17.885 16.9395 17.8866C16.933 17.8882 16.9262 17.8885 16.9195 17.8873H16.9148ZM21.1518 17.8873C21.1423 17.8826 21.1375 17.8779 21.1375 17.8639C21.1375 17.8453 21.147 17.8313 21.1755 17.8219C21.204 17.8079 21.223 17.8079 21.2325 17.8313C21.2468 17.8593 21.2468 17.8686 21.2278 17.8873C21.2183 17.9013 21.2135 17.9013 21.1898 17.9013C21.166 17.9013 21.1613 17.9013 21.1518 17.8919V17.8873ZM17.1143 17.9433C17.0953 17.9433 17.0858 17.9246 17.0858 17.9059C17.0858 17.8919 17.0858 17.8873 17.0953 17.8779L17.1238 17.8686L17.1523 17.8733C17.176 17.8919 17.1808 17.9106 17.1665 17.9293C17.1523 17.9479 17.138 17.9479 17.1095 17.9433H17.1143ZM18.1498 17.9899L18.1403 17.9759C18.1403 17.9479 18.1403 17.9246 18.1498 17.8966C18.1545 17.8733 18.1498 17.8499 18.1593 17.8266L18.1783 17.6959C18.1783 17.6726 18.1783 17.6493 18.1878 17.6306C18.1925 17.5933 18.1878 17.5606 18.1973 17.5279C18.1973 17.5139 18.2115 17.4813 18.2258 17.4999C18.2448 17.5279 18.2685 17.5466 18.2923 17.5699C18.3113 17.5839 18.2923 17.6026 18.278 17.6073C18.259 17.6119 18.2543 17.6353 18.2543 17.6539L18.2448 17.7099C18.2448 17.7426 18.2448 17.7706 18.2353 17.8033L18.2305 17.8873L18.221 17.9433C18.221 17.9619 18.221 17.9853 18.202 17.9946C18.1878 18.0039 18.164 18.0039 18.1545 17.9899H18.1498ZM19.5605 17.5326L19.4988 17.5886C19.4703 17.6119 19.5225 17.6213 19.5273 17.6399C19.5368 17.6679 19.5368 17.6959 19.5368 17.7239C19.5463 17.7519 19.551 17.7753 19.5463 17.8033C19.5463 17.8359 19.5083 17.8266 19.4893 17.8453C19.4655 17.8546 19.456 17.8779 19.4418 17.8919C19.4305 17.9153 19.424 17.9407 19.4228 17.9666C19.4228 17.9899 19.4085 18.0133 19.4228 18.0319L19.4275 18.0413H19.4513L19.5225 18.0366C19.5795 18.0273 19.6413 18.0273 19.6983 18.0226L19.8028 18.0133C19.8313 18.0179 19.8455 17.9899 19.8455 17.9666C19.8265 17.9339 19.8408 17.9013 19.8265 17.8733C19.817 17.8359 19.8218 17.8033 19.817 17.7706C19.817 17.7426 19.7838 17.7333 19.7695 17.7519C19.7505 17.7706 19.722 17.7753 19.7125 17.7939C19.6983 17.8219 19.741 17.8219 19.7505 17.8406L19.7553 17.9106C19.76 17.9386 19.7315 17.9386 19.7078 17.9433C19.684 17.9526 19.6508 17.9573 19.6365 17.9293C19.627 17.9059 19.627 17.8826 19.627 17.8593C19.627 17.8126 19.6128 17.7753 19.6128 17.7333C19.6128 17.6866 19.5985 17.6353 19.5985 17.5839C19.5985 17.5606 19.5938 17.5279 19.5605 17.5326ZM19.532 17.9153H19.5463V17.9526L19.532 17.9573C19.5258 17.9592 19.5194 17.9608 19.513 17.9619C19.5098 17.9621 19.5067 17.9621 19.5035 17.9619C19.494 17.9526 19.494 17.9386 19.5083 17.9246L19.532 17.9153ZM18.107 17.4859C18.0928 17.4859 18.069 17.5186 18.05 17.5139C18.0073 17.5186 18.012 17.5606 18.0453 17.5746V17.6119C18.05 17.6493 18.0263 17.6819 18.031 17.7193C18.031 17.7566 18.0168 17.7986 18.0168 17.8406C18.0025 17.8826 18.0025 17.9246 17.9978 17.9666C17.993 18.0039 17.9645 17.9899 17.9408 17.9806V17.9339C17.9455 17.8919 17.917 17.8826 17.8838 17.8779C17.8505 17.8779 17.8363 17.8546 17.8458 17.8266C17.86 17.8079 17.8933 17.8126 17.917 17.8126C17.9645 17.8219 17.9598 17.7613 17.936 17.7379C17.917 17.7099 17.879 17.6913 17.8695 17.6633C17.8695 17.6259 17.8458 17.5839 17.8125 17.5653C17.7603 17.5606 17.7175 17.6026 17.7033 17.6493C17.6795 17.6493 17.6558 17.6586 17.6368 17.6679C17.6035 17.6773 17.556 17.7333 17.6035 17.7566C17.6273 17.7613 17.708 17.7799 17.67 17.8126C17.651 17.8499 17.613 17.8499 17.5798 17.8406C17.5465 17.8406 17.5085 17.8219 17.5085 17.7846C17.5038 17.7473 17.5038 17.7099 17.4895 17.6773C17.48 17.6399 17.4373 17.6493 17.4325 17.6866C17.3993 17.7099 17.404 17.7519 17.4278 17.7799C17.442 17.8126 17.4278 17.8546 17.4135 17.8826C17.404 17.9293 17.3565 17.9293 17.3233 17.9386C17.309 17.9479 17.2473 17.9386 17.271 17.9713C17.3066 17.9874 17.3464 17.9923 17.385 17.9853C17.423 17.9853 17.4563 17.9526 17.48 17.9199C17.5038 17.8966 17.5465 17.9106 17.5845 17.9106C17.6178 17.9106 17.6558 17.9339 17.6938 17.9153C17.7033 17.8919 17.7508 17.8453 17.765 17.8919C17.765 17.9339 17.7983 17.9526 17.8363 17.9479C17.879 17.9479 17.86 17.9759 17.86 18.0039C17.86 18.0459 17.8933 18.0693 17.9313 18.0879H17.9693C18.0025 18.0739 18.0405 18.0599 18.0548 18.0226C18.069 17.9899 18.069 17.9526 18.0785 17.9199C18.088 17.8686 18.0975 17.8126 18.0975 17.7613C18.1118 17.7146 18.107 17.6633 18.1165 17.6119L18.1308 17.5046C18.1308 17.4813 18.1213 17.4813 18.107 17.4859ZM17.7888 17.6773C17.7935 17.6773 17.7983 17.6866 17.7983 17.7006C17.7983 17.7193 17.8078 17.7333 17.822 17.7379V17.7519L17.784 17.7613C17.7603 17.7613 17.7413 17.7519 17.727 17.7379L17.7175 17.7286L17.7318 17.7193L17.7555 17.6959C17.7698 17.6819 17.7793 17.6773 17.7888 17.6773ZM20.9238 17.3086C20.8964 17.3105 20.8694 17.3152 20.843 17.3226C20.7955 17.3226 20.7718 17.3693 20.8193 17.3973C20.8478 17.4673 20.8905 17.3786 20.938 17.3879C21.0045 17.3973 21.0093 17.4719 21.0235 17.5279C21.0235 17.5793 21.0425 17.6306 21.0568 17.6819C21.1043 17.7333 21.0235 17.7659 20.9903 17.7286C20.9618 17.6959 20.8953 17.6586 20.862 17.7006C20.8193 17.7193 20.8145 17.7753 20.7813 17.7939C20.7243 17.8079 20.7195 17.7379 20.6863 17.7099C20.6578 17.6679 20.6055 17.6633 20.5628 17.6539C20.5438 17.6119 20.5533 17.5419 20.5153 17.5139C20.4773 17.5279 20.4108 17.5933 20.4678 17.6259C20.5153 17.6726 20.444 17.6913 20.4203 17.7193C20.3823 17.7613 20.3728 17.8126 20.3728 17.8593C20.311 17.8919 20.3015 17.8219 20.292 17.7799C20.292 17.7286 20.2445 17.7426 20.2113 17.7613C20.1638 17.7799 20.1448 17.8219 20.1163 17.8546V17.9479C20.1258 17.9899 20.1733 17.9713 20.2018 17.9666C20.2493 17.9479 20.2683 17.9993 20.2303 18.0273C20.2018 18.0553 20.1258 18.0413 20.1353 18.0926H20.2113C20.2588 18.0786 20.3158 18.0413 20.3205 17.9853C20.33 17.9386 20.4013 17.9433 20.4393 17.9339C20.4868 17.9199 20.5485 17.9153 20.5628 17.9806C20.596 18.0133 20.6673 18.0506 20.7053 18.0039C20.7233 17.9927 20.7378 17.9766 20.7471 17.9576C20.7563 17.9387 20.7599 17.9175 20.7575 17.8966C20.7528 17.8593 20.8193 17.8593 20.8383 17.8826C20.862 17.9199 20.938 17.9106 20.976 17.8826C21.014 17.8593 21.0235 17.8079 21.0805 17.8079L21.337 17.7379C21.4035 17.7239 21.3275 17.6819 21.3085 17.6539C21.261 17.6306 21.2135 17.7333 21.1565 17.6819C21.109 17.6493 21.1138 17.5886 21.0995 17.5373C21.0853 17.4719 21.09 17.3973 21.0425 17.3506C21.014 17.3179 20.9665 17.3086 20.9238 17.3086ZM20.6008 17.7519C20.6055 17.7519 20.615 17.7519 20.6245 17.7613C20.6435 17.7706 20.6578 17.7893 20.6578 17.8079C20.6578 17.8173 20.6578 17.8173 20.6435 17.8219L20.6198 17.8313C20.6103 17.8313 20.5865 17.8173 20.5865 17.8079V17.7893C20.577 17.7706 20.577 17.7706 20.5865 17.7613L20.6008 17.7519ZM20.9095 17.7706C20.9285 17.7706 20.938 17.7706 20.9475 17.7846C20.9523 17.8033 20.9475 17.8126 20.9285 17.8219L20.9048 17.8313L20.8858 17.8173C20.8763 17.8126 20.8715 17.8079 20.8715 17.7986C20.8715 17.7846 20.8905 17.7706 20.9095 17.7659V17.7706ZM20.482 17.7706C20.4915 17.7706 20.4963 17.7706 20.501 17.7799C20.5105 17.7893 20.5153 17.7939 20.5153 17.8079V17.8359C20.5153 17.8499 20.5153 17.8453 20.4868 17.8453C20.4583 17.8453 20.4535 17.8453 20.4535 17.8173C20.4535 17.7986 20.4535 17.7939 20.4678 17.7846C20.4725 17.7753 20.482 17.7753 20.4868 17.7753L20.482 17.7706ZM20.2255 17.8406C20.23 17.8419 20.2341 17.8443 20.2374 17.8476C20.2407 17.8509 20.2431 17.8549 20.2445 17.8593C20.2445 17.8733 20.2445 17.8826 20.235 17.8873C20.2208 17.8919 20.197 17.8966 20.1875 17.8873C20.1874 17.8857 20.1874 17.8842 20.1875 17.8826C20.178 17.8779 20.178 17.8733 20.1875 17.8686V17.8639L20.197 17.8499C20.1999 17.8454 20.2044 17.842 20.2096 17.8403C20.2148 17.8386 20.2204 17.8387 20.2255 17.8406ZM20.6625 17.8966L20.6863 17.9013V17.9293H20.6293L20.6245 17.9199C20.6245 17.9106 20.6245 17.9059 20.634 17.9013L20.6625 17.8966ZM19.8503 18.1206C19.8455 18.1206 19.836 18.1159 19.8455 18.1113C19.8503 18.0973 19.8693 18.0926 19.8835 18.0833C19.9094 18.0736 19.9323 18.0575 19.95 18.0366C19.95 18.0179 19.969 18.0086 19.969 17.9899L19.9643 17.9246C19.9578 17.905 19.9443 17.8884 19.9263 17.8779C19.912 17.8733 19.893 17.8686 19.8883 17.8499C19.8883 17.8359 19.9025 17.8219 19.9073 17.8079L19.9358 17.7519C19.95 17.7379 19.969 17.7519 19.9738 17.7613L19.9975 17.8079C20.0118 17.8219 20.0213 17.8359 20.026 17.8546C20.0355 17.8733 20.045 17.8873 20.045 17.9013L20.0545 17.9619C20.0545 17.9853 20.0545 18.0133 20.045 18.0366L20.0165 18.0739C20.0023 18.0879 19.988 18.1019 19.969 18.1066C19.9548 18.1113 19.9453 18.1253 19.9263 18.1253H19.855L19.8503 18.1206ZM19.5225 18.1393C19.513 18.1299 19.5083 18.1253 19.5083 18.1113C19.5083 18.0973 19.5083 18.0973 19.5225 18.0833C19.5415 18.0646 19.551 18.0646 19.589 18.0833C19.6223 18.1019 19.6365 18.1019 19.6365 18.0879C19.6413 18.0786 19.6603 18.0646 19.684 18.0646C19.6928 18.0649 19.7012 18.0682 19.7078 18.0739C19.7173 18.0833 19.722 18.0879 19.722 18.1066C19.722 18.1299 19.722 18.1299 19.7078 18.1439C19.6935 18.1533 19.6935 18.1533 19.6745 18.1533C19.6661 18.1528 19.6579 18.1499 19.6512 18.1449C19.6444 18.1399 19.6393 18.1331 19.6365 18.1253C19.6365 18.1159 19.6365 18.1113 19.627 18.1206L19.6175 18.1253C19.608 18.1253 19.589 18.1393 19.5795 18.1486L19.5558 18.1533C19.5368 18.1533 19.5368 18.1533 19.5225 18.1393ZM18.582 17.7239C18.5488 17.7239 18.5155 17.7519 18.5108 17.7846C18.5203 17.8173 18.5488 17.8546 18.5298 17.8873C18.544 17.9339 18.4918 17.9526 18.4585 17.9293C18.4395 17.8826 18.43 17.8359 18.3968 17.7893C18.3588 17.7799 18.3445 17.8406 18.316 17.8639C18.3303 17.8966 18.3683 17.9293 18.373 17.9713C18.3825 18.0179 18.354 18.0646 18.3208 18.0833C18.2875 18.1159 18.24 18.1066 18.202 18.1113C18.1545 18.1393 18.2353 18.1486 18.259 18.1486C18.3065 18.1533 18.3588 18.1486 18.4015 18.1113C18.4348 18.0973 18.43 18.0319 18.4728 18.0273L18.7008 18.0413C18.7388 18.0506 18.8005 18.0366 18.829 18.0646C18.829 18.1113 18.8765 18.1486 18.9193 18.1673C18.943 18.1766 18.9668 18.1439 18.9905 18.1393C19.038 18.1253 19.0238 18.0693 19.0523 18.0459H19.2898C19.2993 18.0459 19.304 18.0226 19.3183 18.0133L19.3088 17.9246C19.2945 17.8873 19.3088 17.8406 19.285 17.8079C19.2423 17.7986 19.209 17.8313 19.171 17.8359C19.1235 17.8546 19.0903 17.8966 19.0855 17.9433C19.0618 17.9853 19.019 17.9339 19.038 17.8966L19.0333 17.8499C19.0095 17.8266 18.9668 17.8359 18.9335 17.8313L18.791 17.8219C18.7435 17.8219 18.7008 17.8266 18.6628 17.8173C18.6153 17.8173 18.6153 17.7706 18.6153 17.7333C18.6058 17.7262 18.5939 17.7228 18.582 17.7239ZM18.677 17.8966L18.7245 17.9013H18.7863C18.8338 17.9106 18.8813 17.9106 18.9288 17.9106C18.9383 17.9106 18.9478 17.9199 18.9573 17.9293V18.0226C18.9573 18.0366 18.9573 18.0553 18.9478 18.0599C18.9453 18.0636 18.942 18.0668 18.9383 18.0693C18.9313 18.0681 18.9247 18.0653 18.9189 18.0613C18.9132 18.0573 18.9084 18.052 18.905 18.0459V17.9806C18.8956 17.9728 18.884 17.9679 18.8718 17.9666L18.7483 17.9619L18.6533 17.9573C18.639 17.9526 18.62 17.9573 18.6105 17.9386C18.601 17.9293 18.6153 17.9106 18.6295 17.9059C18.6444 17.8994 18.6607 17.8962 18.677 17.8966ZM19.2138 17.9106C19.2185 17.9106 19.2233 17.9106 19.2233 17.9246L19.2328 17.9479C19.2328 17.9526 19.2328 17.9573 19.2233 17.9573C19.1995 17.9666 19.1758 17.9666 19.1663 17.9573C19.1663 17.9526 19.1663 17.9339 19.1758 17.9293L19.2138 17.9106Z" fill="#C09300"/>
</g>
</g>
<path id="Vector_21" d="M19 15.2692C20.5485 14.1026 20.4155 12.3852 20.4155 12.3852L20.2968 12.3946C19.969 12.3946 19.1948 12.2079 19.0143 11.9792C18.8243 12.1892 18.0263 12.3992 17.7033 12.3992L17.5845 12.3852C17.5845 12.3852 17.4468 14.0979 19 15.2692Z" fill="white" stroke="#C09300" stroke-width="0.11"/>
<path id="Vector_22" d="M20.292 12.5066H20.254C19.9595 12.5066 19.2755 12.3619 19.0095 12.1379C18.734 12.3433 18.0358 12.5113 17.746 12.5113C17.7332 12.5108 17.7205 12.5092 17.708 12.5066C17.7106 12.8015 17.7521 13.0949 17.8315 13.3793C18.022 14.0645 18.4317 14.6715 19 15.1106C19.5687 14.6698 19.9783 14.0613 20.1685 13.3746C20.2475 13.0917 20.289 12.8 20.292 12.5066Z" fill="white" stroke="#C09300" stroke-width="0.09"/>
<path id="Vector_23" d="M18.4965 12.3667C18.2414 12.4484 17.9761 12.4955 17.708 12.5067L17.7128 12.6981C17.729 12.927 17.7688 13.1537 17.8315 13.3747C17.9592 13.8337 18.186 14.2603 18.4965 14.6254V12.3667ZM19.475 12.3667V14.6627C19.8005 14.2892 20.0373 13.8492 20.1685 13.3747C20.2312 13.1537 20.271 12.927 20.2873 12.6981L20.292 12.5114H20.254C20.0735 12.5114 19.76 12.4554 19.475 12.3621V12.3667Z" fill="#C09300"/>
<g id="Group_5">
<path id="Vector_24" d="M19.5842 11.8067C19.6175 11.8113 19.5415 11.6433 19.5415 11.6433C19.627 11.7273 19.9405 11.7507 19.9405 11.7507C19.7505 11.6667 19.5605 11.046 19.5842 10.5467C19.6032 10.052 19.513 9.85599 19.4417 9.78133C19.3467 9.68799 19.038 9.60399 18.8385 9.59466C18.7197 9.58999 18.7435 9.67866 18.7435 9.67866C18.5297 9.62733 18.316 9.60399 18.221 9.66933C18.1355 9.72533 18.1165 10.0193 18.183 9.96799C18.3397 9.84199 18.4775 9.95866 18.5725 10.094C18.658 10.2107 18.6532 10.5467 18.5297 10.9433C18.4204 11.2432 18.2598 11.5225 18.0547 11.7693C18.2447 11.7693 18.5107 11.606 18.5107 11.606L18.449 11.8627C18.6485 11.7693 18.8052 11.6247 18.8052 11.6247L18.9952 11.8207C19.057 11.7367 19.1852 11.6247 19.1852 11.6247C19.1852 11.6247 19.342 11.788 19.5842 11.8113V11.8067Z" fill="white" stroke="#C09300" stroke-width="0.12"/>
<path id="Vector_25" d="M18.8147 10.6212C18.8147 10.6212 18.7102 11.3866 18.5107 11.6012M18.9857 10.5979C18.9857 10.5979 18.9382 11.3772 18.8052 11.6246M19.133 10.6306C19.133 10.6306 19.133 11.4799 19.1805 11.6246M19.323 10.6726C19.323 10.6726 19.361 11.3866 19.5415 11.6432" stroke="#C09300" stroke-width="0.13"/>
<path id="Vector_26" d="M18.62 10.248C18.6157 10.1939 18.5995 10.1413 18.5725 10.094C18.4775 9.95402 18.3397 9.84202 18.183 9.96802C18.183 9.96802 18.2352 9.80469 18.354 9.80002C18.4395 9.79535 18.6437 9.86535 18.8242 10.164C18.8242 10.164 18.6912 10.136 18.658 10.164C18.601 10.2107 18.6247 10.248 18.6247 10.248H18.62Z" fill="#C09300" stroke="#C09300" stroke-width="0.03"/>
<path id="Vector_27" d="M18.164 9.76733C18.1783 9.72066 18.1973 9.68333 18.2258 9.66933C18.3208 9.60399 18.5298 9.62266 18.7435 9.67866C18.7435 9.67866 18.7245 9.58999 18.8385 9.59466C19.038 9.60399 19.342 9.68799 19.437 9.78133C19.4674 9.81414 19.4916 9.85208 19.5083 9.89333C19.4608 9.82799 19.3278 9.83266 19.2945 9.83733C19.247 9.84199 19.2138 9.83733 19.1473 9.85599C19.114 9.86533 19.0665 9.87466 19.038 9.89333C19.019 9.91199 19 9.96799 18.9715 9.96799C18.924 9.96799 18.924 9.95866 18.9098 9.94466C18.8955 9.92133 18.886 9.89333 18.867 9.89799C18.8195 9.90266 18.734 9.86533 18.6295 9.78133C18.5203 9.69733 18.4775 9.67866 18.3445 9.68799C18.202 9.69733 18.164 9.77666 18.164 9.77666V9.76733Z" fill="#C09300" stroke="#C09300" stroke-width="0.03"/>
<path id="Vector_28" d="M18.943 9.88861C18.9745 9.88861 19 9.86354 19 9.83261C19 9.80168 18.9745 9.77661 18.943 9.77661C18.9115 9.77661 18.886 9.80168 18.886 9.83261C18.886 9.86354 18.9115 9.88861 18.943 9.88861Z" fill="white"/>
</g>
</g>
</g>
<defs>
<clipPath id="clip0_147_2245">
<rect width="38" height="28" fill="white"/>
</clipPath>
</defs>
</svg>
