<svg width="124" height="92" viewBox="0 0 124 92" fill="none" xmlns="http://www.w3.org/2000/svg">
<g id="air-support/rafiki">
<g id="background-complete">
<path id="Vector" d="M123.203 80.1515H0.796959V80.2127H123.203V80.1515Z" fill="#EBEBEB"/>
<path id="Vector_2" d="M110.938 83.0328H102.83V83.094H110.938V83.0328Z" fill="#EBEBEB"/>
<path id="Vector_3" d="M94.9958 81.2017H59.121V81.2629H94.9958V81.2017Z" fill="#EBEBEB"/>
<path id="Vector_4" d="M17.3634 81.1722H13.6398V81.2334H17.3634V81.1722Z" fill="#EBEBEB"/>
<path id="Vector_5" d="M27.9442 81.1722H19.5422V81.2334H27.9442V81.1722Z" fill="#EBEBEB"/>
<path id="Vector_6" d="M43.8031 82.2053H32.9824V82.2665H43.8031V82.2053Z" fill="#EBEBEB"/>
<path id="Vector_7" d="M59.1724 69.2329H11.8992C11.5285 69.2329 11.1729 69.0856 10.9107 68.8234C10.6486 68.5613 10.5013 68.2057 10.5013 67.835V1.38564C10.5052 1.01722 10.6541 0.665173 10.9158 0.405799C11.1774 0.146424 11.5308 0.000623852 11.8992 0H59.1724C59.5427 0.00064854 59.8977 0.148211 60.1593 0.410294C60.4209 0.672376 60.5679 1.02756 60.5679 1.39788V67.835C60.5679 68.2053 60.4209 68.5605 60.1593 68.8226C59.8977 69.0847 59.5427 69.2322 59.1724 69.2329ZM11.8992 0.0489626C11.5451 0.0502526 11.2058 0.191495 10.9554 0.441891C10.7051 0.692287 10.5638 1.03153 10.5625 1.38564V67.835C10.5638 68.1891 10.7051 68.5283 10.9554 68.7787C11.2058 69.0291 11.5451 69.1704 11.8992 69.1717H59.1724C59.5265 69.171 59.8659 69.0299 60.116 68.7793C60.3662 68.5287 60.5067 68.1891 60.5067 67.835V1.38564C60.5067 1.03155 60.3662 0.691934 60.116 0.441329C59.8659 0.190725 59.5265 0.0496111 59.1724 0.0489626H11.8992Z" fill="#EBEBEB"/>
<path id="Vector_8" d="M111.773 69.2329H64.4995C64.1292 69.2316 63.7744 69.0839 63.5125 68.822C63.2506 68.5602 63.1029 68.2053 63.1016 67.835V1.38564C63.1055 1.01722 63.2544 0.665173 63.5161 0.405799C63.7777 0.146424 64.1311 0.000623852 64.4995 0H111.773C112.141 0.00127412 112.493 0.147438 112.754 0.406811C113.014 0.666184 113.163 1.01787 113.166 1.38564V67.835C113.166 68.0182 113.13 68.1998 113.06 68.3692C112.991 68.5386 112.888 68.6926 112.759 68.8224C112.629 68.9522 112.476 69.0553 112.307 69.1257C112.137 69.1961 111.956 69.2326 111.773 69.2329ZM64.4995 0.0489626C64.1454 0.0502526 63.8062 0.191495 63.5558 0.441891C63.3054 0.692287 63.1641 1.03153 63.1628 1.38564V67.835C63.1641 68.1891 63.3054 68.5283 63.5558 68.7787C63.8062 69.0291 64.1454 69.1704 64.4995 69.1717H111.773C112.127 69.1704 112.466 69.0291 112.716 68.7787C112.967 68.5283 113.108 68.1891 113.109 67.835V1.38564C113.108 1.03153 112.967 0.692287 112.716 0.441891C112.466 0.191495 112.127 0.0502526 111.773 0.0489626H64.4995Z" fill="#EBEBEB"/>
<path id="Vector_9" d="M61.8996 35.3216H44.7848V80.1516H61.8996V35.3216Z" fill="#F0F0F0"/>
<path id="Vector_10" d="M60.186 35.3216H40.0869V80.1516H60.186V35.3216Z" fill="#FAFAFA"/>
<path id="Vector_11" d="M43.4922 36.7315H41.1224V39.1013H43.4922V36.7315Z" fill="#EBEBEB"/>
<path id="Vector_12" d="M47.3578 36.7315H44.988V39.1013H47.3578V36.7315Z" fill="#EBEBEB"/>
<path id="Vector_13" d="M51.2234 36.7315H48.8536V39.1013H51.2234V36.7315Z" fill="#EBEBEB"/>
<path id="Vector_14" d="M55.0865 36.7315H52.7167V39.1013H55.0865V36.7315Z" fill="#EBEBEB"/>
<path id="Vector_15" d="M58.9521 36.7315H56.5823V39.1013H58.9521V36.7315Z" fill="#EBEBEB"/>
<path id="Vector_16" d="M43.4922 39.9241H41.1224V42.2939H43.4922V39.9241Z" fill="#EBEBEB"/>
<path id="Vector_17" d="M47.3578 39.9241H44.988V42.2939H47.3578V39.9241Z" fill="#EBEBEB"/>
<path id="Vector_18" d="M51.2234 39.9241H48.8536V42.2939H51.2234V39.9241Z" fill="#EBEBEB"/>
<path id="Vector_19" d="M55.0865 39.9241H52.7167V42.2939H55.0865V39.9241Z" fill="#EBEBEB"/>
<path id="Vector_20" d="M58.9521 39.9241H56.5823V42.2939H58.9521V39.9241Z" fill="#EBEBEB"/>
<path id="Vector_21" d="M43.4922 43.114H41.1224V45.4837H43.4922V43.114Z" fill="#EBEBEB"/>
<path id="Vector_22" d="M47.3578 43.114H44.988V45.4837H47.3578V43.114Z" fill="#EBEBEB"/>
<path id="Vector_23" d="M51.2234 43.114H48.8536V45.4837H51.2234V43.114Z" fill="#EBEBEB"/>
<path id="Vector_24" d="M55.0865 43.114H52.7167V45.4837H55.0865V43.114Z" fill="#EBEBEB"/>
<path id="Vector_25" d="M58.9521 43.114H56.5823V45.4837H58.9521V43.114Z" fill="#EBEBEB"/>
<path id="Vector_26" d="M43.4922 46.3037H41.1224V48.6735H43.4922V46.3037Z" fill="#EBEBEB"/>
<path id="Vector_27" d="M47.3578 46.3037H44.988V48.6735H47.3578V46.3037Z" fill="#EBEBEB"/>
<path id="Vector_28" d="M51.2234 46.3037H48.8536V48.6735H51.2234V46.3037Z" fill="#EBEBEB"/>
<path id="Vector_29" d="M55.0865 46.3037H52.7167V48.6735H55.0865V46.3037Z" fill="#EBEBEB"/>
<path id="Vector_30" d="M58.9521 46.3037H56.5823V48.6735H58.9521V46.3037Z" fill="#EBEBEB"/>
<path id="Vector_31" d="M43.4922 49.4935H41.1224V51.8633H43.4922V49.4935Z" fill="#EBEBEB"/>
<path id="Vector_32" d="M47.3578 49.4935H44.988V51.8633H47.3578V49.4935Z" fill="#EBEBEB"/>
<path id="Vector_33" d="M51.2234 49.4935H48.8536V51.8633H51.2234V49.4935Z" fill="#EBEBEB"/>
<path id="Vector_34" d="M55.0865 49.4935H52.7167V51.8633H55.0865V49.4935Z" fill="#EBEBEB"/>
<path id="Vector_35" d="M58.9521 49.4935H56.5823V51.8633H58.9521V49.4935Z" fill="#EBEBEB"/>
<path id="Vector_36" d="M83.9131 29.7448H66.5437V80.1516H83.9131V29.7448Z" fill="#E6E6E6"/>
<path id="Vector_37" d="M78.8725 29.7448H61.8482V80.1516H78.8725V29.7448Z" fill="#F5F5F5"/>
<path id="Vector_38" d="M77.668 31.5001H63.2118V33.3729H77.668V31.5001Z" fill="#E0E0E0"/>
<path id="Vector_39" d="M77.668 34.384H63.2118V36.2568H77.668V34.384Z" fill="#E0E0E0"/>
<path id="Vector_40" d="M77.668 37.2677H63.2118V39.1405H77.668V37.2677Z" fill="#E0E0E0"/>
<path id="Vector_41" d="M77.668 40.1516H63.2118V42.0244H77.668V40.1516Z" fill="#E0E0E0"/>
<path id="Vector_42" d="M77.668 43.0382H63.2118V44.911H77.668V43.0382Z" fill="#E0E0E0"/>
<path id="Vector_43" d="M40.0893 53.3985H22.7199V80.1516H40.0893V53.3985Z" fill="#E6E6E6"/>
<path id="Vector_44" d="M35.0462 53.3985H18.0219V80.1516H35.0462V53.3985Z" fill="#F0F0F0"/>
<path id="Vector_45" d="M33.7634 54.9481H19.3072V56.8209H33.7634V54.9481Z" fill="#E0E0E0"/>
<path id="Vector_46" d="M33.7634 57.832H19.3072V59.7048H33.7634V57.832Z" fill="#E0E0E0"/>
<path id="Vector_47" d="M33.7634 60.7157H19.3072V62.5885H33.7634V60.7157Z" fill="#E0E0E0"/>
<path id="Vector_48" d="M33.7634 63.6H19.3072V65.4728H33.7634V63.6Z" fill="#E0E0E0"/>
<path id="Vector_49" d="M33.7634 66.4862H19.3072V68.359H33.7634V66.4862Z" fill="#E0E0E0"/>
<path id="Vector_50" d="M105.978 53.3985H88.6086V80.1516H105.978V53.3985Z" fill="#E6E6E6"/>
<path id="Vector_51" d="M100.937 53.3985H83.9131V80.1516H100.937V53.3985Z" fill="#F0F0F0"/>
<path id="Vector_52" d="M87.813 54.9481H85.4432V57.3179H87.813V54.9481Z" fill="#FAFAFA"/>
<path id="Vector_53" d="M91.6786 54.9481H89.3088V57.3179H91.6786V54.9481Z" fill="#FAFAFA"/>
<path id="Vector_54" d="M95.5417 54.9481H93.1719V57.3179H95.5417V54.9481Z" fill="#FAFAFA"/>
<path id="Vector_55" d="M99.4073 54.9481H97.0375V57.3179H99.4073V54.9481Z" fill="#FAFAFA"/>
<path id="Vector_56" d="M87.813 58.5054H85.4432V60.8752H87.813V58.5054Z" fill="#FAFAFA"/>
<path id="Vector_57" d="M91.6786 58.5054H89.3088V60.8752H91.6786V58.5054Z" fill="#FAFAFA"/>
<path id="Vector_58" d="M95.5417 58.5054H93.1719V60.8752H95.5417V58.5054Z" fill="#FAFAFA"/>
<path id="Vector_59" d="M99.4073 58.5054H97.0375V60.8752H99.4073V58.5054Z" fill="#FAFAFA"/>
<path id="Vector_60" d="M87.813 62.0622H85.4432V64.432H87.813V62.0622Z" fill="#FAFAFA"/>
<path id="Vector_61" d="M91.6786 62.0622H89.3088V64.432H91.6786V62.0622Z" fill="#FAFAFA"/>
<path id="Vector_62" d="M95.5417 62.0622H93.1719V64.432H95.5417V62.0622Z" fill="#FAFAFA"/>
<path id="Vector_63" d="M99.4073 62.0622H97.0375V64.432H99.4073V62.0622Z" fill="#FAFAFA"/>
<path id="Vector_64" d="M87.813 65.6194H85.4432V67.9892H87.813V65.6194Z" fill="#FAFAFA"/>
<path id="Vector_65" d="M91.6786 65.6194H89.3088V67.9892H91.6786V65.6194Z" fill="#FAFAFA"/>
<path id="Vector_66" d="M95.5417 65.6194H93.1719V67.9892H95.5417V65.6194Z" fill="#FAFAFA"/>
<path id="Vector_67" d="M99.4073 65.6194H97.0375V67.9892H99.4073V65.6194Z" fill="#FAFAFA"/>
<path id="Vector_68" d="M13.6398 32.0336H36.4073C36.4073 32.0336 37.8762 29.1204 35.3669 29.1204C35.3669 29.1204 34.9115 25.9109 32.6593 25.4776C30.407 25.0443 29.1168 27.7617 29.1168 27.7617C29.1168 27.7617 28.0813 21.8495 25.2366 22.4615C22.3918 23.0735 22.3894 25.7909 22.3894 25.7909C22.3894 25.7909 20.7638 23.0123 18.5214 24.0919C16.2789 25.1716 16.9546 29.6639 16.9546 29.6639C16.9546 29.6639 13.7181 28.4227 13.6398 32.0336Z" fill="#F5F5F5"/>
<path id="Vector_69" d="M83.3403 8.68847H101.334C101.334 8.68847 99.777 6.32113 97.0032 6.99682C97.0032 6.99682 97.6814 3.88525 94.5698 4.56338C94.5698 4.56338 93.0814 1.24863 90.8487 2.11526C88.616 2.9819 88.9538 6.17425 88.9538 6.17425C88.9538 6.17425 83.8128 4.69803 83.3403 8.68847Z" fill="#F5F5F5"/>
<path id="Vector_70" d="M112.081 38.5284H86.0699C86.0699 38.5284 88.3173 35.101 92.3273 36.0803C92.3273 36.0803 91.3481 31.5806 95.8477 32.5599C95.8477 32.5599 97.9996 27.7665 101.234 29.0395C104.468 30.3125 103.971 34.915 103.971 34.915C103.971 34.915 111.396 32.7582 112.081 38.5284Z" fill="#F5F5F5"/>
</g>
<g id="Shadow">
<g id="shape">
<path id="path--inject-44" d="M62 91.2072C88.2151 91.2072 109.467 89.9665 109.467 88.4359C109.467 86.9054 88.2151 85.6647 62 85.6647C35.7849 85.6647 14.5334 86.9054 14.5334 88.4359C14.5334 89.9665 35.7849 91.2072 62 91.2072Z" fill="#F5F5F5"/>
</g>
</g>
<g id="plane-1">
<path id="Vector_71" d="M91.3775 21.7028C91.1082 22.5376 90.0751 22.8485 90.0751 22.8485L42.6109 25.3749C39.2472 25.4386 36.8505 25.0249 35.1466 24.3957C34.1803 24.0707 33.2835 23.5675 32.5026 22.9121C30.948 21.5583 30.926 20.1507 30.926 20.1507L37.4796 19.8299L39.2104 19.7418L41.2057 19.639C55.9605 18.8874 81.5825 17.5899 83.4358 17.585C84.4245 17.6233 85.4036 17.7945 86.3466 18.0942C87.207 18.3472 88.0474 18.6639 88.8608 19.0417C89.84 19.5043 90.6773 20.0209 91.1057 20.4934C91.2575 20.6411 91.3644 20.8286 91.4142 21.0344C91.4561 21.2569 91.4435 21.4862 91.3775 21.7028Z" fill="#CB2449"/>
<path id="Vector_72" d="M41.2057 19.6363L39.2104 19.7391L37.4796 19.8272L30.926 20.1626L30.0692 13.0631L32.9383 12.9431C32.9383 12.9431 33.45 13.8612 35.4061 16.5835C37.3621 19.3058 41.2057 19.6363 41.2057 19.6363Z" fill="#CB2449"/>
<path id="Vector_73" d="M91.3775 21.7026C91.1082 22.5374 90.0751 22.8483 90.0751 22.8483L42.6109 25.3748C39.2472 25.4384 36.8505 25.0247 35.1466 24.3955L91.3775 21.7026Z" fill="#CB2449"/>
<path id="Vector_74" opacity="0.1" d="M91.106 20.4908L32.5028 22.9243C30.9483 21.5705 30.9287 20.1628 30.9287 20.1628V20.0869L30.8748 19.6364L30.0816 13.0706L32.9484 12.9506C32.9484 12.9506 33.4625 13.8687 35.4185 16.591C37.3746 19.3133 41.2181 19.6364 41.2181 19.6364C55.9705 18.8849 81.5926 17.5874 83.4458 17.5825C84.4345 17.6207 85.4136 17.792 86.3566 18.0917C86.4619 18.1211 86.5647 18.1529 86.67 18.1872C87.4222 18.4228 88.1582 18.7074 88.8733 19.0391C89.003 19.1003 89.1181 19.1615 89.2527 19.2252C89.9383 19.538 90.5651 19.9661 91.106 20.4908Z" fill="black"/>
<path id="Vector_75" d="M43.8305 20.5617L43.7278 20.566C43.5265 20.5745 43.3702 20.7446 43.3787 20.9459L43.397 21.3788C43.4055 21.5801 43.5756 21.7363 43.7769 21.7278L43.8796 21.7235C44.0809 21.715 44.2372 21.5449 44.2287 21.3436L44.2104 20.9107C44.2019 20.7094 44.0318 20.5532 43.8305 20.5617Z" fill="white"/>
<path id="Vector_76" d="M45.5125 20.4889L45.4101 20.4985C45.2095 20.5172 45.0621 20.695 45.0808 20.8955L45.1211 21.327C45.1398 21.5276 45.3176 21.675 45.5181 21.6563L45.6205 21.6467C45.8211 21.628 45.9685 21.4503 45.9498 21.2497L45.9096 20.8182C45.8909 20.6176 45.7131 20.4702 45.5125 20.4889Z" fill="white"/>
<path id="Vector_77" d="M47.2884 20.4171L47.1857 20.4214C46.9844 20.43 46.8282 20.6001 46.8367 20.8013L46.8551 21.2343C46.8636 21.4355 47.0337 21.5918 47.235 21.5832L47.3377 21.5789C47.539 21.5703 47.6952 21.4002 47.6867 21.199L47.6683 20.766C47.6598 20.5648 47.4897 20.4085 47.2884 20.4171Z" fill="white"/>
<path id="Vector_78" d="M49.0237 20.3399L48.921 20.3443C48.7197 20.3528 48.5634 20.5228 48.572 20.7241L48.5902 21.1571C48.5988 21.3583 48.7688 21.5146 48.9701 21.5061L49.0728 21.5018C49.2741 21.4933 49.4304 21.3232 49.4219 21.1219L49.4036 20.689C49.3951 20.4877 49.225 20.3314 49.0237 20.3399Z" fill="white"/>
<path id="Vector_79" d="M50.8671 20.2624L50.7644 20.2667C50.5631 20.2752 50.4068 20.4453 50.4153 20.6465L50.4336 21.0795C50.4421 21.2808 50.6122 21.437 50.8135 21.4285L50.9162 21.4242C51.1175 21.4157 51.2738 21.2456 51.2653 21.0443L51.247 20.6114C51.2385 20.4101 51.0684 20.2539 50.8671 20.2624Z" fill="white"/>
<path id="Vector_80" d="M52.669 20.1862L52.5663 20.1906C52.365 20.1991 52.2088 20.3692 52.2173 20.5704L52.2356 21.0034C52.2441 21.2046 52.4141 21.3609 52.6154 21.3524L52.7181 21.3481C52.9194 21.3396 53.0757 21.1695 53.0672 20.9682L53.0489 20.5353C53.0404 20.334 52.8703 20.1777 52.669 20.1862Z" fill="white"/>
<path id="Vector_81" d="M69.1498 19.4911L69.0471 19.4954C68.8458 19.5039 68.6895 19.674 68.698 19.8752L68.7163 20.3082C68.7248 20.5095 68.8949 20.6657 69.0962 20.6572L69.1989 20.6529C69.4002 20.6444 69.5564 20.4743 69.5479 20.273L69.5296 19.8401C69.5211 19.6388 69.3511 19.4826 69.1498 19.4911Z" fill="white"/>
<path id="Vector_82" d="M70.9754 19.6016L70.8726 19.6057C70.6711 19.6138 70.5144 19.7836 70.5224 19.9851L70.5397 20.4184C70.5478 20.6198 70.7177 20.7766 70.9191 20.7686L71.0219 20.7645C71.2234 20.7564 71.3802 20.5866 71.3721 20.3851L71.3548 19.9518C71.3467 19.7503 71.1769 19.5935 70.9754 19.6016Z" fill="white"/>
<path id="Vector_83" d="M72.6193 19.3448L72.5165 19.3491C72.3153 19.3576 72.159 19.5277 72.1675 19.7289L72.1858 20.1619C72.1943 20.3632 72.3644 20.5194 72.5656 20.5109L72.6684 20.5066C72.8697 20.4981 73.0259 20.328 73.0174 20.1267L72.9991 19.6938C72.9906 19.4925 72.8206 19.3363 72.6193 19.3448Z" fill="white"/>
<path id="Vector_84" d="M74.3284 19.2724L74.2257 19.2768C74.0244 19.2853 73.8682 19.4553 73.8767 19.6566L73.895 20.0896C73.9035 20.2908 74.0735 20.4471 74.2748 20.4386L74.3776 20.4343C74.5788 20.4257 74.7351 20.2557 74.7266 20.0544L74.7083 19.6215C74.6998 19.4202 74.5297 19.2639 74.3284 19.2724Z" fill="white"/>
<path id="Vector_85" d="M75.9374 19.2047L75.8347 19.209C75.6334 19.2175 75.4771 19.3876 75.4856 19.5889L75.5039 20.0218C75.5124 20.2231 75.6825 20.3794 75.8838 20.3708L75.9865 20.3665C76.1878 20.358 76.3441 20.1879 76.3355 19.9867L76.3172 19.5537C76.3087 19.3524 76.1387 19.1962 75.9374 19.2047Z" fill="white"/>
<path id="Vector_86" d="M68.1399 20.2362L50.5477 14.4807C49.8988 14.2688 49.2175 14.1735 48.5353 14.1992L44.5939 14.3338L54.876 20.8752L68.1399 20.2362Z" fill="#CB2449"/>
<path id="Vector_87" d="M60.5483 24.4202L56.8932 27.8476L58.3107 27.9137C58.9943 27.9445 59.6779 27.8507 60.328 27.637L71.9223 23.813L60.5483 24.4202Z" fill="#CB2449"/>
<path id="Vector_88" d="M46.594 24.2072L45.9722 23.529L40.1212 22.1801C39.3728 22.0078 38.6036 21.9435 37.8371 21.9892L35.2886 22.1409L40.2264 24.5132L46.594 24.2072Z" fill="#CB2449"/>
<path id="Vector_89" d="M41.2083 19.6364L30.9262 20.0869L30.8723 19.6364L30.5296 16.7942L30.3705 15.482L30.0792 13.0706L32.9459 12.9506C32.9459 12.9506 33.2935 13.57 34.5005 15.3008C34.7453 15.6607 35.039 16.0671 35.372 16.5249L35.4161 16.5861C37.3648 19.3133 41.2083 19.6364 41.2083 19.6364Z" fill="#CB2449"/>
<path id="Vector_90" d="M35.3644 16.5299L30.5221 16.7943L30.3629 15.4821L34.4929 15.3009C34.7426 15.6681 35.0315 16.0672 35.3644 16.5299Z" fill="white"/>
<path id="Vector_91" d="M89.2403 19.2252C86.7432 19.399 79.6754 19.732 78.6325 19.6561C77.3448 19.5606 77.5138 18.596 77.5138 18.596L86.6599 18.1872C87.4122 18.4229 88.1482 18.7075 88.8632 19.0391C88.9906 19.0955 89.1178 19.1615 89.2403 19.2252Z" fill="white"/>
<path id="Vector_92" d="M37.274 38.2177C37.4894 37.7624 51.549 23.8154 51.549 23.8154L53.2137 40.3427" stroke="#CB2449" stroke-width="0.5" stroke-linecap="round" stroke-linejoin="round"/>
<path id="Vector_93" d="M39.9596 38.4576L51.5539 23.8154L55.3338 40.705" stroke="#CB2449" stroke-width="0.5" stroke-linecap="round" stroke-linejoin="round"/>
<path id="Vector_94" d="M55.4031 40.6558L39.4455 38.3846L37.8132 49.8536L53.7708 52.1247L55.4031 40.6558Z" fill="#CB2449"/>
<path id="Vector_95" opacity="0.3" d="M55.4031 40.6558L39.4455 38.3846L37.8132 49.8536L53.7708 52.1247L55.4031 40.6558Z" fill="black"/>
<path id="Vector_96" d="M53.2164 40.3459L37.2588 38.0748L35.6265 49.5438L51.5842 51.8149L53.2164 40.3459Z" fill="#CB2449"/>
<path id="Vector_97" opacity="0.5" d="M44.5449 49.4238C46.9503 49.3461 48.8373 47.3331 48.7596 44.9277C48.6819 42.5223 46.669 40.6353 44.2635 40.713C41.8581 40.7907 39.9711 42.8037 40.0488 45.2091C40.1265 47.6145 42.1395 49.5015 44.5449 49.4238Z" fill="white"/>
<path id="Vector_98" opacity="0.5" d="M54.0036 41.6294L51.1001 41.2162L50.9617 42.1881L53.8653 42.6013L54.0036 41.6294Z" fill="white"/>
<path id="Vector_99" opacity="0.5" d="M52.8944 49.425L49.9908 49.0117L49.8525 49.9836L52.756 50.3969L52.8944 49.425Z" fill="white"/>
<path id="Vector_100" d="M41.7492 42.9743L42.6207 43.5104C42.6693 43.545 42.7037 43.5962 42.7172 43.6544C42.7307 43.7126 42.7225 43.7737 42.6941 43.8262L42.3049 44.4554C42.2731 44.506 42.2226 44.542 42.1645 44.5558C42.1063 44.5695 42.0451 44.5598 41.994 44.5288L41.12 43.9927C41.1156 44.1835 41.1579 44.3725 41.2431 44.5432C41.3283 44.714 41.454 44.8614 41.6091 44.9726C41.7642 45.0838 41.9441 45.1555 42.1332 45.1814C42.3223 45.2073 42.5148 45.1867 42.6941 45.1213C42.8249 45.0752 42.9648 45.0614 43.1021 45.081C43.2393 45.1007 43.3698 45.1531 43.4824 45.2339L46.5769 47.3858C46.714 47.4853 46.885 47.5264 47.0524 47.5003C47.2198 47.4741 47.3701 47.3828 47.4704 47.2462C47.5176 47.1783 47.5509 47.1017 47.5685 47.0208C47.586 46.9399 47.5874 46.8564 47.5727 46.775C47.5579 46.6936 47.5272 46.6159 47.4823 46.5464C47.4375 46.4768 47.3794 46.4168 47.3113 46.3698L47.2525 46.3331L43.9182 44.5337C43.7963 44.4678 43.692 44.3735 43.6141 44.259C43.5361 44.1444 43.4868 44.0128 43.4702 43.8752C43.4529 43.7219 43.4055 43.5736 43.3307 43.4386C43.256 43.3037 43.1553 43.1849 43.0346 43.0889C42.9138 42.9929 42.7753 42.9217 42.627 42.8794C42.4787 42.837 42.3235 42.8243 42.1702 42.8421C42.028 42.8586 41.8901 42.9018 41.7638 42.9694L41.7492 42.9743ZM47.2868 47.0944C47.2522 47.1473 47.1984 47.1847 47.1368 47.1989C47.0752 47.213 47.0105 47.2028 46.9563 47.1703C46.9193 47.1314 46.8962 47.0814 46.8905 47.028C46.8847 46.9746 46.8967 46.9208 46.9245 46.8749C46.9523 46.829 46.9945 46.7935 47.0445 46.7739C47.0945 46.7543 47.1495 46.7516 47.2011 46.7664C47.2538 46.8006 47.2912 46.8537 47.3058 46.9148C47.3204 46.9758 47.311 47.0401 47.2795 47.0944H47.2868Z" fill="white"/>
<path id="Vector_101" d="M73.7314 56.035L74.3018 22.9241L59.4858 54.5735" stroke="#CB2449" stroke-width="0.5" stroke-linecap="round" stroke-linejoin="round"/>
<path id="Vector_102" d="M75.5871 56.4365L74.3018 22.9241L62.0074 54.997" stroke="#CB2449" stroke-width="0.5" stroke-linecap="round" stroke-linejoin="round"/>
<path id="Vector_103" d="M75.6911 56.2792L61.3333 54.5544L60.0938 64.8725L74.4516 66.5973L75.6911 56.2792Z" fill="#CB2449"/>
<path id="Vector_104" opacity="0.3" d="M75.6911 56.2792L61.3333 54.5544L60.0938 64.8725L74.4516 66.5973L75.6911 56.2792Z" fill="black"/>
<path id="Vector_105" d="M73.726 56.0412L59.3682 54.3165L58.1287 64.6346L72.4865 66.3593L73.726 56.0412Z" fill="#CB2449"/>
<path id="Vector_106" opacity="0.5" d="M69.268 62.4685C70.3843 60.6202 69.7908 58.2169 67.9425 57.1006C66.0942 55.9843 63.691 56.5778 62.5747 58.4261C61.4584 60.2744 62.0518 62.6776 63.9001 63.7939C65.7484 64.9102 68.1517 64.3168 69.268 62.4685Z" fill="white"/>
<path id="Vector_107" opacity="0.8" d="M63.5497 59.5187C63.6696 59.3767 63.8826 59.4036 64.0564 59.5578L65.1091 60.5811L64.6366 61.1246C64.6366 61.1246 63.9316 60.1674 63.7847 59.9765C63.6378 59.7855 63.4689 59.6141 63.5497 59.5187Z" fill="white"/>
<path id="Vector_108" d="M64.7101 59.6094C64.7346 59.4086 64.9402 59.3474 65.1777 59.4013C65.4151 59.4552 66.3405 59.8738 66.3405 59.8738C66.3405 59.8738 67.3932 59.6926 67.9392 59.913C68.1228 59.9839 68.1301 60.1578 68.0689 60.312C68.0471 60.3815 68.0016 60.4412 67.9403 60.4805C67.879 60.5199 67.8058 60.5365 67.7335 60.5274L66.2059 60.5397C66.1783 60.5433 66.1503 60.5433 66.1226 60.5397C65.7499 60.2805 65.3597 60.0474 64.9549 59.842C64.7346 59.7342 64.6929 59.7 64.7101 59.6094Z" fill="white"/>
<path id="Vector_109" d="M68.0616 59.979C67.9 59.8541 67.5475 59.8394 67.1827 59.9251C66.7994 60.0154 66.4408 60.1893 66.1325 60.4343H66.0982L64.95 60.5225L63.748 59.5579C63.5521 59.411 63.3342 59.3963 63.2339 59.5408C63.1653 59.6387 63.3587 59.8052 63.5325 59.9863C63.7064 60.1675 64.3086 60.8138 64.4996 61.0219C64.5361 61.0619 64.5802 61.0943 64.6293 61.1174L64.9059 61.252C65.0487 61.3105 65.2022 61.3381 65.3564 61.3328L67.5842 61.088L68.889 62.241L69.0677 60.7722L68.0616 59.979Z" fill="white"/>
<path id="Vector_110" opacity="0.5" d="M74.4531 57.1763L71.8401 56.8624L71.7353 57.735L74.3482 58.0489L74.4531 57.1763Z" fill="white"/>
<path id="Vector_111" opacity="0.5" d="M73.6103 64.1913L70.9974 63.8774L70.8925 64.75L73.5055 65.0639L73.6103 64.1913Z" fill="white"/>
</g>
<g id="plane-2">
<path id="Vector_112" d="M75.0999 4.84242C75.0673 4.7293 75.0037 4.62755 74.9163 4.54865L74.8135 4.45317C74.4554 4.1778 74.0597 3.9552 73.6384 3.79218L73.4743 3.72608C73.0659 3.56401 72.6471 3.42907 72.2209 3.32214C71.7266 3.18753 71.2177 3.11354 70.7055 3.10181H70.5953C70.0837 3.12139 66.3283 3.44944 61.6768 3.86562C60.3867 3.97824 59.028 4.11044 57.6497 4.2255L54.5455 3.34417C54.1836 3.24206 53.8066 3.20395 53.4316 3.23156L51.2478 3.39314L53.3508 4.6172L47.2305 5.17292C46.5302 5.11914 45.8466 4.93306 45.2157 4.62454C44.7223 4.385 44.2883 4.03882 43.9451 3.61102C43.524 3.06998 43.2107 2.66115 42.9952 2.36003L42.9781 2.338L42.8997 2.22783L42.8214 2.12256L42.8067 2.10053L42.7504 2.02219L42.7382 2.00505L42.6868 1.93161L42.5399 1.71862L42.5227 1.69169V1.677L41.5949 1.75289L40.9364 1.80675L41.5508 5.62093V5.68213V5.71395C41.5597 5.81414 41.5811 5.91283 41.6145 6.00773C41.7772 6.48709 42.0799 6.90665 42.4836 7.2122C42.9324 7.55727 43.4412 7.81624 43.9843 7.97602C44.9439 8.28203 46.283 8.46564 48.1461 8.34813L58.0806 7.42519L56.1221 9.40817H56.9103C57.2907 9.41098 57.6683 9.34376 58.0242 9.20987L64.3747 6.83275L74.3948 5.87553C74.3948 5.87553 74.9604 5.68213 75.0926 5.21209C75.1244 5.09121 75.1269 4.96448 75.0999 4.84242Z" fill="#CB2449"/>
<path id="Vector_113" opacity="0.5" d="M75.0999 4.84242C75.0673 4.7293 75.0037 4.62755 74.9163 4.54865L74.8135 4.45317C74.4554 4.1778 74.0597 3.9552 73.6384 3.79218L73.4743 3.72608C73.0659 3.56401 72.6471 3.42907 72.2209 3.32214C71.7266 3.18753 71.2177 3.11354 70.7055 3.10181H70.5953C70.0837 3.12139 66.3283 3.44944 61.6768 3.86562C60.3867 3.97824 59.028 4.11044 57.6497 4.2255L54.5455 3.34417C54.1836 3.24206 53.8066 3.20395 53.4316 3.23156L51.2478 3.39314L53.3508 4.6172L47.2305 5.17292C46.5302 5.11914 45.8466 4.93306 45.2157 4.62454C44.7223 4.385 44.2883 4.03882 43.9451 3.61102C43.524 3.06998 43.2107 2.66115 42.9952 2.36003L42.9781 2.338L42.8997 2.22783L42.8214 2.12256L42.8067 2.10053L42.7504 2.02219L42.7382 2.00505L42.6868 1.93161L42.5399 1.71862L42.5227 1.69169V1.677L41.5949 1.75289L40.9364 1.80675L41.5508 5.62093V5.68213V5.71395C41.5597 5.81414 41.5811 5.91283 41.6145 6.00773C41.7772 6.48709 42.0799 6.90665 42.4836 7.2122C42.9324 7.55727 43.4412 7.81624 43.9843 7.97602C44.9439 8.28203 46.283 8.46564 48.1461 8.34813L58.0806 7.42519L56.1221 9.40817H56.9103C57.2907 9.41098 57.6683 9.34376 58.0242 9.20987L64.3747 6.83275L74.3948 5.87553C74.3948 5.87553 74.9604 5.68213 75.0926 5.21209C75.1244 5.09121 75.1269 4.96448 75.0999 4.84242Z" fill="black"/>
</g>
<g id="plane-3">
<path id="Vector_114" d="M94.4841 44.5582L93.3727 44.426L90.5378 44.0833L90.2391 46.5803L93.7105 46.9965L94.1855 47.0528L94.4841 44.5582Z" fill="#CB2449"/>
<path id="Vector_115" opacity="0.7" d="M94.4841 44.5582L93.3727 44.426L90.5378 44.0833L90.2391 46.5803L93.7105 46.9965L94.1855 47.0528L94.4841 44.5582Z" fill="black"/>
<path id="Vector_116" d="M83.3966 40.825L83.0538 43.2266L86.398 43.704L86.8582 43.7701L87.1985 41.366L84.6818 41.0062L83.3966 40.825Z" fill="#CB2449"/>
<path id="Vector_117" opacity="0.7" d="M83.3966 40.825L83.0538 43.2266L86.398 43.704L86.8582 43.7701L87.1985 41.366L84.6818 41.0062L83.3966 40.825Z" fill="black"/>
<path id="Vector_118" d="M102.343 33.6199C102.323 33.5272 102.277 33.4422 102.21 33.3751L102.135 33.2967C101.865 33.0738 101.565 32.8901 101.243 32.7508L101.119 32.6945C100.807 32.5559 100.486 32.4381 100.159 32.342C99.7797 32.2229 99.3877 32.1498 98.9911 32.1241H98.9054C98.5088 32.1241 95.5858 32.2636 91.9675 32.4424L88.8339 32.599L86.4518 31.8254C86.1727 31.7327 85.8792 31.6905 85.5852 31.7006L83.8887 31.7593L85.4799 32.7729L80.7086 33.0177C80.1671 32.9547 79.6427 32.7885 79.1638 32.528C78.7887 32.3277 78.4626 32.0468 78.209 31.7055C77.8981 31.2722 77.6729 30.9466 77.5113 30.7066L77.4991 30.6871L77.4403 30.6014L77.3865 30.5157L77.3742 30.4985L77.3326 30.4349V30.4227L77.2934 30.3639C77.2445 30.2856 77.2077 30.2317 77.1882 30.195L77.1759 30.1729V30.1607L76.4415 30.1901L75.9298 30.2121L76.2897 33.189V33.2355V33.2674C76.2932 33.3454 76.3063 33.4227 76.3289 33.4975C76.4422 33.8735 76.6646 34.2075 76.9678 34.4572C77.3047 34.739 77.6906 34.9565 78.1062 35.0986C78.8406 35.363 79.8737 35.5417 81.323 35.5147L89.0517 35.1035L87.4776 36.5723L88.0872 36.6017C88.3826 36.6147 88.6778 36.574 88.9587 36.4818L93.9553 34.8342L101.775 34.418C101.898 34.3809 102.011 34.318 102.108 34.2336C102.204 34.1492 102.282 34.0451 102.335 33.9284C102.365 33.828 102.368 33.7215 102.343 33.6199Z" fill="#CB2449"/>
<path id="Vector_119" opacity="0.7" d="M102.343 33.6199C102.323 33.5272 102.277 33.4422 102.21 33.3751L102.135 33.2967C101.865 33.0738 101.565 32.8901 101.243 32.7508L101.119 32.6945C100.807 32.5559 100.486 32.4381 100.159 32.342C99.7797 32.2229 99.3877 32.1498 98.9911 32.1241H98.9054C98.5088 32.1241 95.5858 32.2636 91.9675 32.4424L88.8339 32.599L86.4518 31.8254C86.1727 31.7327 85.8792 31.6905 85.5852 31.7006L83.8887 31.7593L85.4799 32.7729L80.7086 33.0177C80.1671 32.9547 79.6427 32.7885 79.1638 32.528C78.7887 32.3277 78.4626 32.0468 78.209 31.7055C77.8981 31.2722 77.6729 30.9466 77.5113 30.7066L77.4991 30.6871L77.4403 30.6014L77.3865 30.5157L77.3742 30.4985L77.3326 30.4349V30.4227L77.2934 30.3639C77.2445 30.2856 77.2077 30.2317 77.1882 30.195L77.1759 30.1729V30.1607L76.4415 30.1901L75.9298 30.2121L76.2897 33.189V33.2355V33.2674C76.2932 33.3454 76.3063 33.4227 76.3289 33.4975C76.4422 33.8735 76.6646 34.2075 76.9678 34.4572C77.3047 34.739 77.6906 34.9565 78.1062 35.0986C78.8406 35.363 79.8737 35.5417 81.323 35.5147L89.0517 35.1035L87.4776 36.5723L88.0872 36.6017C88.3826 36.6147 88.6778 36.574 88.9587 36.4818L93.9553 34.8342L101.775 34.418C101.898 34.3809 102.011 34.318 102.108 34.2336C102.204 34.1492 102.282 34.0451 102.335 33.9284C102.365 33.828 102.368 33.7215 102.343 33.6199Z" fill="black"/>
<path id="Vector_120" d="M87.0051 41.7602L86.9366 35.0328L83.47 41.1188" stroke="#CB2449" stroke-width="0.5" stroke-linecap="round" stroke-linejoin="round"/>
<path id="Vector_121" d="M94.4058 44.7201L94.2981 34.5212L90.6185 44.2378" stroke="#CB2449" stroke-width="0.5" stroke-linecap="round" stroke-linejoin="round"/>
</g>
</g>
</svg>
