<svg width="28" height="28" viewBox="0 0 28 28" fill="none" xmlns="http://www.w3.org/2000/svg">
<g id="streamline:interface-help-question-circle-circle-faq-frame-help-info-mark-more-query-question" clip-path="url(#clip0_366_1312)">
<path id="Vector" d="M14 27C21.1797 27 27 21.1797 27 14C27 6.8203 21.1797 1 14 1C6.8203 1 1 6.8203 1 14C1 21.1797 6.8203 27 14 27Z" stroke="white" stroke-linecap="round" stroke-linejoin="round"/>
<path id="Vector_2" d="M11 11C11 10.4067 11.1759 9.82664 11.5056 9.33329C11.8352 8.83994 12.3038 8.45543 12.8519 8.22836C13.4001 8.0013 14.0033 7.94189 14.5853 8.05765C15.1672 8.1734 15.7018 8.45912 16.1213 8.87868C16.5409 9.29824 16.8266 9.83279 16.9424 10.4147C17.0581 10.9967 16.9987 11.5999 16.7716 12.1481C16.5446 12.6962 16.1601 13.1648 15.6667 13.4944C15.1734 13.8241 14.5933 14 14 14V16" stroke="white" stroke-linecap="round" stroke-linejoin="round"/>
<path id="Vector_3" d="M14 19C13.7033 19 13.4133 19.088 13.1666 19.2528C12.92 19.4176 12.7277 19.6519 12.6142 19.926C12.5006 20.2001 12.4709 20.5017 12.5288 20.7926C12.5867 21.0836 12.7296 21.3509 12.9393 21.5607C13.1491 21.7704 13.4164 21.9133 13.7074 21.9712C13.9983 22.0291 14.2999 21.9993 14.574 21.8858C14.8481 21.7723 15.0824 21.58 15.2472 21.3334C15.412 21.0867 15.5 20.7967 15.5 20.5C15.4948 20.1038 15.3351 19.7253 15.0549 19.4451C14.7747 19.1649 14.3962 19.0052 14 19Z" fill="white"/>
</g>
<defs>
<clipPath id="clip0_366_1312">
<rect width="28" height="28" fill="white"/>
</clipPath>
</defs>
</svg>
