<svg width="227" height="56" viewBox="0 0 227 56" fill="none" xmlns="http://www.w3.org/2000/svg">
<g id="gokada">
<path id="Vector" d="M111.932 28.8676C111.932 34.8174 107.321 39.1947 100.933 39.1947C94.5441 39.1947 89.9326 34.8514 89.9326 28.8676C89.9326 22.8837 94.5441 18.6679 100.933 18.6679C107.321 18.6679 111.932 22.9517 111.932 28.8676ZM96.778 28.8676C96.7131 30.0634 97.1214 31.2365 97.9139 32.1313C98.7064 33.0261 99.8188 33.5699 101.009 33.6444C103.285 33.6444 105.112 31.613 105.112 28.8676C105.112 26.1221 103.285 24.1502 101.009 24.1502C100.419 24.1783 99.8402 24.3241 99.3068 24.5791C98.7735 24.8341 98.296 25.1932 97.9023 25.6354C97.5085 26.0777 97.2063 26.5942 97.0132 27.155C96.8202 27.7157 96.7402 28.3094 96.778 28.9016V28.8676ZM128.618 32.021L126.655 34.1884V38.9142H120.047V18.8634H126.655V25.8077L132.578 18.8634H140.194L133.069 26.9296L140.617 38.9142H132.731L128.618 32.021ZM154.468 36.0753L153.444 38.9142H146.675L155.137 18.8634H161.906L170.02 38.9142H162.955L161.957 36.0753H154.468ZM158.284 25.4677L156.177 31.341H160.332L158.284 25.4677ZM186.326 18.8634C192.909 18.8634 197.182 22.7817 197.182 28.8676C197.182 34.9534 192.824 38.9142 186.072 38.9142H177.424V18.8634H186.326ZM184.024 33.7634H186.503C188.89 33.7634 190.43 31.8765 190.43 28.9271C190.43 25.9776 188.737 24.0057 186.199 24.0057H184.024V33.7634ZM211.414 36.0753L210.424 38.9142H203.655L212.116 18.8634H218.885L227 38.9142H219.901L218.885 36.0753H211.414ZM215.23 25.4677L213.123 31.341H217.278L215.23 25.4677Z" fill="#969696"/>
<g id="Group">
<path id="Vector_2" fill-rule="evenodd" clip-rule="evenodd" d="M70.2597 28.5276C70.2261 29.0431 70.3024 29.5598 70.4836 30.0433C70.6647 30.5268 70.9465 30.9659 71.3102 31.3312C71.6739 31.6965 72.1109 31.9796 72.5923 32.1615C73.0736 32.3435 73.588 32.4202 74.1012 32.3864H78.0696V29.2755C78.0696 29.111 78.1347 28.9531 78.2505 28.8368C78.3664 28.7204 78.5235 28.655 78.6873 28.655H83.6457C83.8096 28.655 83.9667 28.7204 84.0825 28.8368C84.1983 28.9531 84.2634 29.111 84.2634 29.2755V37.9878C84.2634 38.1523 84.1983 38.3101 84.0825 38.4265C83.9667 38.5429 83.8096 38.6082 83.6457 38.6082H74.3381C71.9751 38.6446 69.6672 37.8901 67.7783 36.4635C65.8893 35.0369 64.5267 33.0194 63.9051 30.729C63.5328 29.1909 63.5113 27.5882 63.8422 26.0405C64.1731 24.4929 64.8479 23.0404 65.8161 21.7915C66.7843 20.5427 68.021 19.5297 69.4337 18.8284C70.8463 18.1271 72.3985 17.7555 73.9743 17.7414C75.3405 17.7256 76.6953 17.9937 77.9534 18.5291C79.2115 19.0645 80.3458 19.8554 81.285 20.8523L76.8258 25.3316C75.3789 23.6912 70.3781 23.8867 70.2597 28.5276Z" fill="#969696"/>
<path id="Vector_3" fill-rule="evenodd" clip-rule="evenodd" d="M25.6254 51.9018C30.2447 51.9018 34.7602 50.5257 38.6009 47.9476C42.4416 45.3695 45.4349 41.7052 47.2022 37.4181C48.9695 33.131 49.4315 28.4136 48.5297 23.8628C47.6279 19.3119 45.4029 15.1318 42.136 11.8513C38.869 8.57084 34.707 6.33724 30.1763 5.43301C25.6456 4.52879 20.9497 4.99458 16.6825 6.77146C12.4153 8.54834 8.76856 11.5565 6.20345 15.4155C3.63833 19.2744 2.27009 23.8109 2.27176 28.4511C2.27176 31.5314 2.87588 34.5815 4.04962 37.4272C5.22335 40.273 6.9437 42.8585 9.1124 45.0363C11.2811 47.214 13.8557 48.9412 16.689 50.1192C19.5224 51.2972 22.559 51.9029 25.6254 51.9018Z" fill="#969696"/>
<path id="Vector_4" fill-rule="evenodd" clip-rule="evenodd" d="M22.1731 28.0686C22.1433 28.5318 22.2121 28.996 22.3751 29.4303C22.538 29.8647 22.7913 30.2591 23.118 30.5873C23.4447 30.9155 23.8374 31.1699 24.2698 31.3336C24.7022 31.4973 25.1643 31.5664 25.6254 31.5365H29.1792V28.7401C29.1814 28.592 29.241 28.4505 29.3452 28.3458C29.4495 28.2411 29.5903 28.1813 29.7377 28.1791H34.1884C34.3351 28.1813 34.4749 28.2414 34.5779 28.3464C34.6808 28.4513 34.7384 28.5927 34.7384 28.7401V36.5598C34.7384 36.7071 34.6808 36.8486 34.5779 36.9535C34.4749 37.0585 34.3351 37.1186 34.1884 37.1208H25.8116C23.6905 37.1519 21.6195 36.4729 19.925 35.1909C18.2306 33.9089 17.0091 32.0969 16.4532 30.0405C16.1109 28.6558 16.0863 27.211 16.3813 25.8153C16.6762 24.4196 17.283 23.1095 18.1558 21.9839C19.0286 20.8582 20.1447 19.9465 21.4196 19.3176C22.6945 18.6887 24.0951 18.359 25.5154 18.3534C26.7407 18.3392 27.9557 18.5795 29.0841 19.0592C30.2126 19.539 31.2302 20.2478 32.0731 21.1413L28.0708 25.1617C26.81 23.6912 22.2831 23.9037 22.1731 28.0686Z" fill="white"/>
</g>
</g>
</svg>
