<svg width="123" height="92" viewBox="0 0 123 92" fill="none" xmlns="http://www.w3.org/2000/svg">
<g id="container-ship/rafiki">
<g id="background-complete">
<path id="Vector" d="M122.57 79.9773H0.430023V80.0384H122.57V79.9773Z" fill="#EBEBEB"/>
<path id="Vector_2" d="M110.332 83.9077H102.241V83.9688H110.332V83.9077Z" fill="#EBEBEB"/>
<path id="Vector_3" d="M81.3404 84.5721H79.2177V84.6332H81.3404V84.5721Z" fill="#EBEBEB"/>
<path id="Vector_4" d="M101.997 81.6407H97.309V81.7018H101.997V81.6407Z" fill="#EBEBEB"/>
<path id="Vector_5" d="M23.7954 82.0511H13.2449V82.1122H23.7954V82.0511Z" fill="#EBEBEB"/>
<path id="Vector_6" d="M27.5182 82.0511H25.9719V82.1122H27.5182V82.0511Z" fill="#EBEBEB"/>
<path id="Vector_7" d="M55.4297 83.082H32.5455V83.1431H55.4297V83.082Z" fill="#EBEBEB"/>
<path id="Vector_8" d="M58.3244 69.0824H11.1563C10.7868 69.0817 10.4327 68.9345 10.1716 68.673C9.91057 68.4114 9.76395 68.057 9.76395 67.6875V1.38262C9.76716 1.01523 9.9152 0.663948 10.1759 0.405069C10.4366 0.146191 10.7889 0.00062936 11.1563 0H58.3244C58.6943 0 59.0491 0.146956 59.3106 0.408539C59.5722 0.670122 59.7192 1.0249 59.7192 1.39484V67.6875C59.7192 68.0575 59.5722 68.4122 59.3106 68.6738C59.0491 68.9354 58.6943 69.0824 58.3244 69.0824ZM11.1563 0.0488562C10.803 0.0495033 10.4644 0.19031 10.2148 0.44037C9.9652 0.69043 9.82502 1.02931 9.82502 1.38262V67.6875C9.82502 68.0408 9.9652 68.3797 10.2148 68.6298C10.4644 68.8798 10.803 69.0206 11.1563 69.0213H58.3244C58.6779 69.0206 59.0168 68.8799 59.2668 68.6299C59.5167 68.3799 59.6575 68.0411 59.6581 67.6875V1.38262C59.6575 1.02909 59.5167 0.690211 59.2668 0.440221C59.0168 0.190231 58.6779 0.0495019 58.3244 0.0488562H11.1563Z" fill="#EBEBEB"/>
<path id="Vector_9" d="M111.165 69.0824H63.9941C63.6243 69.0817 63.2699 68.9346 63.0085 68.6731C62.7471 68.4117 62.5999 68.0573 62.5992 67.6875V1.38262C62.6031 1.01501 62.7517 0.663727 63.0128 0.404917C63.2739 0.146106 63.6264 0.000622496 63.9941 0H111.165C111.532 0.00127135 111.883 0.147117 112.143 0.405927C112.404 0.664736 112.551 1.01566 112.554 1.38262V67.6875C112.554 68.0566 112.408 68.4107 112.148 68.6721C111.887 68.9335 111.534 69.0811 111.165 69.0824ZM63.9941 0.0488562C63.6405 0.0495019 63.3017 0.190231 63.0517 0.440221C62.8017 0.690211 62.661 1.02909 62.6603 1.38262V67.6875C62.661 68.0411 62.8017 68.3799 63.0517 68.6299C63.3017 68.8799 63.6405 69.0206 63.9941 69.0213H111.165C111.518 69.0206 111.857 68.8799 112.107 68.6299C112.357 68.3799 112.498 68.0411 112.498 67.6875V1.38262C112.498 1.02909 112.357 0.690211 112.107 0.440221C111.857 0.190231 111.518 0.0495019 111.165 0.0488562H63.9941Z" fill="#EBEBEB"/>
<path id="Vector_10" opacity="0.4" d="M122.57 64.0013V79.9772H0.430023V64.0013C3.86216 64.5656 4.91745 65.9262 10.0229 65.9262C16.4572 65.9213 16.4572 63.757 22.9038 63.757C29.3503 63.757 29.3381 65.9189 35.7724 65.9189C42.2068 65.9189 42.2019 63.757 48.6338 63.757C55.0657 63.757 55.0681 65.9189 61.5024 65.9189C67.9368 65.9189 67.9368 63.757 74.3736 63.757C80.8103 63.757 80.8079 65.9189 87.2422 65.9189C93.6766 65.9189 93.6766 63.757 100.111 63.757C106.545 63.757 106.548 65.9189 112.982 65.9189C118.085 65.9213 119.15 64.5631 122.57 64.0013Z" fill="#E0E0E0"/>
<path id="Vector_11" d="M68.9041 27.4986H14.1366C14.1366 27.4986 16.6307 23.1016 21.3844 23.1016C26.138 23.1016 21.6799 25.5444 25.3637 25.5444C29.0474 25.5444 32.8484 17.6443 44.5494 17.6443C56.2504 17.6443 46.5696 23.5852 52.6278 23.5852C58.6859 23.5852 78.0817 18.321 68.9041 27.4986Z" fill="#FAFAFA"/>
<path id="Vector_12" d="M110.393 34.5363H83.0089C83.0089 34.5363 84.2571 32.3377 86.634 32.3377C89.0108 32.3377 86.7805 33.5591 88.6224 33.5591C90.4643 33.5591 92.3648 29.6091 98.2153 29.6091C104.066 29.6091 99.2266 32.5796 102.256 32.5796C105.285 32.5796 114.983 29.9462 110.393 34.5363Z" fill="#FAFAFA"/>
<path id="Vector_13" d="M56.6804 11.0561C58.9912 11.0561 56.8245 12.2408 58.6151 12.2408C60.4056 12.2408 62.2597 8.39585 67.9539 8.39585C73.5503 8.39585 69.3267 11.6668 71.9796 11.7791H72.1237C74.7815 11.7791 77.5248 6.08008 85.9646 6.08008C94.4045 6.08008 87.4303 10.3647 91.7907 10.3647C96.1511 10.3647 110.153 6.57597 103.533 13.1911H53.153C53.153 13.1911 54.367 11.0561 56.6804 11.0561Z" fill="#FAFAFA"/>
<path id="Vector_14" d="M24.7505 9.2827C24.3747 9.13224 23.9842 9.02171 23.5853 8.95293C23.1817 8.88695 22.7718 8.8681 22.3639 8.89674C22.0595 8.92142 21.7579 8.97292 21.4625 9.05064C21.2565 8.8064 21.031 8.57929 20.7883 8.37154C20.1505 7.83041 19.3991 7.43969 18.5898 7.22831C18.21 7.12255 17.8186 7.0643 17.4246 7.05487C17.8018 7.15919 18.1651 7.30845 18.5067 7.49946C18.8485 7.68293 19.1703 7.90152 19.4667 8.15169C20.0566 8.65008 20.5295 9.27225 20.8518 9.97402L21.0741 10.4626L21.4967 10.2012C22.1202 9.81112 22.8297 9.57964 23.5633 9.52698C23.9392 9.50024 24.3168 9.51498 24.6894 9.57095C25.0731 9.62593 25.4487 9.7268 25.8082 9.87142C25.4801 9.63424 25.125 9.43663 24.7505 9.2827Z" fill="#E0E0E0"/>
<path id="Vector_15" d="M32.3452 14.0558C32.0308 13.9857 31.7097 13.9496 31.3876 13.9484C31.0584 13.9484 30.7304 13.9878 30.4105 14.0656C30.1747 14.126 29.945 14.2078 29.7241 14.3099C29.53 14.1458 29.3233 13.9972 29.106 13.8653C28.8161 13.6929 28.5081 13.5528 28.1875 13.4476C27.8788 13.3484 27.5602 13.2829 27.2373 13.2522C26.9251 13.2199 26.6101 13.2257 26.2993 13.2693C26.6084 13.2991 26.9127 13.3663 27.2055 13.4696C27.4985 13.5681 27.7802 13.6975 28.0459 13.8555C28.5734 14.1714 29.026 14.5982 29.3723 15.1063L29.6166 15.4531L29.9146 15.1918C30.354 14.8018 30.8825 14.5259 31.4536 14.3881C31.7458 14.3185 32.0448 14.2808 32.3452 14.2757C32.6531 14.2683 32.9607 14.2987 33.2612 14.3661C32.9693 14.2267 32.6618 14.1225 32.3452 14.0558Z" fill="#E0E0E0"/>
<path id="Vector_16" d="M101.513 19.7012C101.07 19.8186 100.641 19.9823 100.233 20.1898C99.8193 20.4087 99.4331 20.676 99.0825 20.9861C98.8242 21.2169 98.5871 21.4703 98.3741 21.7434C98.0206 21.6634 97.6611 21.6127 97.2992 21.592C96.3541 21.5408 95.4094 21.701 94.534 22.061C94.1179 22.228 93.7233 22.4445 93.359 22.7059C93.7698 22.5401 94.1986 22.4229 94.6366 22.3566C95.0726 22.2867 95.5147 22.2629 95.9557 22.2857C96.8312 22.3319 97.6859 22.5695 98.4596 22.9819L98.9872 23.2604L99.19 22.7327C99.487 21.9545 99.9691 21.2603 100.595 20.7101C100.917 20.4279 101.269 20.1822 101.645 19.9773C102.031 19.7656 102.441 19.6016 102.866 19.4887C102.409 19.5064 101.954 19.5777 101.513 19.7012Z" fill="#E0E0E0"/>
</g>
<g id="Shadow">
<path id="path" d="M61.5 91.0089C87.6581 91.0089 108.863 89.7708 108.863 88.2436C108.863 86.7164 87.6581 85.4784 61.5 85.4784C35.3419 85.4784 14.1366 86.7164 14.1366 88.2436C14.1366 89.7708 35.3419 91.0089 61.5 91.0089Z" fill="#F5F5F5"/>
</g>
<g id="container-ship">
<path id="Vector_17" d="M34.2897 55.4417H45.0502V49.8647H34.2897V55.4417Z" fill="#FB8500"/>
<path id="Vector_18" opacity="0.4" d="M34.2897 55.4417H45.0502V49.8647H34.2897V55.4417Z" fill="#FAFAFA"/>
<path id="Vector_19" d="M34.2897 49.8623H31.5244V55.4392H34.2897V49.8623Z" fill="#FB8500"/>
<path id="Vector_20" opacity="0.4" d="M34.2897 49.8623H31.5244V55.4392H34.2897V49.8623Z" fill="#FAFAFA"/>
<path id="Vector_21" opacity="0.2" d="M34.2897 49.8623H31.5244V55.4392H34.2897V49.8623Z" fill="black"/>
<path id="Vector_22" opacity="0.2" d="M44.5983 55.2145H44.8694V50.092H44.5983V55.2145Z" fill="black"/>
<path id="Vector_23" opacity="0.2" d="M43.9998 55.2145H44.2709V50.092H43.9998V55.2145Z" fill="black"/>
<path id="Vector_24" opacity="0.2" d="M43.4062 55.2145H43.6773V50.092H43.4062V55.2145Z" fill="black"/>
<path id="Vector_25" opacity="0.2" d="M42.8101 55.2145H43.0813V50.092H42.8101V55.2145Z" fill="black"/>
<path id="Vector_26" opacity="0.2" d="M42.2141 55.2145H42.4853V50.092H42.2141V55.2145Z" fill="black"/>
<path id="Vector_27" opacity="0.2" d="M41.6205 55.2145H41.8916V50.092H41.6205V55.2145Z" fill="black"/>
<path id="Vector_28" opacity="0.2" d="M41.022 55.2145H41.2932V50.092H41.022V55.2145Z" fill="black"/>
<path id="Vector_29" opacity="0.2" d="M40.4284 55.2145H40.6996V50.092H40.4284V55.2145Z" fill="black"/>
<path id="Vector_30" opacity="0.2" d="M39.8324 55.2145H40.1035V50.092H39.8324V55.2145Z" fill="black"/>
<path id="Vector_31" opacity="0.2" d="M39.2363 55.2145H39.5075V50.092H39.2363V55.2145Z" fill="black"/>
<path id="Vector_32" opacity="0.2" d="M38.6427 55.2145H38.9139V50.092H38.6427V55.2145Z" fill="black"/>
<path id="Vector_33" opacity="0.2" d="M38.0442 55.2145H38.3154V50.092H38.0442V55.2145Z" fill="black"/>
<path id="Vector_34" opacity="0.2" d="M37.4506 55.2145H37.7218V50.092H37.4506V55.2145Z" fill="black"/>
<path id="Vector_35" opacity="0.2" d="M36.8546 55.2145H37.1257V50.092H36.8546V55.2145Z" fill="black"/>
<path id="Vector_36" opacity="0.2" d="M36.2585 55.2145H36.5297V50.092H36.2585V55.2145Z" fill="black"/>
<path id="Vector_37" opacity="0.2" d="M35.6649 55.2145H35.9361V50.092H35.6649V55.2145Z" fill="black"/>
<path id="Vector_38" opacity="0.2" d="M35.0665 55.2145H35.3376V50.092H35.0665V55.2145Z" fill="black"/>
<path id="Vector_39" opacity="0.2" d="M34.4704 55.2145H34.7416V50.092H34.4704V55.2145Z" fill="black"/>
<path id="Vector_40" d="M21.5431 55.4417H32.3037V49.8647H21.5431V55.4417Z" fill="#FB8500"/>
<path id="Vector_41" d="M21.5431 49.8623H18.7779V55.4392H21.5431V49.8623Z" fill="#FB8500"/>
<path id="Vector_42" opacity="0.2" d="M21.5431 49.8623H18.7779V55.4392H21.5431V49.8623Z" fill="black"/>
<path id="Vector_43" opacity="0.2" d="M31.8493 55.2145H32.1205V50.092H31.8493V55.2145Z" fill="black"/>
<path id="Vector_44" opacity="0.2" d="M31.2533 55.2145H31.5244V50.092H31.2533V55.2145Z" fill="black"/>
<path id="Vector_45" opacity="0.2" d="M30.6597 55.2145H30.9308V50.092H30.6597V55.2145Z" fill="black"/>
<path id="Vector_46" opacity="0.2" d="M30.0612 55.2145H30.3323V50.092H30.0612V55.2145Z" fill="black"/>
<path id="Vector_47" opacity="0.2" d="M29.4676 55.2145H29.7387V50.092H29.4676V55.2145Z" fill="black"/>
<path id="Vector_48" opacity="0.2" d="M28.8715 55.2145H29.1427V50.092H28.8715V55.2145Z" fill="black"/>
<path id="Vector_49" opacity="0.2" d="M28.2755 55.2145H28.5466V50.092H28.2755V55.2145Z" fill="black"/>
<path id="Vector_50" opacity="0.2" d="M27.6819 55.2145H27.953V50.092H27.6819V55.2145Z" fill="black"/>
<path id="Vector_51" opacity="0.2" d="M27.0834 55.2145H27.3546V50.092H27.0834V55.2145Z" fill="black"/>
<path id="Vector_52" opacity="0.2" d="M26.4874 55.2145H26.7585V50.092H26.4874V55.2145Z" fill="black"/>
<path id="Vector_53" opacity="0.2" d="M25.8938 55.2145H26.1649V50.092H25.8938V55.2145Z" fill="black"/>
<path id="Vector_54" opacity="0.2" d="M25.2977 55.2145H25.5689V50.092H25.2977V55.2145Z" fill="black"/>
<path id="Vector_55" opacity="0.2" d="M24.7041 55.2145H24.9753V50.092H24.7041V55.2145Z" fill="black"/>
<path id="Vector_56" opacity="0.2" d="M24.1056 55.2145H24.3768V50.092H24.1056V55.2145Z" fill="black"/>
<path id="Vector_57" opacity="0.2" d="M23.5096 55.2145H23.7807V50.092H23.5096V55.2145Z" fill="black"/>
<path id="Vector_58" opacity="0.2" d="M22.916 55.2145H23.1871V50.092H22.916V55.2145Z" fill="black"/>
<path id="Vector_59" opacity="0.2" d="M22.3199 55.2145H22.5911V50.092H22.3199V55.2145Z" fill="black"/>
<path id="Vector_60" opacity="0.2" d="M21.7263 55.2145H21.9975V50.092H21.7263V55.2145Z" fill="black"/>
<path id="Vector_61" d="M32.5333 61.0162H43.2938V55.4393H32.5333V61.0162Z" fill="#FB8500"/>
<path id="Vector_62" d="M32.5333 55.4393H29.768V61.0162H32.5333V55.4393Z" fill="#FB8500"/>
<path id="Vector_63" opacity="0.2" d="M32.5333 55.4393H29.768V61.0162H32.5333V55.4393Z" fill="black"/>
<path id="Vector_64" opacity="0.2" d="M42.8394 60.7889H43.1106V55.6664H42.8394V60.7889Z" fill="black"/>
<path id="Vector_65" opacity="0.2" d="M42.2434 60.7889H42.5146V55.6664H42.2434V60.7889Z" fill="black"/>
<path id="Vector_66" opacity="0.2" d="M41.6474 60.7889H41.9185V55.6664H41.6474V60.7889Z" fill="black"/>
<path id="Vector_67" opacity="0.2" d="M41.0538 60.7889H41.3249V55.6664H41.0538V60.7889Z" fill="black"/>
<path id="Vector_68" opacity="0.2" d="M40.4553 60.7889H40.7264V55.6664H40.4553V60.7889Z" fill="black"/>
<path id="Vector_69" opacity="0.2" d="M39.8617 60.7889H40.1328V55.6664H39.8617V60.7889Z" fill="black"/>
<path id="Vector_70" opacity="0.2" d="M39.2656 60.7889H39.5368V55.6664H39.2656V60.7889Z" fill="black"/>
<path id="Vector_71" opacity="0.2" d="M38.6696 60.7889H38.9408V55.6664H38.6696V60.7889Z" fill="black"/>
<path id="Vector_72" opacity="0.2" d="M38.076 60.7889H38.3472V55.6664H38.076V60.7889Z" fill="black"/>
<path id="Vector_73" opacity="0.2" d="M37.4775 60.7889H37.7487V55.6664H37.4775V60.7889Z" fill="black"/>
<path id="Vector_74" opacity="0.2" d="M36.8839 60.7889H37.1551V55.6664H36.8839V60.7889Z" fill="black"/>
<path id="Vector_75" opacity="0.2" d="M36.2879 60.7889H36.559V55.6664H36.2879V60.7889Z" fill="black"/>
<path id="Vector_76" opacity="0.2" d="M35.6918 60.7889H35.963V55.6664H35.6918V60.7889Z" fill="black"/>
<path id="Vector_77" opacity="0.2" d="M35.0982 60.7889H35.3694V55.6664H35.0982V60.7889Z" fill="black"/>
<path id="Vector_78" opacity="0.2" d="M34.4997 60.7889H34.7709V55.6664H34.4997V60.7889Z" fill="black"/>
<path id="Vector_79" opacity="0.2" d="M33.9037 60.7889H34.1749V55.6664H33.9037V60.7889Z" fill="black"/>
<path id="Vector_80" opacity="0.2" d="M33.3101 60.7889H33.5813V55.6664H33.3101V60.7889Z" fill="black"/>
<path id="Vector_81" opacity="0.2" d="M32.714 60.7889H32.9852V55.6664H32.714V60.7889Z" fill="black"/>
<path id="Vector_82" d="M20.5733 61.0162H31.3339V55.4393H20.5733V61.0162Z" fill="#FB8500"/>
<path id="Vector_83" opacity="0.4" d="M20.5733 61.0162H31.3339V55.4393H20.5733V61.0162Z" fill="#FAFAFA"/>
<path id="Vector_84" d="M20.5733 55.4393H17.8081V61.0162H20.5733V55.4393Z" fill="#FB8500"/>
<path id="Vector_85" opacity="0.4" d="M20.5733 55.4393H17.8081V61.0162H20.5733V55.4393Z" fill="#FAFAFA"/>
<path id="Vector_86" opacity="0.2" d="M20.5733 55.4393H17.8081V61.0162H20.5733V55.4393Z" fill="black"/>
<path id="Vector_87" opacity="0.2" d="M30.8795 60.7889H31.1507V55.6664H30.8795V60.7889Z" fill="black"/>
<path id="Vector_88" opacity="0.2" d="M30.2835 60.7889H30.5546V55.6664H30.2835V60.7889Z" fill="black"/>
<path id="Vector_89" opacity="0.2" d="M29.6874 60.7889H29.9586V55.6664H29.6874V60.7889Z" fill="black"/>
<path id="Vector_90" opacity="0.2" d="M29.0938 60.7889H29.365V55.6664H29.0938V60.7889Z" fill="black"/>
<path id="Vector_91" opacity="0.2" d="M28.4954 60.7889H28.7665V55.6664H28.4954V60.7889Z" fill="black"/>
<path id="Vector_92" opacity="0.2" d="M27.9017 60.7889H28.1729V55.6664H27.9017V60.7889Z" fill="black"/>
<path id="Vector_93" opacity="0.2" d="M27.3057 60.7889H27.5768V55.6664H27.3057V60.7889Z" fill="black"/>
<path id="Vector_94" opacity="0.2" d="M26.7097 60.7889H26.9808V55.6664H26.7097V60.7889Z" fill="black"/>
<path id="Vector_95" opacity="0.2" d="M26.1161 60.7889H26.3872V55.6664H26.1161V60.7889Z" fill="black"/>
<path id="Vector_96" opacity="0.2" d="M25.5176 60.7889H25.7887V55.6664H25.5176V60.7889Z" fill="black"/>
<path id="Vector_97" opacity="0.2" d="M24.924 60.7889H25.1951V55.6664H24.924V60.7889Z" fill="black"/>
<path id="Vector_98" opacity="0.2" d="M24.3279 60.7889H24.5991V55.6664H24.3279V60.7889Z" fill="black"/>
<path id="Vector_99" opacity="0.2" d="M23.7319 60.7889H24.003V55.6664H23.7319V60.7889Z" fill="black"/>
<path id="Vector_100" opacity="0.2" d="M23.1383 60.7889H23.4095V55.6664H23.1383V60.7889Z" fill="black"/>
<path id="Vector_101" opacity="0.2" d="M22.5398 60.7889H22.8109V55.6664H22.5398V60.7889Z" fill="black"/>
<path id="Vector_102" opacity="0.2" d="M21.9438 60.7889H22.2149V55.6664H21.9438V60.7889Z" fill="black"/>
<path id="Vector_103" opacity="0.2" d="M21.3502 60.7889H21.6213V55.6664H21.3502V60.7889Z" fill="black"/>
<path id="Vector_104" opacity="0.2" d="M20.7541 60.7889H21.0253V55.6664H20.7541V60.7889Z" fill="black"/>
<path id="Vector_105" d="M46.0151 30.144H40.9683V37.9805H46.0151V30.144Z" fill="#FB8500"/>
<path id="Vector_106" d="M46.0151 30.9404H40.9683V31.749H46.0151V30.9404Z" fill="white"/>
<path id="Vector_107" d="M46.0151 32.6821H40.9683V33.305H46.0151V32.6821Z" fill="white"/>
<path id="Vector_108" d="M36.4735 30.144H31.4267V37.9805H36.4735V30.144Z" fill="#FB8500"/>
<path id="Vector_109" d="M36.4735 30.9404H31.4267V31.749H36.4735V30.9404Z" fill="white"/>
<path id="Vector_110" d="M36.4735 32.6821H31.4267V33.305H36.4735V32.6821Z" fill="white"/>
<path id="Vector_111" d="M32.4673 41.2808H26.0721V61.0162H32.4673V41.2808Z" fill="#E0E0E0"/>
<path id="Vector_112" opacity="0.7" d="M31.114 43.9752H26.7829V44.4003H31.114V43.9752Z" fill="white"/>
<path id="Vector_113" opacity="0.7" d="M31.114 45.6241H26.7829V46.0492H31.114V45.6241Z" fill="white"/>
<path id="Vector_114" opacity="0.7" d="M31.114 47.2706H26.7829V47.6956H31.114V47.2706Z" fill="white"/>
<path id="Vector_115" opacity="0.7" d="M31.114 48.9169H26.7829V49.342H31.114V48.9169Z" fill="white"/>
<path id="Vector_116" opacity="0.7" d="M31.114 50.5635H26.7829V50.9885H31.114V50.5635Z" fill="white"/>
<path id="Vector_117" opacity="0.7" d="M31.114 52.2123H26.7829V52.6373H31.114V52.2123Z" fill="white"/>
<path id="Vector_118" opacity="0.7" d="M31.114 53.8588H26.7829V54.2838H31.114V53.8588Z" fill="white"/>
<path id="Vector_119" opacity="0.7" d="M31.114 55.5052H26.7829V55.9302H31.114V55.5052Z" fill="white"/>
<path id="Vector_120" d="M32.4673 61.0137H50.0823V41.2784H32.4673V61.0137Z" fill="#FAFAFA"/>
<g id="Group" opacity="0.8">
<path id="Vector_121" opacity="0.2" d="M34.639 43.45H34.4044V44.4271H34.639V43.45Z" fill="black"/>
<path id="Vector_122" opacity="0.2" d="M38.0149 43.45H37.7804V44.4271H38.0149V43.45Z" fill="black"/>
<path id="Vector_123" opacity="0.2" d="M41.3909 43.45H41.1564V44.4271H41.3909V43.45Z" fill="black"/>
<path id="Vector_124" opacity="0.2" d="M44.7668 43.45H44.5323V44.4271H44.7668V43.45Z" fill="black"/>
<path id="Vector_125" opacity="0.2" d="M48.1428 43.45H47.9083V44.4271H48.1428V43.45Z" fill="black"/>
<path id="Vector_126" opacity="0.2" d="M34.639 46.5427H34.4044V47.5198H34.639V46.5427Z" fill="black"/>
<path id="Vector_127" opacity="0.2" d="M38.0149 46.5427H37.7804V47.5198H38.0149V46.5427Z" fill="black"/>
<path id="Vector_128" opacity="0.2" d="M41.3909 46.5427H41.1564V47.5198H41.3909V46.5427Z" fill="black"/>
<path id="Vector_129" opacity="0.2" d="M44.7668 46.5427H44.5323V47.5198H44.7668V46.5427Z" fill="black"/>
<path id="Vector_130" opacity="0.2" d="M48.1428 46.5427H47.9083V47.5198H48.1428V46.5427Z" fill="black"/>
<path id="Vector_131" opacity="0.2" d="M34.639 49.6328H34.4044V50.6099H34.639V49.6328Z" fill="black"/>
<path id="Vector_132" opacity="0.2" d="M38.0149 49.6328H37.7804V50.6099H38.0149V49.6328Z" fill="black"/>
<path id="Vector_133" opacity="0.2" d="M41.3909 49.6328H41.1564V50.6099H41.3909V49.6328Z" fill="black"/>
<path id="Vector_134" opacity="0.2" d="M44.7668 49.6328H44.5323V50.6099H44.7668V49.6328Z" fill="black"/>
<path id="Vector_135" opacity="0.2" d="M48.1428 49.6328H47.9083V50.6099H48.1428V49.6328Z" fill="black"/>
<path id="Vector_136" opacity="0.2" d="M34.639 52.7254H34.4044V53.7025H34.639V52.7254Z" fill="black"/>
<path id="Vector_137" opacity="0.2" d="M38.0149 52.7254H37.7804V53.7025H38.0149V52.7254Z" fill="black"/>
<path id="Vector_138" opacity="0.2" d="M41.3909 52.7254H41.1564V53.7025H41.3909V52.7254Z" fill="black"/>
<path id="Vector_139" opacity="0.2" d="M44.7668 52.7254H44.5323V53.7025H44.7668V52.7254Z" fill="black"/>
<path id="Vector_140" opacity="0.2" d="M48.1428 52.7254H47.9083V53.7025H48.1428V52.7254Z" fill="black"/>
<path id="Vector_141" opacity="0.2" d="M34.639 55.8155H34.4044V56.7926H34.639V55.8155Z" fill="black"/>
<path id="Vector_142" opacity="0.2" d="M38.0149 55.8155H37.7804V56.7926H38.0149V55.8155Z" fill="black"/>
<path id="Vector_143" opacity="0.2" d="M41.3909 55.8155H41.1564V56.7926H41.3909V55.8155Z" fill="black"/>
<path id="Vector_144" opacity="0.2" d="M44.7668 55.8155H44.5323V56.7926H44.7668V55.8155Z" fill="black"/>
<path id="Vector_145" opacity="0.2" d="M48.1428 55.8155H47.9083V56.7926H48.1428V55.8155Z" fill="black"/>
<path id="Vector_146" opacity="0.2" d="M34.639 58.9081H34.4044V59.8853H34.639V58.9081Z" fill="black"/>
<path id="Vector_147" opacity="0.2" d="M38.0149 58.9081H37.7804V59.8853H38.0149V58.9081Z" fill="black"/>
<path id="Vector_148" opacity="0.2" d="M41.3909 58.9081H41.1564V59.8853H41.3909V58.9081Z" fill="black"/>
<path id="Vector_149" opacity="0.2" d="M44.7668 58.9081H44.5323V59.8853H44.7668V58.9081Z" fill="black"/>
<path id="Vector_150" opacity="0.2" d="M48.1428 58.9081H47.9083V59.8853H48.1428V58.9081Z" fill="black"/>
</g>
<path id="Vector_151" d="M33.4493 36.8568H28.1729V41.2783H33.4493V36.8568Z" fill="#E0E0E0"/>
<path id="Vector_152" d="M33.4494 41.2808H47.9791V36.8594H33.4494V41.2808Z" fill="#FAFAFA"/>
<g id="Vector_153" style="mix-blend-mode:multiply" opacity="0.1">
<path d="M28.1753 37.7437H47.9815V36.8594H28.1753V37.7437Z" fill="black"/>
</g>
<path id="Vector_154" opacity="0.2" d="M35.2473 38.4447H34.4485V39.2435H35.2473V38.4447Z" fill="black"/>
<path id="Vector_155" opacity="0.2" d="M36.4198 38.4447H35.621V39.2435H36.4198V38.4447Z" fill="black"/>
<path id="Vector_156" opacity="0.2" d="M37.5948 38.4447H36.796V39.2435H37.5948V38.4447Z" fill="black"/>
<path id="Vector_157" opacity="0.2" d="M38.7673 38.4447H37.9685V39.2435H38.7673V38.4447Z" fill="black"/>
<path id="Vector_158" opacity="0.2" d="M39.9398 38.4447H39.1411V39.2435H39.9398V38.4447Z" fill="black"/>
<path id="Vector_159" opacity="0.2" d="M41.1124 38.4447H40.3136V39.2435H41.1124V38.4447Z" fill="black"/>
<path id="Vector_160" opacity="0.2" d="M42.2874 38.4447H41.4886V39.2435H42.2874V38.4447Z" fill="black"/>
<path id="Vector_161" opacity="0.2" d="M43.4599 38.4447H42.6611V39.2435H43.4599V38.4447Z" fill="black"/>
<path id="Vector_162" opacity="0.2" d="M44.6325 38.4447H43.8337V39.2435H44.6325V38.4447Z" fill="black"/>
<path id="Vector_163" opacity="0.2" d="M45.805 38.4447H45.0062V39.2435H45.805V38.4447Z" fill="black"/>
<path id="Vector_164" opacity="0.2" d="M46.98 38.4447H46.1812V39.2435H46.98V38.4447Z" fill="black"/>
<path id="Vector_165" opacity="0.2" d="M35.2473 39.605H34.4485V40.4038H35.2473V39.605Z" fill="black"/>
<path id="Vector_166" opacity="0.2" d="M36.4198 39.605H35.621V40.4038H36.4198V39.605Z" fill="black"/>
<path id="Vector_167" opacity="0.2" d="M37.5948 39.605H36.796V40.4038H37.5948V39.605Z" fill="black"/>
<path id="Vector_168" opacity="0.2" d="M38.7673 39.605H37.9685V40.4038H38.7673V39.605Z" fill="black"/>
<path id="Vector_169" opacity="0.2" d="M39.9398 39.605H39.1411V40.4038H39.9398V39.605Z" fill="black"/>
<path id="Vector_170" opacity="0.2" d="M41.1124 39.605H40.3136V40.4038H41.1124V39.605Z" fill="black"/>
<path id="Vector_171" opacity="0.2" d="M42.2874 39.605H41.4886V40.4038H42.2874V39.605Z" fill="black"/>
<path id="Vector_172" opacity="0.2" d="M43.4599 39.605H42.6611V40.4038H43.4599V39.605Z" fill="black"/>
<path id="Vector_173" opacity="0.2" d="M44.6325 39.605H43.8337V40.4038H44.6325V39.605Z" fill="black"/>
<path id="Vector_174" opacity="0.2" d="M45.805 39.605H45.0062V40.4038H45.805V39.605Z" fill="black"/>
<path id="Vector_175" opacity="0.2" d="M46.98 39.605H46.1812V40.4038H46.98V39.605Z" fill="black"/>
<path id="Vector_176" d="M32.5821 34.3945H25.2342L26.3188 36.8569H32.5821V34.3945Z" fill="#E0E0E0"/>
<path id="Vector_177" d="M32.5822 34.3945H50.9178L49.8332 36.8569H32.5822V34.3945Z" fill="#FAFAFA"/>
<path id="Vector_178" d="M65.6894 61.0162H80.0799V55.4393H65.6894V61.0162Z" fill="#FB8500"/>
<path id="Vector_179" opacity="0.4" d="M65.6894 61.0162H80.0799V55.4393H65.6894V61.0162Z" fill="#FAFAFA"/>
<path id="Vector_180" d="M65.6894 55.4393H61.9935V61.0162H65.6894V55.4393Z" fill="#FB8500"/>
<path id="Vector_181" opacity="0.4" d="M65.6894 55.4393H61.9935V61.0162H65.6894V55.4393Z" fill="#FAFAFA"/>
<path id="Vector_182" opacity="0.2" d="M65.6894 55.4393H61.9935V61.0162H65.6894V55.4393Z" fill="black"/>
<path id="Vector_183" opacity="0.2" d="M79.4741 60.7889H79.8357V55.6664H79.4741V60.7889Z" fill="black"/>
<path id="Vector_184" opacity="0.2" d="M78.6778 60.7889H79.0393V55.6664H78.6778V60.7889Z" fill="black"/>
<path id="Vector_185" opacity="0.2" d="M77.8814 60.7889H78.243V55.6664H77.8814V60.7889Z" fill="black"/>
<path id="Vector_186" opacity="0.2" d="M77.0851 60.7889H77.4466V55.6664H77.0851V60.7889Z" fill="black"/>
<path id="Vector_187" opacity="0.2" d="M76.2887 60.7889H76.6502V55.6664H76.2887V60.7889Z" fill="black"/>
<path id="Vector_188" opacity="0.2" d="M75.4923 60.7889H75.8539V55.6664H75.4923V60.7889Z" fill="black"/>
<path id="Vector_189" opacity="0.2" d="M74.696 60.7889H75.0575V55.6664H74.696V60.7889Z" fill="black"/>
<path id="Vector_190" opacity="0.2" d="M73.8996 60.7889H74.2612V55.6664H73.8996V60.7889Z" fill="black"/>
<path id="Vector_191" opacity="0.2" d="M73.1033 60.7889H73.4648V55.6664H73.1033V60.7889Z" fill="black"/>
<path id="Vector_192" opacity="0.2" d="M72.307 60.7889H72.6685V55.6664H72.307V60.7889Z" fill="black"/>
<path id="Vector_193" opacity="0.2" d="M71.5106 60.7889H71.8721V55.6664H71.5106V60.7889Z" fill="black"/>
<path id="Vector_194" opacity="0.2" d="M70.7142 60.7889H71.0758V55.6664H70.7142V60.7889Z" fill="black"/>
<path id="Vector_195" opacity="0.2" d="M69.9179 60.7889H70.2794V55.6664H69.9179V60.7889Z" fill="black"/>
<path id="Vector_196" opacity="0.2" d="M69.1215 60.7889H69.4831V55.6664H69.1215V60.7889Z" fill="black"/>
<path id="Vector_197" opacity="0.2" d="M68.3252 60.7889H68.6867V55.6664H68.3252V60.7889Z" fill="black"/>
<path id="Vector_198" opacity="0.2" d="M67.5288 60.7889H67.8904V55.6664H67.5288V60.7889Z" fill="black"/>
<path id="Vector_199" opacity="0.2" d="M66.7325 60.7889H67.094V55.6664H66.7325V60.7889Z" fill="black"/>
<path id="Vector_200" opacity="0.2" d="M65.9361 60.7889H66.2977V55.6664H65.9361V60.7889Z" fill="black"/>
<path id="Vector_201" d="M48.6436 61.0162H63.0341V55.4393H48.6436V61.0162Z" fill="#FB8500"/>
<path id="Vector_202" d="M48.6436 55.4393H44.9476V61.0162H48.6436V55.4393Z" fill="#FB8500"/>
<path id="Vector_203" opacity="0.2" d="M48.6436 55.4393H44.9476V61.0162H48.6436V55.4393Z" fill="black"/>
<path id="Vector_204" opacity="0.2" d="M62.4283 60.7889H62.7898V55.6664H62.4283V60.7889Z" fill="black"/>
<path id="Vector_205" opacity="0.2" d="M61.6319 60.7889H61.9935V55.6664H61.6319V60.7889Z" fill="black"/>
<path id="Vector_206" opacity="0.2" d="M60.8355 60.7889H61.1971V55.6664H60.8355V60.7889Z" fill="black"/>
<path id="Vector_207" opacity="0.2" d="M60.0392 60.7889H60.4008V55.6664H60.0392V60.7889Z" fill="black"/>
<path id="Vector_208" opacity="0.2" d="M59.2428 60.7889H59.6044V55.6664H59.2428V60.7889Z" fill="black"/>
<path id="Vector_209" opacity="0.2" d="M58.4465 60.7889H58.808V55.6664H58.4465V60.7889Z" fill="black"/>
<path id="Vector_210" opacity="0.2" d="M57.6501 60.7889H58.0117V55.6664H57.6501V60.7889Z" fill="black"/>
<path id="Vector_211" opacity="0.2" d="M56.8538 60.7889H57.2153V55.6664H56.8538V60.7889Z" fill="black"/>
<path id="Vector_212" opacity="0.2" d="M56.0574 60.7889H56.4189V55.6664H56.0574V60.7889Z" fill="black"/>
<path id="Vector_213" opacity="0.2" d="M55.2611 60.7889H55.6226V55.6664H55.2611V60.7889Z" fill="black"/>
<path id="Vector_214" opacity="0.2" d="M54.4647 60.7889H54.8263V55.6664H54.4647V60.7889Z" fill="black"/>
<path id="Vector_215" opacity="0.2" d="M53.6684 60.7889H54.0299V55.6664H53.6684V60.7889Z" fill="black"/>
<path id="Vector_216" opacity="0.2" d="M52.872 60.7889H53.2336V55.6664H52.872V60.7889Z" fill="black"/>
<path id="Vector_217" opacity="0.2" d="M52.0757 60.7889H52.4372V55.6664H52.0757V60.7889Z" fill="black"/>
<path id="Vector_218" opacity="0.2" d="M51.2793 60.7889H51.6409V55.6664H51.2793V60.7889Z" fill="black"/>
<path id="Vector_219" opacity="0.2" d="M50.483 60.7889H50.8445V55.6664H50.483V60.7889Z" fill="black"/>
<path id="Vector_220" opacity="0.2" d="M49.6866 60.7889H50.0482V55.6664H49.6866V60.7889Z" fill="black"/>
<path id="Vector_221" opacity="0.2" d="M48.8903 60.7889H49.2518V55.6664H48.8903V60.7889Z" fill="black"/>
<path id="Vector_222" d="M63.3419 55.4417H77.7324V49.8647H63.3419V55.4417Z" fill="#FB8500"/>
<path id="Vector_223" d="M63.3394 49.8623H59.6435V55.4392H63.3394V49.8623Z" fill="#FB8500"/>
<path id="Vector_224" opacity="0.2" d="M63.3394 49.8623H59.6435V55.4392H63.3394V49.8623Z" fill="black"/>
<path id="Vector_225" opacity="0.2" d="M77.1242 55.2145H77.4857V50.092H77.1242V55.2145Z" fill="black"/>
<path id="Vector_226" opacity="0.2" d="M76.3278 55.2145H76.6893V50.092H76.3278V55.2145Z" fill="black"/>
<path id="Vector_227" opacity="0.2" d="M75.5314 55.2145H75.893V50.092H75.5314V55.2145Z" fill="black"/>
<path id="Vector_228" opacity="0.2" d="M74.7351 55.2145H75.0966V50.092H74.7351V55.2145Z" fill="black"/>
<path id="Vector_229" opacity="0.2" d="M73.9388 55.2145H74.3003V50.092H73.9388V55.2145Z" fill="black"/>
<path id="Vector_230" opacity="0.2" d="M73.1424 55.2145H73.5039V50.092H73.1424V55.2145Z" fill="black"/>
<path id="Vector_231" opacity="0.2" d="M72.346 55.2145H72.7076V50.092H72.346V55.2145Z" fill="black"/>
<path id="Vector_232" opacity="0.2" d="M71.5497 55.2145H71.9112V50.092H71.5497V55.2145Z" fill="black"/>
<path id="Vector_233" opacity="0.2" d="M70.7533 55.2145H71.1149V50.092H70.7533V55.2145Z" fill="black"/>
<path id="Vector_234" opacity="0.2" d="M69.957 55.2145H70.3185V50.092H69.957V55.2145Z" fill="black"/>
<path id="Vector_235" opacity="0.2" d="M69.1606 55.2145H69.5222V50.092H69.1606V55.2145Z" fill="black"/>
<path id="Vector_236" opacity="0.2" d="M68.3643 55.2145H68.7258V50.092H68.3643V55.2145Z" fill="black"/>
<path id="Vector_237" opacity="0.2" d="M67.5655 55.2145H67.927V50.092H67.5655V55.2145Z" fill="black"/>
<path id="Vector_238" opacity="0.2" d="M66.7691 55.2145H67.1307V50.092H66.7691V55.2145Z" fill="black"/>
<path id="Vector_239" opacity="0.2" d="M65.9728 55.2145H66.3343V50.092H65.9728V55.2145Z" fill="black"/>
<path id="Vector_240" opacity="0.2" d="M65.1764 55.2145H65.538V50.092H65.1764V55.2145Z" fill="black"/>
<path id="Vector_241" opacity="0.2" d="M64.3801 55.2145H64.7416V50.092H64.3801V55.2145Z" fill="black"/>
<path id="Vector_242" opacity="0.2" d="M63.5837 55.2145H63.9453V50.092H63.5837V55.2145Z" fill="black"/>
<path id="Vector_243" d="M47.3464 55.4417H61.7369V49.8647H47.3464V55.4417Z" fill="#FB8500"/>
<path id="Vector_244" opacity="0.4" d="M47.3464 55.4417H61.7369V49.8647H47.3464V55.4417Z" fill="#FAFAFA"/>
<path id="Vector_245" d="M47.3464 49.8623H43.6505V55.4392H47.3464V49.8623Z" fill="#FB8500"/>
<path id="Vector_246" opacity="0.4" d="M47.3464 49.8623H43.6505V55.4392H47.3464V49.8623Z" fill="#FAFAFA"/>
<path id="Vector_247" opacity="0.2" d="M47.3464 49.8623H43.6505V55.4392H47.3464V49.8623Z" fill="black"/>
<path id="Vector_248" opacity="0.2" d="M61.1311 55.2145H61.4927V50.092H61.1311V55.2145Z" fill="black"/>
<path id="Vector_249" opacity="0.2" d="M60.3348 55.2145H60.6963V50.092H60.3348V55.2145Z" fill="black"/>
<path id="Vector_250" opacity="0.2" d="M59.5384 55.2145H59.9V50.092H59.5384V55.2145Z" fill="black"/>
<path id="Vector_251" opacity="0.2" d="M58.7421 55.2145H59.1036V50.092H58.7421V55.2145Z" fill="black"/>
<path id="Vector_252" opacity="0.2" d="M57.9457 55.2145H58.3073V50.092H57.9457V55.2145Z" fill="black"/>
<path id="Vector_253" opacity="0.2" d="M57.1494 55.2145H57.5109V50.092H57.1494V55.2145Z" fill="black"/>
<path id="Vector_254" opacity="0.2" d="M56.353 55.2145H56.7146V50.092H56.353V55.2145Z" fill="black"/>
<path id="Vector_255" opacity="0.2" d="M55.5567 55.2145H55.9182V50.092H55.5567V55.2145Z" fill="black"/>
<path id="Vector_256" opacity="0.2" d="M54.7603 55.2145H55.1219V50.092H54.7603V55.2145Z" fill="black"/>
<path id="Vector_257" opacity="0.2" d="M53.964 55.2145H54.3255V50.092H53.964V55.2145Z" fill="black"/>
<path id="Vector_258" opacity="0.2" d="M53.1676 55.2145H53.5291V50.092H53.1676V55.2145Z" fill="black"/>
<path id="Vector_259" opacity="0.2" d="M52.3713 55.2145H52.7328V50.092H52.3713V55.2145Z" fill="black"/>
<path id="Vector_260" opacity="0.2" d="M51.5749 55.2145H51.9365V50.092H51.5749V55.2145Z" fill="black"/>
<path id="Vector_261" opacity="0.2" d="M50.7786 55.2145H51.1401V50.092H50.7786V55.2145Z" fill="black"/>
<path id="Vector_262" opacity="0.2" d="M49.9822 55.2145H50.3438V50.092H49.9822V55.2145Z" fill="black"/>
<path id="Vector_263" opacity="0.2" d="M49.1859 55.2145H49.5474V50.092H49.1859V55.2145Z" fill="black"/>
<path id="Vector_264" opacity="0.2" d="M48.3895 55.2145H48.751V50.092H48.3895V55.2145Z" fill="black"/>
<path id="Vector_265" opacity="0.2" d="M47.5931 55.2145H47.9547V50.092H47.5931V55.2145Z" fill="black"/>
<path id="Vector_266" d="M61.0285 56.7046H19.9333C19.9054 56.7001 19.8768 56.7012 19.8493 56.7079C19.8218 56.7146 19.7959 56.7268 19.7731 56.7436C19.7504 56.7604 19.7312 56.7816 19.7168 56.806C19.7023 56.8303 19.6929 56.8573 19.689 56.8854V61.1334C19.7008 61.1762 19.7264 61.2139 19.7617 61.2407C19.797 61.2676 19.8401 61.2821 19.8845 61.2821C19.9288 61.2821 19.9719 61.2676 20.0072 61.2407C20.0425 61.2139 20.0681 61.1762 20.0799 61.1334V57.0075H24.2717V61.1334C24.2835 61.1762 24.3091 61.2139 24.3443 61.2407C24.3796 61.2676 24.4228 61.2821 24.4671 61.2821C24.5115 61.2821 24.5546 61.2676 24.5899 61.2407C24.6252 61.2139 24.6507 61.1762 24.6626 61.1334V57.0075H28.8422V61.1334C28.854 61.1762 28.8795 61.2139 28.9148 61.2407C28.9501 61.2676 28.9933 61.2821 29.0376 61.2821C29.082 61.2821 29.1251 61.2676 29.1604 61.2407C29.1957 61.2139 29.2212 61.1762 29.233 61.1334V57.0075H33.4078V61.1334C33.4196 61.1762 33.4451 61.2139 33.4804 61.2407C33.5157 61.2676 33.5589 61.2821 33.6032 61.2821C33.6476 61.2821 33.6907 61.2676 33.726 61.2407C33.7613 61.2139 33.7868 61.1762 33.7986 61.1334V57.0075H37.9758V61.1334C37.9868 61.1772 38.0122 61.2161 38.0478 61.2439C38.0834 61.2717 38.1273 61.2868 38.1725 61.2868C38.2176 61.2868 38.2615 61.2717 38.2972 61.2439C38.3328 61.2161 38.3581 61.1772 38.3691 61.1334V57.0075H42.5463V61.1334C42.5581 61.1762 42.5836 61.2139 42.6189 61.2407C42.6542 61.2676 42.6974 61.2821 42.7417 61.2821C42.7861 61.2821 42.8292 61.2676 42.8645 61.2407C42.8998 61.2139 42.9253 61.1762 42.9371 61.1334V57.0075H47.1168V61.1334C47.1286 61.1762 47.1541 61.2139 47.1894 61.2407C47.2247 61.2676 47.2678 61.2821 47.3122 61.2821C47.3566 61.2821 47.3997 61.2676 47.435 61.2407C47.4703 61.2139 47.4958 61.1762 47.5076 61.1334V57.0075H51.6873V61.1334C51.6991 61.1762 51.7246 61.2139 51.7599 61.2407C51.7952 61.2676 51.8383 61.2821 51.8827 61.2821C51.927 61.2821 51.9702 61.2676 52.0055 61.2407C52.0408 61.2139 52.0663 61.1762 52.0781 61.1334V57.0075H56.2577V61.1334C56.2695 61.1762 56.2951 61.2139 56.3304 61.2407C56.3657 61.2676 56.4088 61.2821 56.4532 61.2821C56.4975 61.2821 56.5406 61.2676 56.5759 61.2407C56.6112 61.2139 56.6368 61.1762 56.6486 61.1334V57.0075H60.8258V61.1334C60.8376 61.1762 60.8631 61.2139 60.8984 61.2407C60.9337 61.2676 60.9768 61.2821 61.0212 61.2821C61.0655 61.2821 61.1087 61.2676 61.144 61.2407C61.1793 61.2139 61.2048 61.1762 61.2166 61.1334V56.8561C61.21 56.8118 61.1869 56.7717 61.1521 56.7436C61.1173 56.7156 61.0732 56.7017 61.0285 56.7046Z" fill="#FB8500"/>
<path id="Vector_267" opacity="0.6" d="M61.0285 56.7046H19.9333C19.9054 56.7001 19.8768 56.7012 19.8493 56.7079C19.8218 56.7146 19.7959 56.7268 19.7731 56.7436C19.7504 56.7604 19.7312 56.7816 19.7168 56.806C19.7023 56.8303 19.6929 56.8573 19.689 56.8854V61.1334C19.7008 61.1762 19.7264 61.2139 19.7617 61.2407C19.797 61.2676 19.8401 61.2821 19.8845 61.2821C19.9288 61.2821 19.9719 61.2676 20.0072 61.2407C20.0425 61.2139 20.0681 61.1762 20.0799 61.1334V57.0075H24.2717V61.1334C24.2835 61.1762 24.3091 61.2139 24.3443 61.2407C24.3796 61.2676 24.4228 61.2821 24.4671 61.2821C24.5115 61.2821 24.5546 61.2676 24.5899 61.2407C24.6252 61.2139 24.6507 61.1762 24.6626 61.1334V57.0075H28.8422V61.1334C28.854 61.1762 28.8795 61.2139 28.9148 61.2407C28.9501 61.2676 28.9933 61.2821 29.0376 61.2821C29.082 61.2821 29.1251 61.2676 29.1604 61.2407C29.1957 61.2139 29.2212 61.1762 29.233 61.1334V57.0075H33.4078V61.1334C33.4196 61.1762 33.4451 61.2139 33.4804 61.2407C33.5157 61.2676 33.5589 61.2821 33.6032 61.2821C33.6476 61.2821 33.6907 61.2676 33.726 61.2407C33.7613 61.2139 33.7868 61.1762 33.7986 61.1334V57.0075H37.9758V61.1334C37.9868 61.1772 38.0122 61.2161 38.0478 61.2439C38.0834 61.2717 38.1273 61.2868 38.1725 61.2868C38.2176 61.2868 38.2615 61.2717 38.2972 61.2439C38.3328 61.2161 38.3581 61.1772 38.3691 61.1334V57.0075H42.5463V61.1334C42.5581 61.1762 42.5836 61.2139 42.6189 61.2407C42.6542 61.2676 42.6974 61.2821 42.7417 61.2821C42.7861 61.2821 42.8292 61.2676 42.8645 61.2407C42.8998 61.2139 42.9253 61.1762 42.9371 61.1334V57.0075H47.1168V61.1334C47.1286 61.1762 47.1541 61.2139 47.1894 61.2407C47.2247 61.2676 47.2678 61.2821 47.3122 61.2821C47.3566 61.2821 47.3997 61.2676 47.435 61.2407C47.4703 61.2139 47.4958 61.1762 47.5076 61.1334V57.0075H51.6873V61.1334C51.6991 61.1762 51.7246 61.2139 51.7599 61.2407C51.7952 61.2676 51.8383 61.2821 51.8827 61.2821C51.927 61.2821 51.9702 61.2676 52.0055 61.2407C52.0408 61.2139 52.0663 61.1762 52.0781 61.1334V57.0075H56.2577V61.1334C56.2695 61.1762 56.2951 61.2139 56.3304 61.2407C56.3657 61.2676 56.4088 61.2821 56.4532 61.2821C56.4975 61.2821 56.5406 61.2676 56.5759 61.2407C56.6112 61.2139 56.6368 61.1762 56.6486 61.1334V57.0075H60.8258V61.1334C60.8376 61.1762 60.8631 61.2139 60.8984 61.2407C60.9337 61.2676 60.9768 61.2821 61.0212 61.2821C61.0655 61.2821 61.1087 61.2676 61.144 61.2407C61.1793 61.2139 61.2048 61.1762 61.2166 61.1334V56.8561C61.21 56.8118 61.1869 56.7717 61.1521 56.7436C61.1173 56.7156 61.0732 56.7017 61.0285 56.7046Z" fill="#FAFAFA"/>
<path id="Vector_268" d="M70.0009 61.0162C70.828 61.0161 71.6294 60.7285 72.2679 60.2027L79.8699 53.9418C80.509 53.4155 81.3113 53.1279 82.1392 53.1284H114.628C114.725 53.1288 114.82 53.1502 114.908 53.1912C114.995 53.2321 115.073 53.2916 115.135 53.3655C115.198 53.4394 115.243 53.5259 115.269 53.6191C115.294 53.7123 115.299 53.8099 115.283 53.9052C114.294 59.9584 112.447 63.9426 110.307 67.4407C109.972 67.9903 109.63 68.5278 109.284 69.0603L108.939 69.5806C108.578 70.1229 108.206 70.6603 107.85 71.2002C106.415 73.2478 105.086 75.3677 103.868 77.5515C102.596 79.9011 101.552 82.3674 100.751 84.9165C100.442 85.8834 99.8327 86.7268 99.0124 87.3249C98.1921 87.923 97.2029 88.2447 96.1877 88.2436H24.0543C22.9501 88.2442 21.8798 87.8622 21.0256 87.1625C20.1713 86.4628 19.5859 85.4887 19.369 84.406L17.9913 77.5393L16.7211 71.2002L16.3962 69.5806L16.2911 69.0603L15.9687 67.4407L14.8425 61.8027C14.8234 61.7065 14.8259 61.6073 14.8496 61.5122C14.8734 61.417 14.918 61.3283 14.9801 61.2524C15.0422 61.1765 15.1203 61.1153 15.2089 61.0732C15.2975 61.0311 15.3943 61.0091 15.4923 61.0088L70.0009 61.0162ZM104.738 55.8643C104.806 55.9341 104.888 55.9896 104.978 56.0273C105.068 56.0651 105.165 56.0844 105.263 56.0841H111.458C111.656 56.0841 111.846 56.0054 111.986 55.8652C112.126 55.725 112.205 55.5349 112.205 55.3367C112.205 55.1384 112.126 54.9483 111.986 54.8081C111.846 54.6679 111.656 54.5892 111.458 54.5892H105.251C105.052 54.5898 104.863 54.6688 104.723 54.8088C104.583 54.9488 104.504 55.1386 104.503 55.3367C104.504 55.4359 104.526 55.5338 104.566 55.6245C104.606 55.7152 104.665 55.7968 104.738 55.8643ZM91.627 54.809C91.4872 54.6687 91.2975 54.5896 91.0994 54.5892H84.8922C84.7441 54.5883 84.5992 54.6317 84.4758 54.7136C84.3525 54.7956 84.2563 54.9125 84.1997 55.0493C84.1431 55.1862 84.1285 55.3368 84.1579 55.482C84.1873 55.6271 84.2592 55.7602 84.3646 55.8643C84.4333 55.9344 84.5155 55.99 84.6061 56.0278C84.6967 56.0656 84.7941 56.0847 84.8922 56.0841H91.0872C91.2353 56.085 91.3803 56.0416 91.5036 55.9597C91.627 55.8777 91.7231 55.7608 91.7797 55.624C91.8363 55.4871 91.8509 55.3365 91.8215 55.1913C91.7922 55.0462 91.7202 54.9131 91.6148 54.809H91.627ZM101.806 54.809C101.737 54.7389 101.655 54.6833 101.565 54.6455C101.474 54.6077 101.377 54.5886 101.279 54.5892H95.0714C94.9233 54.5883 94.7783 54.6317 94.655 54.7136C94.5316 54.7956 94.4355 54.9125 94.3788 55.0493C94.3222 55.1862 94.3077 55.3368 94.337 55.482C94.3664 55.6271 94.4384 55.7602 94.5437 55.8643C94.6125 55.9344 94.6946 55.99 94.7852 56.0278C94.8759 56.0656 94.9732 56.0847 95.0714 56.0841H101.266C101.414 56.085 101.559 56.0416 101.683 55.9597C101.806 55.8777 101.902 55.7608 101.959 55.624C102.015 55.4871 102.03 55.3365 102.001 55.1913C101.971 55.0462 101.899 54.9131 101.794 54.809H101.806Z" fill="#FB8500"/>
<path id="Vector_269" opacity="0.3" d="M16.2911 69.0603L16.3962 69.5806L16.7211 71.2002H107.852C108.219 70.6603 108.585 70.1229 108.942 69.5806L109.286 69.0603H16.2911Z" fill="black"/>
<path id="Vector_270" opacity="0.3" d="M73.179 67.2356H83.5047C84.4423 67.2356 85.2025 66.4755 85.2025 65.5378V65.5354C85.2025 64.5978 84.4423 63.8377 83.5047 63.8377H73.179C72.2414 63.8377 71.4812 64.5978 71.4812 65.5354V65.5378C71.4812 66.4755 72.2414 67.2356 73.179 67.2356Z" fill="black"/>
<path id="Vector_271" opacity="0.3" d="M56.2602 67.2356H66.5859C67.5236 67.2356 68.2837 66.4755 68.2837 65.5378V65.5354C68.2837 64.5978 67.5236 63.8377 66.5859 63.8377H56.2602C55.3226 63.8377 54.5625 64.5978 54.5625 65.5354V65.5378C54.5625 66.4755 55.3226 67.2356 56.2602 67.2356Z" fill="black"/>
<path id="Vector_272" opacity="0.3" d="M90.0954 67.2356H100.421C101.359 67.2356 102.119 66.4755 102.119 65.5378V65.5354C102.119 64.5978 101.359 63.8377 100.421 63.8377H90.0954C89.1578 63.8377 88.3977 64.5978 88.3977 65.5354V65.5378C88.3977 66.4755 89.1578 67.2356 90.0954 67.2356Z" fill="black"/>
<path id="Vector_273" opacity="0.3" d="M100.753 84.9068C100.446 85.8759 99.8371 86.7218 99.0162 87.3217C98.1952 87.9217 97.2046 88.2446 96.1878 88.2436H24.0543C22.9501 88.2443 21.8798 87.8622 21.0256 87.1625C20.1713 86.4628 19.5859 85.4887 19.369 84.406L17.9913 77.5393H103.87C102.599 79.89 101.555 82.3571 100.753 84.9068Z" fill="black"/>
</g>
</g>
</svg>
