<svg width="28" height="28" viewBox="0 0 28 28" fill="none" xmlns="http://www.w3.org/2000/svg">
<g id="mdi:instagram">
<path id="Vector" d="M9.09998 2.3335H18.9C22.6333 2.3335 25.6666 5.36683 25.6666 9.10016V18.9002C25.6666 20.6948 24.9537 22.4159 23.6847 23.6849C22.4157 24.9539 20.6946 25.6668 18.9 25.6668H9.09998C5.36665 25.6668 2.33331 22.6335 2.33331 18.9002V9.10016C2.33331 7.30553 3.04623 5.5844 4.31522 4.31541C5.58422 3.04641 7.30535 2.3335 9.09998 2.3335ZM8.86665 4.66683C7.75274 4.66683 6.68445 5.10933 5.8968 5.89698C5.10915 6.68463 4.66665 7.75292 4.66665 8.86683V19.1335C4.66665 21.4552 6.54498 23.3335 8.86665 23.3335H19.1333C20.2472 23.3335 21.3155 22.891 22.1032 22.1033C22.8908 21.3157 23.3333 20.2474 23.3333 19.1335V8.86683C23.3333 6.54516 21.455 4.66683 19.1333 4.66683H8.86665ZM20.125 6.41683C20.5118 6.41683 20.8827 6.57048 21.1562 6.84397C21.4297 7.11746 21.5833 7.48839 21.5833 7.87516C21.5833 8.26194 21.4297 8.63287 21.1562 8.90636C20.8827 9.17985 20.5118 9.3335 20.125 9.3335C19.7382 9.3335 19.3673 9.17985 19.0938 8.90636C18.8203 8.63287 18.6666 8.26194 18.6666 7.87516C18.6666 7.48839 18.8203 7.11746 19.0938 6.84397C19.3673 6.57048 19.7382 6.41683 20.125 6.41683ZM14 8.16683C15.5471 8.16683 17.0308 8.78141 18.1248 9.87537C19.2187 10.9693 19.8333 12.4531 19.8333 14.0002C19.8333 15.5473 19.2187 17.031 18.1248 18.125C17.0308 19.2189 15.5471 19.8335 14 19.8335C12.4529 19.8335 10.9692 19.2189 9.87519 18.125C8.78123 17.031 8.16665 15.5473 8.16665 14.0002C8.16665 12.4531 8.78123 10.9693 9.87519 9.87537C10.9692 8.78141 12.4529 8.16683 14 8.16683ZM14 10.5002C13.0717 10.5002 12.1815 10.8689 11.5251 11.5253C10.8687 12.1817 10.5 13.0719 10.5 14.0002C10.5 14.9284 10.8687 15.8187 11.5251 16.475C12.1815 17.1314 13.0717 17.5002 14 17.5002C14.9282 17.5002 15.8185 17.1314 16.4749 16.475C17.1312 15.8187 17.5 14.9284 17.5 14.0002C17.5 13.0719 17.1312 12.1817 16.4749 11.5253C15.8185 10.8689 14.9282 10.5002 14 10.5002Z" fill="black"/>
</g>
</svg>
