<svg width="38" height="29" viewBox="0 0 38 29" fill="none" xmlns="http://www.w3.org/2000/svg">
<g id="Kenya (KE)" clip-path="url(#clip0_147_2179)">
<path id="Vector" d="M0 0H38V29H0V0Z" fill="white"/>
<path id="Vector_2" d="M0 0H38V8.7H0V0Z" fill="black"/>
<path id="Vector_3" d="M0 20.3H38V29H0V20.3Z" fill="#006600"/>
<g id="b">
<path id="Vector_4" d="M13.9056 23.1095L14.2263 23.2907L22.5447 8.60947C23.0256 8.50072 23.2928 8.02947 23.56 7.55822C23.7381 7.23197 24.4506 5.98135 24.7535 4.3501C23.9084 5.11423 23.1923 6.01432 22.6338 7.01447C22.3666 7.48572 22.0994 7.95697 22.2241 8.44635L13.9056 23.1095Z" fill="black" stroke="black" stroke-width="0.375" stroke-miterlimit="10"/>
<path id="Vector_5" d="M13.9056 23.1095L14.2263 23.2907L22.5447 8.60947C23.0256 8.50072 23.2928 8.02947 23.56 7.55822C23.7381 7.23197 24.4506 5.98135 24.7535 4.3501C23.9084 5.11423 23.1923 6.01432 22.6338 7.01447C22.3666 7.48572 22.0994 7.95697 22.2241 8.44635L13.9056 23.1095Z" fill="white"/>
</g>
<g id="Group">
<path id="Vector_6" d="M24.0944 23.1095L23.7737 23.2907L15.4553 8.60947C14.9744 8.50072 14.7072 8.02947 14.44 7.55822C14.2619 7.23197 13.5494 5.98135 13.2465 4.3501C14.0916 5.11423 14.8077 6.01432 15.3662 7.01447C15.6334 7.48572 15.9006 7.95697 15.7759 8.44635L24.0944 23.1095Z" fill="black" stroke="black" stroke-width="0.375" stroke-miterlimit="10"/>
<path id="Vector_7" d="M24.0944 23.1095L23.7737 23.2907L15.4553 8.60947C14.9744 8.50072 14.7072 8.02947 14.44 7.55822C14.2619 7.23197 13.5494 5.98135 13.2465 4.3501C14.0916 5.11423 14.8077 6.01432 15.3662 7.01447C15.6334 7.48572 15.9006 7.95697 15.7759 8.44635L24.0944 23.1095Z" fill="white"/>
</g>
<path id="Vector_8" d="M38.0297 10.15H22.3843C21.85 8.70005 20.0687 5.80005 19 5.80005C17.9312 5.80005 16.15 8.70005 15.6156 10.15H-0.0119019V18.85H15.6156C16.15 20.3 17.9312 23.2 19 23.2C20.0687 23.2 21.85 20.3 22.3843 18.85H38.0297V10.15Z" fill="#BB0000"/>
<path id="c" d="M22.3844 18.8499C22.9188 17.3999 23.275 15.9499 23.275 14.4999C23.275 13.0499 22.9188 11.5999 22.3844 10.1499C21.85 11.5999 21.4938 13.0499 21.4938 14.4999C21.4938 15.9499 21.85 17.3999 22.3844 18.8499Z" fill="black"/>
<path id="Vector_9" d="M15.6156 18.8499C15.0812 17.3999 14.725 15.9499 14.725 14.4999C14.725 13.0499 15.0812 11.5999 15.6156 10.1499C16.15 11.5999 16.5062 13.0499 16.5062 14.4999C16.5062 15.9499 16.15 17.3999 15.6156 18.8499Z" fill="black"/>
<g id="Group_2">
<path id="Vector_10" d="M19 15.5874C19.3935 15.5874 19.7125 15.1005 19.7125 14.4999C19.7125 13.8992 19.3935 13.4124 19 13.4124C18.6065 13.4124 18.2875 13.8992 18.2875 14.4999C18.2875 15.1005 18.6065 15.5874 19 15.5874Z" fill="white"/>
<path id="d" d="M19.1781 15.5513C19.1781 15.5513 19.8906 17.0013 19.8906 19.3575C19.8906 21.7138 19.1781 23.1638 19.1781 23.1638V15.5513Z" fill="white"/>
<path id="Vector_11" d="M18.8219 13.4487C18.8219 13.4487 18.1094 11.9987 18.1094 9.64248C18.1094 7.28623 18.8219 5.83623 18.8219 5.83623V13.4487Z" fill="white"/>
<path id="Vector_12" d="M18.8219 15.5513C18.8219 15.5513 18.1094 17.0013 18.1094 19.3575C18.1094 21.7138 18.8219 23.1638 18.8219 23.1638V15.5513Z" fill="white"/>
<path id="Vector_13" d="M19.1781 13.4487C19.1781 13.4487 19.8906 11.9987 19.8906 9.64248C19.8906 7.28623 19.1781 5.83623 19.1781 5.83623V13.4487Z" fill="white"/>
</g>
</g>
<defs>
<clipPath id="clip0_147_2179">
<rect width="38" height="29" fill="white"/>
</clipPath>
</defs>
</svg>
