<svg width="28" height="28" viewBox="0 0 28 28" fill="none" xmlns="http://www.w3.org/2000/svg">
<g id="system-uicons:mail">
<g id="Group">
<path id="Vector" fill-rule="evenodd" clip-rule="evenodd" d="M4.6665 8.66667V19.3333C4.6665 20.0406 4.94746 20.7189 5.44755 21.219C5.94765 21.719 6.62593 22 7.33317 22H20.6665C21.3737 22 22.052 21.719 22.5521 21.219C23.0522 20.7189 23.3332 20.0406 23.3332 19.3333V8.66667C23.3332 7.95942 23.0522 7.28115 22.5521 6.78105C22.052 6.28095 21.3737 6 20.6665 6H7.33317C6.62593 6 5.94765 6.28095 5.44755 6.78105C4.94746 7.28115 4.6665 7.95942 4.6665 8.66667Z" stroke="black" stroke-linecap="round" stroke-linejoin="round"/>
<path id="Vector_2" d="M7.33301 10L13.9997 14L20.6663 10" stroke="black" stroke-linecap="round" stroke-linejoin="round"/>
</g>
</g>
</svg>
