<svg width="46" height="46" viewBox="0 0 46 46" fill="none" xmlns="http://www.w3.org/2000/svg">
<g id="noto-v1:money-bag">
<path id="Vector" d="M24.5921 1.93347C24.9119 1.23269 25.5085 1.03504 26.0044 1.01347C26.7591 0.977536 27.5497 1.49863 28.2936 2.11316C28.8219 2.70972 29.4544 3.16972 30.1875 3.49316C30.6942 3.67285 31.1974 3.70879 31.7077 3.68363C32.4264 3.64769 33.156 3.48957 33.8783 3.45363L33.9178 3.45004L34.2449 3.42129C35.0714 3.38176 35.8513 3.57582 36.5916 4.00347C37.2708 4.6216 37.5691 5.39066 37.4757 6.31785C37.3175 7.08332 37.4541 7.7841 37.8817 8.42019C38.6185 8.93769 39.3911 9.3905 40.2033 9.77504C41.0442 10.235 41.5725 10.9286 41.8025 11.8522C41.8852 12.8297 41.4324 13.455 40.4549 13.7246C39.1827 14.0444 37.4721 14.0444 36.031 15.1585C33.925 16.9158 33.2638 18.6875 32.3474 18.9571C31.8982 18.4468 29.095 16.2797 24.3944 15.2411C23.5535 12.341 23.0432 5.34035 24.5921 1.93347Z" fill="#FFB703"/>
<path id="Vector_2" d="M29.3359 14.6229C30.1625 12.9698 32.5164 10.0625 33.0806 10.6375C33.6377 11.2628 32.3547 14.5115 31.4527 16.1036C31.1328 15.7658 30.1014 15.0578 29.6522 14.9392" fill="#D19B15"/>
<path id="Vector_3" d="M33.4938 19.9166C33.0087 19.9166 32.5343 19.6686 32.2648 19.223C29.7923 15.1549 24.1932 15.5825 24.1393 15.5897C23.3487 15.6544 22.6515 15.0722 22.5832 14.2852C22.5498 13.9066 22.6675 13.5302 22.9105 13.238C23.1535 12.9458 23.5022 12.7616 23.8806 12.7255C24.1824 12.6968 31.3088 12.111 34.7229 17.7352C35.1362 18.4144 34.917 19.2985 34.2413 19.7082C34.0041 19.8483 33.749 19.9166 33.4938 19.9166Z" fill="#8D6E63"/>
<path id="Vector_4" d="M34.5217 43.8689C28.3656 45.3855 19.8089 45.2777 13.6959 44.0702C7.97464 42.9382 3.59386 39.5636 4.09699 32.9224C4.6073 26.2021 9.05996 19.8735 15.1837 17.0847C21.1098 14.3858 29.0628 13.0705 33.2531 19.1943C34.2953 20.718 36.2862 24.0997 36.3796 25.76C36.3868 25.893 36.394 26.0116 36.4228 26.1266C36.43 26.5435 36.5989 26.9639 37.0085 27.273C39.6428 29.2675 41.5618 31.9125 41.914 35.5386C42.3309 39.8619 38.2412 42.9525 34.5217 43.8689Z" fill="#FFB703"/>
<path id="Vector_5" d="M29.0627 32.7499C28.3152 31.5352 26.9388 30.2163 25.6378 29.0842L26.6477 26.2883C27.5461 26.9891 28.3368 27.6467 28.9549 28.2145C29.0555 28.3116 29.2136 28.3188 29.3286 28.2361L31.643 26.5147C31.7077 26.4644 31.7472 26.3925 31.758 26.3099C31.7619 26.2695 31.7571 26.2288 31.7441 26.1904C31.7311 26.152 31.7101 26.1168 31.6825 26.087C30.9961 25.3216 29.5083 23.9811 27.8804 22.8778L28.4733 21.2391C28.5416 21.0522 28.4482 20.8474 28.2577 20.7755L25.5372 19.7908C25.3504 19.7225 25.1419 19.8195 25.0736 20.0064L24.6316 21.2319C22.0693 20.4377 20.0352 20.6928 18.4396 22.0261C17.1889 23.0755 16.6499 24.5741 17.0308 25.9325C17.4189 27.3808 18.5546 28.3727 19.9921 29.6269L20.1754 29.7886C20.5096 30.0761 20.8654 30.3744 21.2139 30.6727L19.9849 34.0724C18.3713 33.0158 17.02 31.5531 16.79 31.2333C16.7469 31.1739 16.6829 31.133 16.6109 31.119C16.5388 31.105 16.4641 31.1189 16.4019 31.1578L13.7354 32.8613C13.6707 32.9008 13.6239 32.9691 13.606 33.0481C13.5916 33.1236 13.606 33.2027 13.6491 33.2674C14.4505 34.4749 15.7622 35.8261 17.1602 36.8827C17.4944 37.1342 17.9975 37.4864 18.6157 37.8566L18.1521 39.1324C18.0874 39.3192 18.1808 39.5241 18.3677 39.5924L21.0918 40.5806C21.2786 40.6489 21.4871 40.5519 21.5554 40.365L21.9399 39.3013C24.4268 39.9769 26.6118 39.5852 28.3008 38.1405C29.9324 36.7425 30.2127 34.7803 29.0627 32.7499ZM23.4241 24.5813L22.6802 26.6405C21.9866 26.1014 21.6164 25.6953 21.8788 25.1131C22.1519 24.5166 22.8311 24.477 23.4241 24.5813ZM24.1608 33.1703C24.6388 33.6339 24.9766 34.0616 25.0089 34.4533C25.0233 34.6761 24.9407 34.8917 24.7466 35.1145C24.4088 35.5063 23.8697 35.5817 23.3127 35.5134L24.1608 33.1703Z" fill="#424242"/>
</g>
</svg>
