<svg width="28" height="28" viewBox="0 0 28 28" fill="none" xmlns="http://www.w3.org/2000/svg">
<g id="ant-design:shopping-outlined">
<path id="Vector" d="M22.75 8.53125H19.0312V8.09375C19.0312 5.31562 16.7781 3.0625 14 3.0625C11.2219 3.0625 8.96875 5.31562 8.96875 8.09375V8.53125H5.25C4.76602 8.53125 4.375 8.92227 4.375 9.40625V24.0625C4.375 24.5465 4.76602 24.9375 5.25 24.9375H22.75C23.234 24.9375 23.625 24.5465 23.625 24.0625V9.40625C23.625 8.92227 23.234 8.53125 22.75 8.53125ZM10.9375 8.09375C10.9375 6.40117 12.3074 5.03125 14 5.03125C15.6926 5.03125 17.0625 6.40117 17.0625 8.09375V8.53125H10.9375V8.09375ZM21.6562 22.9688H6.34375V10.5H8.96875V12.9062C8.96875 13.0266 9.06719 13.125 9.1875 13.125H10.7188C10.8391 13.125 10.9375 13.0266 10.9375 12.9062V10.5H17.0625V12.9062C17.0625 13.0266 17.1609 13.125 17.2812 13.125H18.8125C18.9328 13.125 19.0312 13.0266 19.0312 12.9062V10.5H21.6562V22.9688Z" fill="white"/>
</g>
</svg>
