<svg width="38" height="29" viewBox="0 0 38 29" fill="none" xmlns="http://www.w3.org/2000/svg">
<g id="Rwanda (RW)" clip-path="url(#clip0_147_2215)">
<path id="Vector" d="M0 0H38V29H0V0Z" fill="#20603D"/>
<path id="Vector_2" d="M0 0H38V21.75H0V0Z" fill="#FAD201"/>
<path id="Vector_3" d="M0 0H38V14.5H0V0Z" fill="#00A1DE"/>
<g id="Group">
<g id="b">
<path id="a" d="M34.9363 7.57617L31.7538 7.76547L34.778 8.78853L31.6588 8.132L34.3228 9.91229L31.4728 8.45423L33.5865 10.883L31.2075 8.72812L32.6405 11.6281L30.8869 8.91742L31.5282 12.0873L30.5267 9.01409L30.3407 12.2524L30.3011 7.53589L34.9363 7.57617Z" fill="#E5BE01"/>
<path id="Vector_4" d="M34.9363 7.57618L31.7538 7.38687L34.778 6.36381L31.6588 7.02034L34.3228 5.24005L31.4728 6.69812L33.5865 4.26936L31.2075 6.42423L32.6405 3.52421L30.8869 6.23492L31.5282 3.06504L30.5267 6.13825L30.3407 2.8999L30.3011 7.61646L34.9363 7.57618Z" fill="#E5BE01"/>
</g>
<g id="Group_2">
<path id="a_2" d="M25.745 7.57617L28.9275 7.76547L25.9034 8.78853L29.0225 8.132L26.3586 9.91229L29.2086 8.45423L27.0948 10.883L29.4738 8.72812L28.0409 11.6281L29.7944 8.91742L29.1532 12.0873L30.1546 9.01409L30.3407 12.2524L30.3802 7.53589L25.745 7.57617Z" fill="#E5BE01"/>
<path id="Vector_5" d="M25.745 7.57618L28.9275 7.38687L25.9034 6.36381L29.0225 7.02034L26.3586 5.24005L29.2086 6.69812L27.0948 4.26936L29.4738 6.42423L28.0409 3.52421L29.7944 6.23492L29.1532 3.06504L30.1546 6.13825L30.3407 2.8999L30.3802 7.61646L25.745 7.57618Z" fill="#E5BE01"/>
</g>
<path id="Vector_6" d="M30.3406 8.95765C31.0905 8.95765 31.6983 8.33912 31.6983 7.57611C31.6983 6.81311 31.0905 6.19458 30.3406 6.19458C29.5908 6.19458 28.9829 6.81311 28.9829 7.57611C28.9829 8.33912 29.5908 8.95765 30.3406 8.95765Z" fill="#E5BE01" stroke="#00A1DE" stroke-width="0.283335"/>
</g>
</g>
<defs>
<clipPath id="clip0_147_2215">
<rect width="38" height="29" fill="white"/>
</clipPath>
</defs>
</svg>
