<svg width="28" height="28" viewBox="0 0 28 28" fill="none" xmlns="http://www.w3.org/2000/svg">
<g id="clarity:search-line" clip-path="url(#clip0_206_147)">
<path id="Vector" d="M12.7011 3.92777C14.3858 3.92623 16.0332 4.42442 17.4348 5.35931C18.8364 6.29419 19.9292 7.62378 20.575 9.17986C21.2208 10.7359 21.3906 12.4486 21.0628 14.1012C20.7351 15.7538 19.9246 17.272 18.7338 18.4639C17.543 19.6557 16.0255 20.4676 14.3732 20.7969C12.721 21.1261 11.0081 20.9579 9.45147 20.3136C7.8948 19.6692 6.56422 18.5776 5.62805 17.1769C4.69188 15.7761 4.19219 14.1292 4.19219 12.4444C4.20241 10.1902 5.10191 8.03103 6.69521 6.43627C8.2885 4.84152 10.4468 3.94005 12.7011 3.92777ZM12.7011 2.33333C10.7013 2.33333 8.74641 2.92633 7.08365 4.03736C5.42089 5.14838 4.12492 6.72752 3.35963 8.57508C2.59435 10.4226 2.39411 12.4557 2.78425 14.417C3.17439 16.3784 4.13738 18.18 5.55145 19.5941C6.96551 21.0081 8.76714 21.9711 10.7285 22.3613C12.6899 22.7514 14.7229 22.5512 16.5704 21.7859C18.418 21.0206 19.9971 19.7246 21.1082 18.0619C22.2192 16.3991 22.8122 14.4442 22.8122 12.4444C22.8122 9.76281 21.7469 7.19101 19.8507 5.2948C17.9545 3.3986 15.3827 2.33333 12.7011 2.33333Z" fill="#7F8687"/>
<path id="Vector_2" d="M27.2222 25.8922L21.49 20.1211L20.3856 21.2178L26.1178 26.9889C26.1898 27.0614 26.2754 27.119 26.3697 27.1585C26.4639 27.1979 26.5651 27.2184 26.6673 27.2188C26.7695 27.2191 26.8707 27.1994 26.9653 27.1606C27.0598 27.1218 27.1458 27.0648 27.2183 26.9928C27.2909 26.9208 27.3485 26.8352 27.3879 26.7409C27.4274 26.6466 27.4479 26.5455 27.4482 26.4433C27.4486 26.3411 27.4288 26.2398 27.39 26.1453C27.3513 26.0507 27.2942 25.9647 27.2222 25.8922Z" fill="#7F8687"/>
</g>
<defs>
<clipPath id="clip0_206_147">
<rect width="28" height="28" fill="white"/>
</clipPath>
</defs>
</svg>
