<svg width="28" height="28" viewBox="0 0 28 28" fill="none" xmlns="http://www.w3.org/2000/svg">
<g id="solar:clipboard-outline">
<path id="Vector" fill-rule="evenodd" clip-rule="evenodd" d="M8.4735 3.80301C8.54259 3.15902 8.84731 2.56331 9.32908 2.13043C9.81085 1.69755 10.4357 1.45805 11.0833 1.45801H16.9167C17.5643 1.45805 18.1891 1.69755 18.6709 2.13043C19.1527 2.56331 19.4574 3.15902 19.5265 3.80301C20.4178 3.82167 21.1867 3.86717 21.8447 3.98851C22.729 4.15184 23.4815 4.45984 24.094 5.07351C24.7963 5.77467 25.0973 6.66018 25.2397 7.71018C25.375 8.72051 25.375 10.0073 25.375 11.6022V18.7305C25.375 20.3253 25.375 21.6122 25.2397 22.6237C25.0973 23.6737 24.7963 24.558 24.094 25.2603C23.3917 25.9627 22.5073 26.2637 21.4573 26.406C20.4458 26.5413 19.159 26.5413 17.5642 26.5413H10.4358C8.841 26.5413 7.55417 26.5413 6.54267 26.406C5.49267 26.2637 4.60833 25.9627 3.906 25.2603C3.20367 24.558 2.90267 23.6737 2.7615 22.6237C2.625 21.6122 2.625 20.3253 2.625 18.7305V11.6022C2.625 10.0073 2.625 8.72051 2.7615 7.70901C2.9015 6.65901 3.20483 5.77467 3.906 5.07234C4.5185 4.45984 5.271 4.15067 6.15533 3.98851C6.81333 3.86717 7.58333 3.82167 8.4735 3.80301ZM8.47583 5.55301C7.63817 5.57167 6.99183 5.61367 6.4715 5.70934C5.81117 5.83067 5.42733 6.02667 5.14383 6.31017C4.82067 6.63334 4.61067 7.08601 4.49517 7.94351C4.37733 8.82317 4.375 9.99218 4.375 11.6663V18.6663C4.375 20.3405 4.37733 21.5083 4.49517 22.3903C4.61067 23.2467 4.82183 23.6993 5.14383 24.0225C5.467 24.3457 5.91967 24.5557 6.77717 24.6712C7.65683 24.789 8.82583 24.7913 10.5 24.7913H17.5C19.1742 24.7913 20.342 24.789 21.224 24.6712C22.0803 24.5557 22.533 24.3445 22.8562 24.0225C23.1793 23.6993 23.3893 23.2467 23.5048 22.3892C23.6227 21.5083 23.625 20.3405 23.625 18.6663V11.6663C23.625 9.99218 23.6227 8.82317 23.5048 7.94234C23.3893 7.08601 23.1782 6.63334 22.8562 6.31017C22.5715 6.02667 22.1888 5.83184 21.5285 5.70934C21.0082 5.61367 20.3618 5.57167 19.5242 5.55417C19.4495 6.19333 19.1427 6.78281 18.662 7.21061C18.1813 7.63841 17.5602 7.87473 16.9167 7.87467H11.0833C10.4397 7.8747 9.8184 7.63821 9.33766 7.21017C8.85692 6.78213 8.55021 6.19238 8.47583 5.55301ZM11.0833 3.20801C10.8513 3.20801 10.6287 3.3002 10.4646 3.46429C10.3005 3.62838 10.2083 3.85094 10.2083 4.08301V5.24967C10.2083 5.73267 10.6003 6.12467 11.0833 6.12467H16.9167C17.1487 6.12467 17.3713 6.03249 17.5354 5.86839C17.6995 5.7043 17.7917 5.48174 17.7917 5.24967V4.08301C17.7917 3.85094 17.6995 3.62838 17.5354 3.46429C17.3713 3.3002 17.1487 3.20801 16.9167 3.20801H11.0833ZM7.29167 12.2497C7.29167 12.0176 7.38385 11.7951 7.54795 11.631C7.71204 11.4669 7.9346 11.3747 8.16667 11.3747H19.8333C20.0654 11.3747 20.288 11.4669 20.4521 11.631C20.6161 11.7951 20.7083 12.0176 20.7083 12.2497C20.7083 12.4817 20.6161 12.7043 20.4521 12.8684C20.288 13.0325 20.0654 13.1247 19.8333 13.1247H8.16667C7.9346 13.1247 7.71204 13.0325 7.54795 12.8684C7.38385 12.7043 7.29167 12.4817 7.29167 12.2497ZM8.45833 16.333C8.45833 16.1009 8.55052 15.8784 8.71461 15.7143C8.87871 15.5502 9.10127 15.458 9.33333 15.458H18.6667C18.8987 15.458 19.1213 15.5502 19.2854 15.7143C19.4495 15.8784 19.5417 16.1009 19.5417 16.333C19.5417 16.5651 19.4495 16.7876 19.2854 16.9517C19.1213 17.1158 18.8987 17.208 18.6667 17.208H9.33333C9.10127 17.208 8.87871 17.1158 8.71461 16.9517C8.55052 16.7876 8.45833 16.5651 8.45833 16.333ZM9.625 20.4163C9.625 20.1843 9.71719 19.9617 9.88128 19.7976C10.0454 19.6335 10.2679 19.5413 10.5 19.5413H17.5C17.7321 19.5413 17.9546 19.6335 18.1187 19.7976C18.2828 19.9617 18.375 20.1843 18.375 20.4163C18.375 20.6484 18.2828 20.871 18.1187 21.0351C17.9546 21.1992 17.7321 21.2913 17.5 21.2913H10.5C10.2679 21.2913 10.0454 21.1992 9.88128 21.0351C9.71719 20.871 9.625 20.6484 9.625 20.4163Z" fill="white"/>
</g>
</svg>
