<svg width="46" height="46" viewBox="0 0 46 46" fill="none" xmlns="http://www.w3.org/2000/svg">
<g id="flat-color-icons:customer-support">
<path id="Vector" d="M27.7915 41.2083V36.8L30.2832 37.2792C33.0623 37.8542 35.6498 35.8417 35.8415 33.0625L36.4165 26.8333L39.1957 25.6833C40.154 25.3 40.5373 24.15 39.9623 23.1917L36.4165 17.25C35.8415 9.96667 31.7207 2.875 21.0832 2.875C10.1582 2.875 4.7915 10.925 4.7915 19.1667C4.7915 22.7125 6.03734 25.7792 7.954 28.3667C9.679 30.7625 10.5415 33.6375 10.5415 36.5125V41.1125H27.7915V41.2083Z" fill="#FFB703"/>
<path id="Vector_2" d="M27.7918 41.2084V36.8L21.0835 35.4584V41.2084H27.7918Z" fill="#FF9800"/>
<path id="Vector_3" d="M32.104 22.0416C32.8979 22.0416 33.5415 21.398 33.5415 20.6041C33.5415 19.8102 32.8979 19.1666 32.104 19.1666C31.3101 19.1666 30.6665 19.8102 30.6665 20.6041C30.6665 21.398 31.3101 22.0416 32.104 22.0416Z" fill="#784719"/>
<path id="Vector_4" d="M20.5082 2.875C11.7873 2.875 4.7915 9.87083 4.7915 18.5917C4.7915 29.2292 10.5415 29.5167 10.5415 36.4167L13.0332 35.5542C15.0457 34.8833 16.7707 33.35 17.5373 31.3375L20.2207 24.8208L25.8748 22.0417V16.2917C25.8748 16.2917 32.5832 12.65 32.5832 6.42083C29.7082 4.025 24.629 2.875 20.5082 2.875Z" fill="#FB8500"/>
<path id="Vector_5" d="M20.1248 2.01245C19.5498 2.01245 19.1665 2.39578 19.1665 2.97078V16.2916C19.1665 16.8666 19.5498 17.25 20.1248 17.25C20.6998 17.25 21.0832 16.8666 21.0832 16.2916V2.97078C21.0832 2.39578 20.6998 2.01245 20.1248 2.01245ZM35.3623 30.5708C27.7915 30.5708 25.4915 25.875 25.3957 25.6833C25.204 25.2041 24.629 25.0125 24.1498 25.2041C23.6707 25.3958 23.479 25.9708 23.6707 26.45C23.7665 26.7375 26.5457 32.4875 35.3623 32.4875C35.9373 32.4875 36.3207 32.1041 36.3207 31.5291C36.3207 30.9541 35.8415 30.5708 35.3623 30.5708Z" fill="#546E7A"/>
<path id="Vector_6" d="M35.4582 33.5417C36.5167 33.5417 37.3748 32.6836 37.3748 31.625C37.3748 30.5665 36.5167 29.7084 35.4582 29.7084C34.3996 29.7084 33.5415 30.5665 33.5415 31.625C33.5415 32.6836 34.3996 33.5417 35.4582 33.5417Z" fill="#37474F"/>
<path id="Vector_7" d="M20.1248 28.75C23.8297 28.75 26.8332 25.7466 26.8332 22.0417C26.8332 18.3368 23.8297 15.3334 20.1248 15.3334C16.4199 15.3334 13.4165 18.3368 13.4165 22.0417C13.4165 25.7466 16.4199 28.75 20.1248 28.75Z" fill="#37474F"/>
<path id="Vector_8" d="M20.1248 25.875C22.2419 25.875 23.9582 24.1588 23.9582 22.0417C23.9582 19.9246 22.2419 18.2084 20.1248 18.2084C18.0077 18.2084 16.2915 19.9246 16.2915 22.0417C16.2915 24.1588 18.0077 25.875 20.1248 25.875Z" fill="#546E7A"/>
</g>
</svg>
