<svg width="38" height="29" viewBox="0 0 38 29" fill="none" xmlns="http://www.w3.org/2000/svg">
<g id="Tunisia (TN)" clip-path="url(#clip0_147_2364)">
<g id="Clip path group">
<mask id="mask0_147_2364" style="mask-type:luminance" maskUnits="userSpaceOnUse" x="0" y="0" width="38" height="29">
<g id="a">
<path id="Vector" d="M0.00164795 0H37.9979V29H0.00164795V0Z" fill="white"/>
</g>
</mask>
<g mask="url(#mask0_147_2364)">
<g id="Group">
<path id="Vector_2" fill-rule="evenodd" clip-rule="evenodd" d="M-2.375 0H40.375V29H-2.375V0Z" fill="#E70013"/>
<path id="Vector_3" fill-rule="evenodd" clip-rule="evenodd" d="M26.2252 14.4886C26.2252 16.4279 25.4681 18.2878 24.1204 19.6592C22.7727 21.0305 20.9449 21.8009 19.039 21.8009C17.133 21.8009 15.3052 21.0305 13.9575 19.6592C12.6098 18.2878 11.8527 16.4279 11.8527 14.4886C11.8527 12.5492 12.6098 10.6893 13.9575 9.31799C15.3052 7.94667 17.133 7.17627 19.039 7.17627C20.9449 7.17627 22.7727 7.94667 24.1204 9.31799C25.4681 10.6893 26.2252 12.5492 26.2252 14.4886Z" fill="white"/>
<path id="Vector_4" fill-rule="evenodd" clip-rule="evenodd" d="M19.0389 19.3371C17.8027 19.2941 16.6312 18.7641 15.7716 17.859C14.9119 16.9539 14.4315 15.7445 14.4315 14.4858C14.4315 13.2271 14.9119 12.0176 15.7716 11.1125C16.6312 10.2075 17.8027 9.67751 19.0389 9.63452C19.6958 9.63452 20.4472 9.79312 20.9538 10.1726C17.4692 10.3029 16.5842 13.3162 16.5842 14.5283C16.5842 15.7404 17.1464 18.4421 20.9538 18.8443C20.5196 19.1275 19.6958 19.3371 19.0389 19.3371Z" fill="#E70013"/>
<path id="Vector_5" fill-rule="evenodd" clip-rule="evenodd" d="M23.236 16.5277L21.0707 15.7234L19.6401 17.5586L19.7236 15.2193L17.5638 14.398L19.7793 13.7523L19.8739 11.4131L21.1653 13.3559L23.3807 12.7328L21.9613 14.5736L23.236 16.5277Z" fill="#E70013"/>
</g>
</g>
</g>
</g>
<defs>
<clipPath id="clip0_147_2364">
<rect width="38" height="29" fill="white"/>
</clipPath>
</defs>
</svg>
