<svg width="28" height="24" viewBox="0 0 28 24" fill="none" xmlns="http://www.w3.org/2000/svg">
<path id="Vector" d="M28 2.82031C26.9515 3.30664 25.8394 3.62586 24.7006 3.76736C25.8868 3.02301 26.7975 1.84429 27.2264 0.439858C26.0988 1.14045 24.8651 1.63407 23.5786 1.89937C22.5307 0.730501 21.0378 0 19.3855 0C16.213 0 13.6408 2.69297 13.6408 6.01441C13.6408 6.48587 13.6917 6.94485 13.7896 7.38517C9.01534 7.13426 4.78253 4.73984 1.94917 1.10096C1.4548 1.98927 1.17152 3.02255 1.17152 4.12465C1.17152 6.21137 2.18575 8.05223 3.72706 9.13086C2.81482 9.10094 1.92265 8.84297 1.12503 8.37848C1.1247 8.40368 1.1247 8.42887 1.1247 8.45418C1.1247 11.3683 3.10483 13.7992 5.73267 14.3518C4.88675 14.5927 3.99944 14.6279 3.13852 14.4548C3.86947 16.8443 5.99102 18.5832 8.50467 18.6318C6.53866 20.2449 4.06164 21.2065 1.37036 21.2065C0.906609 21.2065 0.449422 21.178 0 21.1224C2.5422 22.829 5.56172 23.8247 8.80578 23.8247C19.3722 23.8247 25.1501 14.6598 25.1501 6.71193C25.1501 6.45106 25.1447 6.19168 25.1335 5.93379C26.2581 5.08257 27.2288 4.02825 28 2.82031Z" fill="black"/>
</svg>
