<svg width="38" height="29" viewBox="0 0 38 29" fill="none" xmlns="http://www.w3.org/2000/svg">
<g id="Uganda (UG)" clip-path="url(#clip0_147_2281)">
<g id="Clip path group">
<mask id="mask0_147_2281" style="mask-type:luminance" maskUnits="userSpaceOnUse" x="0" y="0" width="38" height="29">
<g id="a">
<path id="Vector" d="M0.00164795 0H37.9979V29H0.00164795V0Z" fill="white"/>
</g>
</mask>
<g mask="url(#mask0_147_2281)">
<g id="Group">
<path id="Vector_2" fill-rule="evenodd" clip-rule="evenodd" d="M-2.375 19.3372H40.375V24.1686H-2.375V19.3372Z" fill="#FFE700"/>
<path id="Vector_3" fill-rule="evenodd" clip-rule="evenodd" d="M-2.375 14.5H40.375V19.3314H-2.375V14.5Z" fill="black"/>
<path id="Vector_4" fill-rule="evenodd" clip-rule="evenodd" d="M-2.375 9.66846H40.375V14.4999H-2.375V9.66846Z" fill="#DE3908"/>
<path id="Vector_5" fill-rule="evenodd" clip-rule="evenodd" d="M-2.375 4.83716H40.375V9.6686H-2.375V4.83716Z" fill="#FFE700"/>
<path id="Vector_6" fill-rule="evenodd" clip-rule="evenodd" d="M-2.375 0H40.375V4.83145H-2.375V0Z" fill="black"/>
<path id="Vector_7" fill-rule="evenodd" clip-rule="evenodd" d="M23.4364 14.5001C23.4364 15.6974 22.969 16.8456 22.137 17.6922C21.305 18.5387 20.1766 19.0144 19 19.0144C17.8234 19.0144 16.695 18.5387 15.863 17.6922C15.031 16.8456 14.5636 15.6974 14.5636 14.5001C14.5636 13.3028 15.031 12.1546 15.863 11.308C16.695 10.4614 17.8234 9.98584 19 9.98584C20.1766 9.98584 21.305 10.4614 22.137 11.308C22.969 12.1546 23.4364 13.3028 23.4364 14.5001Z" fill="#FFFDFF" stroke="black" stroke-width="0.117188"/>
<path id="Vector_8" fill-rule="evenodd" clip-rule="evenodd" d="M18.2207 11.0394L17.9312 10.5013C18.0426 10.388 18.2263 10.2974 18.5268 10.2974L18.4935 10.8921L18.2151 11.0394H18.2207Z" fill="#DE3108" stroke="black" stroke-width="0.117188"/>
<path id="Vector_9" fill-rule="evenodd" clip-rule="evenodd" d="M18.499 10.8921L18.538 10.2974C18.538 10.2974 19.1336 10.2634 19.4565 10.6599L19.1392 11.1243L18.4935 10.8977L18.499 10.8921Z" fill="#FFE700" stroke="black" stroke-width="0.117188"/>
<path id="Vector_10" fill-rule="evenodd" clip-rule="evenodd" d="M19.1447 11.1185L19.4397 10.6541C19.6346 10.8636 19.7181 11.0109 19.7459 11.2375C19.7515 11.2431 19.2839 11.3564 19.2839 11.3507L19.1447 11.1185Z" fill="#DE3108" stroke="black" stroke-width="0.117188"/>
<path id="Vector_11" fill-rule="evenodd" clip-rule="evenodd" d="M18.3654 18.7538C18.3654 18.7538 18.9165 18.1137 19.9853 18.2497C19.8238 17.9835 19.3006 18.0174 19.3006 18.0174C19.3006 18.0174 19.1447 16.7713 19.2672 16.7034C19.3897 16.6354 19.9352 16.709 19.9352 16.709C20.002 16.709 20.1244 16.5165 20.0242 16.3919C19.9296 16.2672 19.6457 15.7971 19.7626 15.7008C19.8795 15.6102 20.5085 15.7575 20.5085 15.7575L18.7273 13.4352C18.7273 13.4352 18.5436 12.5573 18.911 12.1325C19.3507 11.7643 19.3006 11.3622 19.2895 11.3678C19.2282 10.96 18.6215 10.6712 18.2096 11.045C17.9702 11.3395 18.1317 11.5661 18.1317 11.5661C18.1317 11.5661 17.4915 11.7417 17.4693 11.8549C17.4414 11.9682 18.1873 11.838 18.1873 11.838L18.115 12.3534C18.115 12.3534 16.6677 13.6901 17.781 14.8456L17.8144 14.8003C17.8144 14.8003 18.204 15.2874 18.6104 15.395C19 15.7915 18.961 15.7348 18.961 15.7348C18.961 15.7348 19.0334 16.3635 18.961 16.4881C18.8664 16.4598 17.8867 16.4202 17.742 16.4768C17.6084 16.5221 17.1074 16.4938 17.2299 17.3321L17.4136 16.9073C17.4136 16.9073 17.3969 17.2075 17.5193 17.3151C17.4971 16.9979 17.6362 16.7827 17.6362 16.7827C17.6362 16.7827 17.6585 17.1338 17.7364 17.1792C17.8144 17.2358 17.8144 16.6128 18.2374 16.6694C18.6493 16.7204 18.9555 16.7034 18.9555 16.7034C18.9555 16.7034 19.0946 17.9155 19.0501 18.0288C18.7495 17.9551 18.0259 18.0571 17.9814 18.244C18.4044 18.2157 18.5992 18.2667 18.5992 18.2667C18.5992 18.2667 18.2597 18.5782 18.3654 18.7538Z" fill="black" stroke="black" stroke-width="0.105469" stroke-linecap="round" stroke-linejoin="round"/>
<path id="Vector_12" fill-rule="evenodd" clip-rule="evenodd" d="M18.5324 12.1663C18.5324 12.1663 17.4804 13.3444 17.9368 14.245C17.9591 14.1204 17.948 14.0411 17.9647 14.0468C17.9368 14.0298 18.0927 14.1544 18.0815 14.1317C18.0815 14.0638 18.037 13.9222 18.037 13.9222L18.1762 13.9618L18.0927 13.8032L18.2986 13.8259C18.2986 13.8259 18.2263 13.6333 18.2485 13.6333L18.4155 13.6446C18.1149 13.1009 18.3988 12.6478 18.5324 12.1606V12.1663Z" fill="#9CA69C" stroke="#9CA69C" stroke-width="0.105469" stroke-linecap="round" stroke-linejoin="round"/>
<path id="Vector_13" fill-rule="evenodd" clip-rule="evenodd" d="M18.8998 11.1526C18.8998 11.1526 18.9555 11.5604 18.7328 11.6737C18.705 11.702 18.5658 11.7473 18.5881 11.8323C18.6104 11.9456 18.6716 11.9229 18.7551 11.9002C18.9833 11.8606 19.2505 11.3678 18.8998 11.1526Z" fill="#9CA69C" stroke="#9CA69C" stroke-width="0.117188"/>
<path id="Vector_14" fill-rule="evenodd" clip-rule="evenodd" d="M18.5102 11.498C18.5102 11.5206 18.5014 11.5422 18.4857 11.5581C18.47 11.5741 18.4488 11.583 18.4267 11.583C18.4045 11.583 18.3833 11.5741 18.3676 11.5581C18.352 11.5422 18.3432 11.5206 18.3432 11.498C18.3432 11.4755 18.352 11.4539 18.3676 11.438C18.3833 11.422 18.4045 11.4131 18.4267 11.4131C18.4488 11.4131 18.47 11.422 18.4857 11.438C18.5014 11.4539 18.5102 11.4755 18.5102 11.498Z" fill="white"/>
<path id="Vector_15" fill-rule="evenodd" clip-rule="evenodd" d="M18.1706 11.8379C18.115 11.8889 17.8255 12.1947 18.115 12.308C18.41 12.2287 18.3265 12.1721 18.3933 12.1041C18.3933 11.9625 18.2486 11.9285 18.1706 11.8436V11.8379Z" fill="#DE3108" stroke="black" stroke-width="0.117188"/>
<path id="Vector_16" fill-rule="evenodd" clip-rule="evenodd" d="M18.8107 14.7549C18.794 14.8229 18.7272 15.0721 18.8163 15.2646C19.0724 15.1514 19.1893 15.1854 19.2728 15.242C19.0668 15.0721 18.9833 14.9984 18.8107 14.7549Z" fill="#9CA69C" stroke="#9CA69C" stroke-width="0.105469" stroke-linecap="round" stroke-linejoin="round"/>
<path id="Vector_17" fill-rule="evenodd" clip-rule="evenodd" d="M19.2449 15.9216L19.2561 16.4994C19.2561 16.4994 19.4565 16.5333 19.5455 16.4994C19.6346 16.4654 19.5455 16.1029 19.2449 15.9216Z" fill="white" stroke="white" stroke-width="0.105469" stroke-linecap="round" stroke-linejoin="round"/>
<path id="Vector_18" fill-rule="evenodd" clip-rule="evenodd" d="M20.6699 15.9952C20.6699 15.9952 20.3081 15.1003 19.3785 14.8738C18.4489 14.6472 18.5714 13.639 18.6437 13.5767C18.6883 13.4917 18.7161 13.3558 18.9833 13.4861C19.2505 13.6163 20.4862 14.2451 20.6643 14.279C20.8425 14.313 20.6866 16.0179 20.6755 15.9952H20.6699Z" fill="#9CA69C" stroke="black" stroke-width="0.117188"/>
<path id="Vector_19" fill-rule="evenodd" clip-rule="evenodd" d="M19.7904 14.8683C19.7737 14.8796 21.0317 15.6272 20.6532 16.2673C21.0095 16.0237 20.8981 15.6046 20.8981 15.6046C20.8981 15.6046 21.1876 16.3806 20.4751 16.7601C20.553 16.828 20.6031 16.8167 20.6031 16.8167L20.4807 16.9356C20.4807 16.9356 20.425 17.0319 20.9037 16.794C20.7757 16.9017 20.7645 16.981 20.7645 16.981C20.7645 16.981 20.7979 17.0829 21.1097 16.8054C20.8592 17.0829 20.8035 17.2245 20.8035 17.2188C21.4882 17.1622 22.9744 14.8966 20.3359 14.2339L20.4528 14.3585L19.7849 14.8683H19.7904Z" fill="#DE3108" stroke="black" stroke-width="0.105469" stroke-linejoin="round"/>
<path id="Vector_20" fill-rule="evenodd" clip-rule="evenodd" d="M19.8461 14.6473C20.0131 14.7719 20.0743 14.8172 20.0966 14.8738C19.9407 14.8399 19.8016 14.8512 19.8016 14.8512C19.8016 14.8512 19.462 14.5227 19.4008 14.4943C19.3563 14.4943 19.0891 14.3244 19.0891 14.3244C18.961 14.2565 18.8386 13.7977 19.3229 13.9279C19.5086 14.0265 19.7001 14.1135 19.8962 14.1885L20.4918 14.3811L20.8369 14.7719C20.8369 14.7719 20.2246 14.466 20.1467 14.4604C20.3137 14.5963 20.4083 14.7889 20.4083 14.7889C20.2135 14.7322 20.0465 14.6756 19.8461 14.6473Z" fill="white" stroke="black" stroke-width="0.105469" stroke-linecap="round" stroke-linejoin="round"/>
<path id="Vector_21" d="M17.4637 11.8889C17.4637 11.8889 18.0482 11.7417 18.1205 11.7643" stroke="white" stroke-width="0.105469" stroke-linecap="round"/>
<path id="Vector_22" fill-rule="evenodd" clip-rule="evenodd" d="M-2.375 24.1685H40.375V28.9999H-2.375V24.1685Z" fill="#DE3908"/>
</g>
</g>
</g>
</g>
<defs>
<clipPath id="clip0_147_2281">
<rect width="38" height="29" fill="white"/>
</clipPath>
</defs>
</svg>
