<svg width="68" height="84" viewBox="0 0 68 84" fill="none" xmlns="http://www.w3.org/2000/svg">
<g id="ups" clip-path="url(#clip0_188_4107)">
<path id="Vector" d="M34 80.4005C34.6904 80.0568 52.6396 72.3252 58.335 67.6862C64.203 62.8754 67.3096 56.0028 67.3096 47.7558V9.09757L66.7919 8.92575C52.467 1.19412 34.6904 1.70956 33.8274 1.70956C33.1371 1.70956 15.3604 1.19412 1.03553 8.92575L0.690353 9.09757V47.9276C0.690353 56.1747 3.79695 63.0472 9.66497 67.858C15.3604 72.497 33.3096 80.2287 34 80.4005Z" fill="white"/>
<path id="Vector_2" d="M34 81.2596C34 81.2596 15.0152 73.0125 9.14721 68.3735C2.93401 63.2191 0 56.1747 0 48.0994V7.89489C15.0152 -0.180376 34 0.50688 34 0.50688C34 0.50688 52.9848 -0.180376 68 7.89489V47.9276C68 56.0029 65.066 63.0472 58.8528 68.2017C52.9848 73.0125 34 81.2596 34 81.2596ZM2.76142 48.0994C2.76142 55.6592 5.52284 61.8445 10.8731 66.1399C15.7056 70.0916 30.0305 76.4488 34 78.1669C37.9695 76.4488 52.467 69.9198 57.1269 66.1399C62.4772 61.8445 65.2386 55.4874 65.2386 48.0994V8.58215C45.2183 6.69219 21.401 7.72308 2.76142 24.9045V48.0994Z" fill="#969696"/>
<path id="Vector_3" d="M53.1574 42.4295C55.7462 43.9759 56.7817 45.0068 56.9543 46.8967C56.9543 48.9585 55.5736 50.1612 53.3299 50.1612C51.4315 50.1612 49.1878 49.1303 47.6345 47.7558V53.2538C49.533 54.2847 51.7766 55.1438 54.1929 55.1438C60.0609 55.1438 62.8223 51.0203 62.8223 47.2403C62.9949 43.8041 61.9594 41.055 56.9543 38.1342C54.7107 36.7597 52.9848 35.9006 52.9848 33.8388C52.9848 31.7771 54.8832 30.918 56.4365 30.918C58.5076 30.918 60.5787 32.1207 61.7868 33.3234V28.169C60.7513 27.3099 58.5076 26.1072 55.2284 26.279C51.2589 26.4508 47.1167 29.1998 47.1167 34.0106C47.2893 37.2751 48.3249 39.6805 53.1574 42.4295ZM32.7919 54.8002C33.3096 54.972 34.1726 55.1438 35.5533 55.1438C42.2843 55.1438 46.0812 49.1303 46.0812 40.5396C46.0812 31.7771 42.1117 26.4508 35.0355 26.4508C31.7563 26.4508 29.1675 27.1381 26.9239 28.5126V67.3426H32.7919V54.8002ZM32.7919 31.4334C33.3096 31.2616 34.1726 30.918 34.8629 30.918C38.3147 30.918 39.6954 33.667 39.6954 40.3678C39.6954 46.8967 37.9695 49.9894 34.5178 49.9894C33.6548 49.9894 32.9645 49.8176 32.6193 49.6457V31.4334H32.7919ZM14.67 55.1438C18.2944 55.1438 21.401 54.2847 23.6447 52.7384V26.7944H17.6041V49.3021C16.9137 49.8176 16.0508 49.9894 14.8426 49.9894C12.0812 49.9894 11.736 47.4122 11.736 45.8658V26.7944H5.69543V45.5222C5.69543 51.8793 8.80203 55.1438 14.67 55.1438ZM54.8832 78.3387V82.2904H55.5736V80.7441H55.7462L56.7817 82.2904H57.6447C57.6447 82.2904 56.6091 80.7441 56.4365 80.5723C56.9543 80.4005 57.2995 80.0569 57.2995 79.5414C57.2995 79.026 56.9543 78.3387 55.9188 78.3387H54.8832ZM55.9188 78.8541C56.4366 78.8541 56.6091 79.1978 56.6091 79.3696C56.6091 79.7132 56.4365 80.0568 55.7462 80.0568H55.5736V78.8541H55.9188Z" fill="#969696"/>
<path id="Vector_4" d="M58.6802 80.2286C58.6802 81.6032 57.4721 82.8059 56.0914 82.8059C54.7107 82.8059 53.5025 81.6032 53.5025 80.2286C53.5025 78.8541 54.7107 77.6514 56.0914 77.6514C57.6447 77.6514 58.6802 78.8541 58.6802 80.2286ZM56.0914 76.9642C54.3655 76.9642 52.8122 78.3387 52.8122 80.2286C52.8122 81.9468 54.1929 83.4931 56.0914 83.4931C57.8173 83.4931 59.3706 82.1186 59.3706 80.2286C59.3706 78.5105 57.8173 76.9642 56.0914 76.9642Z" fill="#969696"/>
</g>
<defs>
<clipPath id="clip0_188_4107">
<rect width="68" height="83" fill="white" transform="translate(0 0.5)"/>
</clipPath>
</defs>
</svg>
