<svg width="28" height="28" viewBox="0 0 28 28" fill="none" xmlns="http://www.w3.org/2000/svg">
<g id="solar:wallet-linear">
<g id="Group">
<path id="Vector" d="M7 9.33398H11.6667" stroke="white" stroke-width="1.5" stroke-linecap="round" stroke-linejoin="round"/>
<path id="Vector_2" d="M24.3052 10.5H21.2695C19.187 10.5 17.5 12.0668 17.5 14C17.5 15.9332 19.1882 17.5 21.2683 17.5H24.3052C24.4032 17.5 24.451 17.5 24.4918 17.4977C25.1218 17.4592 25.6235 16.9937 25.6643 16.4092C25.6667 16.3718 25.6667 16.3263 25.6667 16.2365V11.7635C25.6667 11.6737 25.6667 11.6282 25.6643 11.5908C25.6223 11.0063 25.1218 10.5408 24.4918 10.5023C24.4522 10.5 24.4032 10.5 24.3052 10.5Z" stroke="white" stroke-width="1.5"/>
<path id="Vector_3" d="M24.4591 10.5003C24.3681 8.31633 24.0764 6.97699 23.1326 6.03433C21.7664 4.66699 19.5661 4.66699 15.1666 4.66699H11.6666C7.26709 4.66699 5.06675 4.66699 3.70059 6.03433C2.33325 7.40049 2.33325 9.60083 2.33325 14.0003C2.33325 18.3998 2.33325 20.6002 3.70059 21.9663C5.06675 23.3337 7.26709 23.3337 11.6666 23.3337H15.1666C19.5661 23.3337 21.7664 23.3337 23.1326 21.9663C24.0764 21.0237 24.3693 19.6843 24.4591 17.5003" stroke="white" stroke-width="1.5"/>
<path id="Vector_4" d="M20.9895 14H21.0012" stroke="white" stroke-width="2" stroke-linecap="round" stroke-linejoin="round"/>
</g>
</g>
</svg>
