<svg width="28" height="28" viewBox="0 0 28 28" fill="none" xmlns="http://www.w3.org/2000/svg">
<g id="ic:baseline-whatsapp">
<path id="Vector" d="M22.225 5.72857C21.1554 4.64815 19.8814 3.79151 18.4772 3.20863C17.0731 2.62574 15.567 2.32827 14.0467 2.33357C7.67666 2.33357 2.485 7.52523 2.485 13.8952C2.485 15.9369 3.02166 17.9202 4.025 19.6702L2.39166 25.6669L8.51666 24.0569C10.2083 24.9786 12.11 25.4686 14.0467 25.4686C20.4167 25.4686 25.6083 20.2769 25.6083 13.9069C25.6083 10.8152 24.4067 7.91023 22.225 5.72857ZM14.0467 23.5086C12.32 23.5086 10.6283 23.0419 9.14666 22.1669L8.79666 21.9569L5.15666 22.9136L6.125 19.3669L5.89166 19.0052C4.93237 17.4734 4.42299 15.7027 4.42166 13.8952C4.42166 8.59856 8.73833 4.2819 14.035 4.2819C16.6017 4.2819 19.0167 5.28523 20.825 7.10523C21.7204 7.99652 22.43 9.05667 22.9126 10.2242C23.3953 11.3918 23.6414 12.6435 23.6367 13.9069C23.66 19.2036 19.3433 23.5086 14.0467 23.5086ZM19.32 16.3219C19.0283 16.1819 17.605 15.4819 17.3483 15.3769C17.08 15.2836 16.8933 15.2369 16.695 15.5169C16.4967 15.8086 15.9483 16.4619 15.785 16.6486C15.6217 16.8469 15.4467 16.8702 15.155 16.7186C14.8633 16.5786 13.93 16.2636 12.8333 15.2836C11.97 14.5136 11.3983 13.5686 11.2233 13.2769C11.06 12.9852 11.2 12.8336 11.3517 12.6819C11.48 12.5536 11.6433 12.3436 11.7833 12.1802C11.9233 12.0169 11.9817 11.8886 12.075 11.7019C12.1683 11.5036 12.1217 11.3402 12.0517 11.2002C11.9817 11.0602 11.3983 9.6369 11.165 9.05357C10.9317 8.49357 10.6867 8.56357 10.5117 8.5519H9.95166C9.75333 8.5519 9.45 8.6219 9.18166 8.91357C8.925 9.20523 8.17833 9.90523 8.17833 11.3286C8.17833 12.7519 9.21666 14.1286 9.35666 14.3152C9.49666 14.5136 11.3983 17.4302 14.2917 18.6786C14.98 18.9819 15.5167 19.1569 15.9367 19.2852C16.625 19.5069 17.255 19.4719 17.7567 19.4019C18.3167 19.3202 19.4717 18.7019 19.705 18.0252C19.95 17.3486 19.95 16.7769 19.8683 16.6486C19.7867 16.5202 19.6117 16.4619 19.32 16.3219Z" fill="black"/>
</g>
</svg>
